<?xml version="1.0" encoding="utf-8"?>
<!-- Generator: Adobe Illustrator 19.0.0, SVG Export Plug-In . SVG Version: 6.00 Build 0)  -->
<svg version="1.1" id="Layer_1" xmlns="http://www.w3.org/2000/svg" xmlns:xlink="http://www.w3.org/1999/xlink" x="0px" y="0px"
	 viewBox="694 -186 2000 982" style="enable-background:new 694 -186 2000 982;" xml:space="preserve">
<style type="text/css">
	.st0{fill:none;}
	.st1{fill:none;stroke:#19E0CD;stroke-width:4;stroke-miterlimit:10;}
	.st2{fill:none;stroke:#2F7296;stroke-width:4;stroke-miterlimit:10;}
	.st3{fill:none;stroke:#C11846;stroke-width:4;stroke-miterlimit:10;}
	.st4{fill:#008E8A;}
	.st5{fill:#C11A46;}
	.st6{fill:#004A8C;}
	.st7{fill:#D1D3D3;}
	.st8{fill:none;stroke:#C9175F;stroke-width:2;stroke-miterlimit:10;}
	.st9{fill:none;stroke:#18B6C6;stroke-width:2;stroke-miterlimit:10;}
	.st10{fill:none;stroke:#1957E0;stroke-width:3;stroke-miterlimit:10;}
	.st11{fill:none;stroke:#E2178B;stroke-width:2;stroke-miterlimit:10;}
	.st12{fill:none;stroke:#E2178B;stroke-width:3;stroke-miterlimit:10;}
	.st13{fill:none;stroke:#F75200;stroke-width:2;stroke-miterlimit:10;}
	.st14{fill:none;stroke:#00E3F4;stroke-width:4;stroke-miterlimit:10;}
	.st15{fill:none;stroke:#00DBF2;stroke-width:2;stroke-miterlimit:10;}
	.st16{fill:none;stroke:#004A8C;stroke-width:3;stroke-miterlimit:10;}
	.st17{fill:none;stroke:#1AD8CF;stroke-width:3;stroke-miterlimit:10;}
	.st18{fill:#FFFFFF;}
	.st19{fill:#B6B8BE;}
	.st20{fill:#FFFFFF;stroke:#00DBF2;stroke-width:2;stroke-miterlimit:10;}
	.st21{fill:none;stroke:#F24A00;stroke-width:3;stroke-miterlimit:10;}
	.st22{fill:#034A89;}
	.st23{fill:#003366;}
	.st24{fill:#0099CC;}
	.st25{fill:#999999;}
	.st26{fill:#666666;}
	.st27{fill:#4D4D4D;}
	.st28{fill:#0071BC;}
	.st29{fill:#333333;}
	.st30{fill:#E2E2E2;}
	.st31{fill:#F4F4F4;}
</style>
<g>
	<title>background</title>
	<rect id="canvas_background" x="693" y="-88" class="st0" width="2002" height="885"/>
</g>
<g>
	<title>Layer 1</title>
	<circle id="svg_1" class="st1" cx="2105.7" cy="638.4" r="9.4"/>
	<circle id="svg_2" class="st1" cx="2283" cy="564.7" r="7.7"/>
	<circle id="svg_4" class="st1" cx="2134.4" cy="577.8" r="7.3"/>
	<circle id="svg_5" class="st2" cx="1975.6" cy="-88" r="6.9"/>
	<circle id="svg_6" class="st2" cx="2133.6" cy="89.9" r="6.9"/>
	<circle id="svg_7" class="st2" cx="1897.6" cy="632.9" r="6.9"/>
	<circle id="svg_8" class="st3" cx="2351.9" cy="544.5" r="6.5"/>
	<circle id="svg_9" class="st4" cx="1892.2" cy="409.9" r="3.3"/>
	<circle id="svg_10" class="st4" cx="1845.4" cy="56.4" r="3.3"/>
	<circle id="svg_11" class="st5" cx="2485" cy="378.4" r="4.2"/>
	<circle id="svg_12" class="st5" cx="2042.7" cy="429.3" r="4.2"/>
	<circle id="svg_13" class="st6" cx="1958.2" cy="122.9" r="3.3"/>
	<line id="svg_20" class="st0" x1="779.3" y1="322" x2="774.7" y2="318"/>
	<path id="svg_21" class="st7" d="M1790.1,132.1"/>
	<polygon id="svg_22" class="st8" points="1726.1,-34.4 1728.3,-30 1733.1,-29.3 1729.6,-25.9 1730.4,-21.1 1726.1,-23.4 
		1721.8,-21.1 1722.6,-25.9 1719.1,-29.3 1724,-30 	"/>
	<polygon id="svg_23" class="st9" points="2428.3,473.7 2430.5,478 2435.3,478.7 2431.8,482.1 2432.6,486.9 2428.3,484.7 
		2424,486.9 2424.8,482.1 2421.4,478.7 2426.2,478 	"/>
	<polygon id="svg_24" class="st8" points="1647.4,586.3 1649.5,590.7 1654.3,591.4 1650.9,594.8 1651.7,599.6 1647.4,597.3 
		1643.1,599.6 1643.9,594.8 1640.4,591.4 1645.2,590.7 	"/>
	<rect id="svg_25" x="1731.1" y="373.9" class="st10" width="9" height="9"/>
	<rect id="svg_26" x="2423.8" y="150.3" class="st11" width="9" height="9"/>
	<rect id="svg_27" x="2502.5" y="578.5" class="st12" width="9" height="9"/>
	
		<rect id="svg_28" x="1937.8" y="275.5" transform="matrix(-0.7071 -0.7071 0.7071 -0.7071 3117.8083 1851.4385)" class="st13" width="9" height="9"/>
	
		<rect id="svg_29" x="2126" y="186" transform="matrix(-0.7071 -0.7071 0.7071 -0.7071 3502.2241 1831.6884)" class="st13" width="9" height="9"/>
	
		<rect id="svg_30" x="2056" y="312" transform="matrix(-0.7071 -0.7071 0.7071 -0.7071 3293.6611 1997.2761)" class="st13" width="9" height="9"/>
	
		<rect id="svg_31" x="2570.3" y="58.3" transform="matrix(-0.7071 -0.7071 0.7071 -0.7071 4351.1157 1927.8767)" class="st14" width="9" height="9"/>
	
		<rect id="svg_32" x="2629.5" y="300.5" transform="matrix(-0.7072 -0.7071 0.7071 -0.7072 4280.9995 2383.0708)" class="st15" width="9" height="9"/>
	<rect id="svg_33" x="2296" y="641" class="st15" width="9" height="9"/>
	<polygon id="svg_34" class="st16" points="1896.4,483.5 1911.8,483.5 1904.1,491.2 	"/>
	<polygon id="svg_35" class="st17" points="2185.4,546.5 2200.8,546.5 2193.1,554.2 	"/>
	<polygon id="svg_36" class="st17" points="2254.6,645.5 2266.6,645.5 2260.6,651.5 	"/>
	<path id="svg_37" class="st18" d="M1490,777.5V796H698v-21l489.1,5c0-0.2,0-0.3,0-0.5c0-1.5-0.1-3.1-0.2-4.6l8.3,0.1
		c0-0.2,0-0.3,0-0.5c0-2.5-0.2-5-0.5-7.5h285.5c0.8,3.4,1.4,6.9,1.6,10.4L1490,777.5z"/>
	<path id="svg_38" class="st18" d="M1195.2,775l-8.3-0.1c0.1,1.5,0.2,3,0.2,4.6c0,0.2,0,0.3,0,0.5L698,775v-8h496.7
		c0.3,2.5,0.5,5,0.5,7.5C1195.2,774.7,1195.2,774.8,1195.2,775L1195.2,775z"/>
	<path id="svg_39" class="st18" d="M1490,767v10.5l-8.1-0.1c-0.3-3.6-0.8-7-1.6-10.4H1490L1490,767z"/>
	<path id="svg_46" class="st18" d="M1963,777.5V796h-792v-21l489.1,5c0-0.2,0-0.3,0-0.5c0-1.5-0.1-3.1-0.2-4.6l8.3,0.1
		c0-0.2,0-0.3,0-0.5c0-2.5-0.2-5-0.5-7.5h285.5c0.8,3.4,1.4,6.9,1.6,10.4L1963,777.5z"/>
	<path id="svg_47" class="st18" d="M1668.2,775l-8.3-0.1c0.1,1.5,0.2,3,0.2,4.6c0,0.2,0,0.3,0,0.5l-489.1-5v-8h496.7
		c0.3,2.5,0.5,5,0.5,7.5C1668.2,774.7,1668.2,774.8,1668.2,775L1668.2,775z"/>
	<path id="svg_48" class="st18" d="M1963,767v10.5l-8.1-0.1c-0.3-3.6-0.8-7-1.6-10.4H1963z"/>
	<path id="svg_49" class="st19" d="M2078.3,655.2c0,1.8,0.7,3.4,1.9,4.5C2079.1,658.6,2078.3,657,2078.3,655.2L2078.3,655.2z"/>
	<path id="svg_50" class="st19" d="M2353.9,655.2L2353.9,655.2c0,1.8-0.7,3.4-1.9,4.5C2353.2,658.6,2353.9,657,2353.9,655.2
		L2353.9,655.2z"/>
	<circle id="svg_68" class="st6" cx="2174.2" cy="487.9" r="3.3"/>
	<path id="svg_69" class="st7" d="M2320.1,577.1"/>
	<rect id="svg_71" x="2163.5" y="542.5" class="st10" width="9" height="9"/>
	<circle id="svg_72" class="st5" cx="2260.7" cy="547.3" r="4.2"/>
	<polygon id="svg_73" class="st9" points="2329.3,579.7 2331.5,584 2336.3,584.7 2332.8,588.1 2333.6,592.9 2329.3,590.7 
		2325,592.9 2325.8,588.1 2322.4,584.7 2327.2,584 	"/>
	<rect id="svg_74" x="2226.5" y="566.5" class="st12" width="9" height="9"/>
	<rect id="svg_75" x="2224" y="544" class="st20" width="9" height="9"/>
	<polygon id="svg_76" class="st21" points="2234.4,514.5 2249.8,514.5 2242.1,522.2 	"/>
	<circle id="svg_77" class="st6" cx="2182.9" cy="630.5" r="3.3"/>
	<rect id="svg_78" x="2211.5" y="521.5" class="st10" width="9" height="9"/>
	<circle id="svg_79" class="st5" cx="2093.7" cy="548.3" r="4.2"/>
	<rect id="svg_80" x="2603.5" y="621.5" class="st12" width="9" height="9"/>
	<circle id="svg_81" class="st6" cx="2111.2" cy="456.9" r="3.3"/>
	<polygon id="svg_83" class="st8" points="1852.3,224.7 1854.5,229 1859.3,229.7 1855.8,233.1 1856.6,237.9 1852.3,235.7 
		1848,237.9 1848.8,233.1 1845.4,229.7 1850.2,229 	"/>
	<polygon id="svg_84" class="st8" points="2329.5,-121.1 2331.7,-116.7 2336.5,-116 2333,-112.6 2333.8,-107.8 2329.5,-110.1 
		2325.2,-107.8 2326,-112.6 2322.5,-116 2327.3,-116.7 	"/>
	<rect id="svg_85" x="2352.5" y="575.5" class="st10" width="9" height="9"/>
	
		<rect id="svg_86" x="2543" y="650.1" transform="matrix(-0.7072 -0.7071 0.7071 -0.7072 3886.1765 2918.688)" class="st13" width="9" height="9"/>
	<path id="svg_90" class="st18" d="M2101,812.7c0-1.5-0.1-3.1-0.2-4.6c0-0.2,0-0.3,0-0.5c-0.2-2.5-0.6-5-1-7.4
		c-1.3-6.7-3.7-13-6.9-18.7c0,0,0,0,0-0.1c-6.5-11.6-16.5-20.8-28.7-26.3c-1.3-0.6-2.6-1.1-3.9-1.6c-6.7-2.5-13.9-3.8-21.5-3.8
		c-8,0-15.6,1.5-22.6,4.1c-2.1,0.8-4.2,1.7-6.1,2.7c-1,0.5-2,1.1-3,1.6c-6.1,3.5-11.6,8.1-16.2,13.4c-2.3,2.7-4.4,5.5-6.2,8.5
		c-7.1-13.9-21.6-23.4-38.3-23.4c-3,0-5.9,0.3-8.7,0.9c-0.7,0.1-1.5,0.3-2.2,0.5c-2.5,0.7-4.9,1.5-7.1,2.6c-0.3,0.1-0.6,0.3-0.9,0.4
		c-2.9,1.4-5.6,3.3-8.1,5.3c-6.1-15-20.8-25.4-38-25.4h-0.2c-3.4,0-6.7,0.3-9.8,1.1c-1.6-2.8-4-5.2-6.9-6.6
		c-2.1-1.1-4.5-1.7-7.1-1.7c-0.5,0-0.9,0-1.4,0.1c-4,0.3-7.6,2.1-10.1,4.9c-7.5-8-18.1-13-29.9-13c-6.1,0-11.8,1.3-17,3.7
		c-4.1,1.9-7.9,4.4-11.2,7.5c-2.2,2.1-4.2,4.5-5.8,7c-1.7-1.9-4.2-3-7-3h-0.2c-5.2,0-9.3,4.2-9.3,9.4c0,1.2,0.2,2.2,0.6,3.2
		c0.4,1.2,1.1,2.3,2,3.3c-5.8,0.3-11.2,1.6-16.2,3.9c-4.9,2.3-9.4,5.5-13.1,9.4c-2.4,2.5-4.5,5.3-6.3,8.4
		c-10.7-20.1-31.8-33.8-56.1-33.8c-10.6,0-20.7,2.6-29.6,7.2c-18.3,9.4-31.7,27.3-34.5,48.3c-0.1,0.5-0.1,0.8-0.2,1.3
		c-0.2,2.2-0.3,4.4-0.3,6.4h0.3l489.1,5.1C2101,813,2101,812.9,2101,812.7L2101,812.7z M1873.1,747.7c-0.2-1.1-0.5-2.2-0.9-3.2
		c-0.2-0.6-0.5-1.3-0.8-1.9C1872.2,744.2,1872.9,745.9,1873.1,747.7z"/>
	<polygon id="svg_91" class="st8" points="2449.3,626.7 2451.5,631 2456.3,631.7 2452.8,635.1 2453.6,639.9 2449.3,637.7 
		2445,639.9 2445.8,635.1 2442.4,631.7 2447.2,631 	"/>
	<rect id="svg_92" x="2412.5" y="628.5" class="st10" width="9" height="9"/>
	<circle id="svg_93" class="st5" cx="2381.7" cy="571.3" r="4.2"/>
	<rect id="svg_94" x="2132.5" y="517.5" class="st12" width="9" height="9"/>
	<rect id="svg_95" x="2476" y="620" class="st20" width="9" height="9"/>
	<polygon id="svg_96" class="st17" points="2559.4,423.5 2574.8,423.5 2567.1,431.2 	"/>
	<circle id="svg_97" class="st6" cx="1989.1" cy="620" r="3.3"/>
	<rect id="svg_98" x="2314" y="550" class="st15" width="9" height="9"/>
	<polygon id="svg_99" class="st17" points="2057.6,507.5 2069.6,507.5 2063.6,513.5 	"/>
	<circle id="svg_100" class="st6" cx="2034.2" cy="504.9" r="3.3"/>
	<rect id="svg_101" x="2320.5" y="521.5" class="st10" width="9" height="9"/>
	<g id="svg_102">
		<circle id="svg_3" class="st1" cx="2233.4" cy="492.8" r="7.3"/>
		<path id="svg_51" class="st22" d="M2263.5,401.4c-1.7-6.6-6-12.1-11.7-15.4c-3.7-2.1-8-3.4-12.5-3.4c-8.8,0-16.5,4.5-20.9,11.3
			c-2.6,3.9-4.1,8.7-4.1,13.7v27.2v10.4h31.3h12.5h6.3v-37.6C2264.3,405.5,2264.1,403.4,2263.5,401.4L2263.5,401.4z"/>
		<path id="svg_52" class="st23" d="M2245.6,445.3h-31.3V464c0,3.5,2.8,6.3,6.3,6.3h37.6c3.5,0,6.3-2.8,6.3-6.3v-18.8h-6.3H2245.6z"
			/>
		<path id="svg_53" class="st22" d="M2352,407.7c0-5.1-1.5-9.8-4.1-13.7c-4.5-6.8-12.2-11.3-20.9-11.3c-4.6,0-8.8,1.2-12.5,3.4
			c-5.7,3.3-10,8.9-11.7,15.4c-0.5,2-0.8,4.1-0.8,6.3v37.6h6.3h12.5h31.3v-10.4L2352,407.7L2352,407.7z"/>
		<path id="svg_54" class="st23" d="M2308.2,445.3h-6.3V464c0,3.5,2.8,6.3,6.3,6.3h37.6c3.5,0,6.3-2.8,6.3-6.3v-18.8h-31.3H2308.2
			L2308.2,445.3z"/>
		<path id="svg_55" class="st19" d="M2193.7,411.4l24.7,3.5c4.5-6.8,12.2-11.3,20.9-11.3V184.4c0-2.5,0-5,0.1-7.5
			c-0.1,0.3-0.1,0.6-0.1,1c-2.3,56.7-31,105.3-56.4,148.2v73C2182.9,405.3,2187.5,410.5,2193.7,411.4L2193.7,411.4z"/>
		<path id="svg_56" class="st24" d="M2218.3,414.9l-24.7-3.5c-6.2-0.9-10.8-6.2-10.8-12.4v-73l0,0c-0.1,0.1-0.1,0.2-0.2,0.3
			c-20.1,33.9-37.4,63.2-37.4,89.8v25c0,1.8,0.7,3.4,1.9,4.5c0.9,0.9,2.1,1.5,3.5,1.7l63.5,8.5v-27.2
			C2214.2,423.6,2215.7,418.9,2218.3,414.9L2218.3,414.9z"/>
		<path id="svg_57" class="st19" d="M2327,403.6c8.8,0,16.5,4.5,20.9,11.3l24.7-3.5c6.2-0.9,10.8-6.2,10.8-12.4v-73
			c-25.4-42.9-54.1-91.5-56.4-148.2c0-0.3-0.1-0.7-0.1-1c0.1,2.5,0.1,5,0.1,7.5L2327,403.6L2327,403.6L2327,403.6z"/>
		<path id="svg_58" class="st24" d="M2383.5,326.3c-0.1-0.1-0.1-0.2-0.2-0.3l0,0v73c0,6.2-4.6,11.5-10.8,12.4l-24.7,3.5
			c2.6,3.9,4.1,8.7,4.1,13.7v27.2l63.5-8.5c1.4-0.2,2.6-0.8,3.5-1.7c1.2-1.1,1.9-2.8,1.9-4.5v-25
			C2420.9,389.6,2403.6,360.3,2383.5,326.3L2383.5,326.3z"/>
		<path id="svg_59" class="st25" d="M2239.3,403.6c4.6,0,8.8,1.2,12.5,3.4V184.4v-10.2c0-1.5,0.7-3,1.9-4.1
			c7.5-6.9,18.2-10.8,29.4-10.8c11.2,0,21.9,3.9,29.4,10.8c1.2,1.1,1.9,2.6,1.9,4.1v10.2V407c3.7-2.1,8-3.4,12.5-3.4V184.4
			c0-2.5,0-5-0.1-7.5c-1.7-49.8-19.9-86.5-43.7-86.5c-23.8,0-42.1,36.7-43.7,86.5c-0.1,2.5-0.1,5-0.1,7.5V403.6z"/>
		<path id="svg_60" class="st26" d="M2308.2,190.7h-50.1c-4.3,0-6.3-2.8-6.3-6.3V407c5.7,3.3,10,8.9,11.7,15.4h13.3v-75.2
			c0-3.5,2.8-6.3,6.3-6.3s6.3,2.8,6.3,6.3v75.2h13.3c1.7-6.6,6-12.1,11.7-15.4V184.4C2314.4,187.9,2312.5,190.7,2308.2,190.7
			L2308.2,190.7z"/>
		<path id="svg_61" class="st27" d="M2302.7,422.4h-13.3v43.8h12.5v-37.6C2301.9,426.5,2302.2,424.4,2302.7,422.4z"/>
		<path id="svg_62" class="st27" d="M2263.5,422.4c0.5,2,0.8,4.1,0.8,6.3v37.6h12.5v-43.8H2263.5z"/>
		<path id="svg_63" class="st28" d="M2289.4,347.2c0-3.5-2.8-6.3-6.3-6.3s-6.3,2.8-6.3,6.3v75.2v43.8V485c0,3.5,2.8,6.3,6.3,6.3
			s6.3-2.8,6.3-6.3v-18.8v-43.8V347.2z"/>
		<path id="svg_64" class="st29" d="M2258.1,190.7h50.1c4.3,0,6.3-2.8,6.3-6.3v-10.2c0-1.5-0.7-3-1.9-4.1
			c-7.5-6.9-18.2-10.8-29.4-10.8c-11.2,0-21.9,3.9-29.4,10.8c-1.2,1.1-1.9,2.6-1.9,4.1v10.2C2251.8,187.9,2253.7,190.7,2258.1,190.7
			z"/>
		<path id="svg_65" d="M2248.1,128h70.3c0,0-11.6-36.8-35.8-36.1C2258.5,92.7,2248.1,128,2248.1,128z"/>
		<path id="svg_66" d="M2247.9,127l70.4,0c0,0-11.6-37.4-35.7-36.6C2258.5,91.2,2247.9,127,2247.9,127z"/>
		<path id="svg_67" d="M2325.2,115.1"/>
		<polygon id="svg_70" class="st8" points="2327.3,484.7 2329.5,489 2334.3,489.7 2330.8,493.1 2331.6,497.9 2327.3,495.7 
			2323,497.9 2323.8,493.1 2320.4,489.7 2325.2,489 		"/>
	</g>
	<g id="svg_103">
		<path id="svg_14" class="st30" d="M1863,759.7c4-7.2,7.7-15.4,7.7-24c0-29.1-31.9-52.7-71.2-52.7c-25.7,0-48.2,10.1-60.7,25.2
			c-8-11.5-24.2-19.4-42.9-19.4c-11.5,0-22,3-30.2,7.9c-6.8-12.4-23.3-21.2-42.5-21.2c-3.9,0-7.6,0.4-11.2,1
			c-3.1-4.1-8.9-6.8-15.7-6.8c-5.1,0-9.7,1.6-12.9,4.1c-8.4-6.6-20.3-10.7-33.5-10.7c-15.8,0-29.8,6-38.1,15
			c-1.9-1.6-4.7-2.6-7.9-2.6c-5.9,0-10.6,3.5-10.6,7.9c0,2.1,1.1,4,2.9,5.4c-17,0.5-31.8,7.7-39.7,18c-11.9-16.7-35.6-28-62.8-28
			c-39.2,0-70.8,23.6-70.8,52.7c0,9,3.2,17.4,8.6,24.8L1863,759.7L1863,759.7z M1613.3,678.6c-0.2-0.5-0.5-1-0.9-1.5
			c0.9,1.3,1.6,2.7,1.9,4.2C1614.2,680.3,1613.8,679.4,1613.3,678.6L1613.3,678.6z"/>
		<path id="svg_15" class="st31" d="M1850.9,759.7c4-7.2,7.5-15.4,7.5-24c0-29.1-32.1-52.7-71.3-52.7c-25.7,0-48.2,10.1-60.7,25.2
			c-8-11.5-24.2-19.4-42.8-19.4c-11.5,0-22,3-30.2,7.9c-6.8-12.4-23.3-21.2-42.5-21.2c-3.9,0-7.6,0.4-11.2,1
			c-3.1-4.1-8.9-6.8-15.7-6.8c-5.1,0-9.7,1.6-12.9,4.1c-8.4-6.6-20.3-10.7-33.5-10.7c-15.8,0-29.8,6-38.1,15
			c-1.9-1.6-4.7-2.6-7.9-2.6c-5.9,0-10.6,3.5-10.6,7.9c0,2.1,1.1,4,2.9,5.4c-17,0.5-31.8,7.7-39.7,18c-11.9-16.7-35.6-28-62.8-28
			c-39.2,0-70.7,23.6-70.7,52.7c0,9,3.3,17.4,8.7,24.8L1850.9,759.7L1850.9,759.7z M1600.9,678.6c-0.2-0.5-0.5-1-0.9-1.5
			c0.9,1.3,1.6,2.7,1.9,4.2C1601.7,680.3,1601.4,679.4,1600.9,678.6L1600.9,678.6z"/>
		<path id="svg_16" class="st7" d="M1658.3,799.5c0-2.5-0.2-5-0.6-7.5c-1.1-6.6-3.4-12.8-6.9-18.6c0,0,0,0,0-0.1
			c-9.2-15.2-26.1-27.2-47.3-33c-2.7-0.7-5.4-1.3-8.2-1.9c-6.6-1.3-13.6-1.9-20.9-1.9c-15.6,0-30.2,3.1-42.8,8.5
			c-2.4,1-4.8,2.2-7,3.4c-1.2,0.6-2.3,1.3-3.4,1.9c-7.8,4.6-14.6,10.3-19.8,16.6c-0.8-1.2-1.7-2.4-2.7-3.5
			c-10.3-12-28.4-19.9-48.9-19.9c-4.3,0-8.4,0.3-12.5,1c-0.8,0.1-1.5,0.3-2.3,0.4c-7.6,1.5-14.6,4.1-20.6,7.6
			c-0.4,0.2-0.7,0.4-1.1,0.6c0-0.1-0.1-0.1-0.1-0.2c-8.3-14.9-28.1-25.4-51.1-25.4c-4.7,0-9.2,0.4-13.5,1.2
			c-3.3-4.4-9.3-7.5-16.3-8.1c-0.9-0.1-1.7-0.1-2.6-0.1c-4.2,0-8,0.9-11.3,2.4c-1.6,0.7-3,1.6-4.3,2.6c-10.1-8-24.4-13-40.3-13
			c-12.8,0-24.6,3.2-34,8.7c-4.6,2.6-8.6,5.8-11.8,9.4c-0.9-0.8-2-1.4-3.2-1.9c-1.8-0.8-4-1.2-6.3-1.2c-4.9,0-9.1,2-11.3,5
			c-1,1.3-1.5,2.9-1.5,4.5c0,2.5,1.3,4.8,3.5,6.5c-4.8,0.2-9.4,0.7-13.8,1.7c-7,1.5-13.4,4-19,7.2c-6.1,3.5-11.2,7.8-15,12.8
			c-0.8-1.2-1.7-2.3-2.6-3.4c-15.1-18.2-42.1-30.3-73-30.3c-18.9,0-36.6,4.5-51,12.2c-20.8,11-34.9,28.5-36.1,48.3
			c-0.1,1-0.1,2-0.1,3l387.2,2.9l261.8,2l11.2,0.1C1658.3,799.8,1658.3,799.7,1658.3,799.5L1658.3,799.5z M1350.6,732.5
			c0.2,0.6,0.5,1.3,0.6,2C1351,733.8,1350.8,733.1,1350.6,732.5c-0.2-0.4-0.5-0.8-0.7-1.3c-0.3-0.6-0.6-1.3-1-1.9
			C1349.6,730.4,1350.2,731.4,1350.6,732.5L1350.6,732.5z"/>
		<path id="svg_17" class="st18" d="M1647.4,804.5c0-1.5-0.1-3.1-0.3-4.6c0-0.2,0-0.3-0.1-0.5c-0.3-2.5-0.8-5-1.4-7.4
			c-1.8-6.7-5-13-9.3-18.7c0,0,0,0-0.1-0.1c-8.8-11.6-22.3-20.8-38.7-26.3c-1.7-0.6-3.5-1.1-5.3-1.6c-9-2.5-18.8-3.8-29.1-3.8
			c-10.7,0-21,1.5-30.5,4.1c-2.8,0.8-5.6,1.7-8.3,2.7c-1.4,0.5-2.7,1.1-4,1.6c-8.3,3.5-15.7,8.1-21.9,13.4c-3.1,2.7-5.9,5.5-8.4,8.5
			c-9.6-13.9-29.1-23.4-51.6-23.4c-4,0-7.9,0.3-11.7,0.9c-1,0.1-2,0.3-3,0.5c-3.3,0.7-6.6,1.5-9.6,2.6c-0.4,0.1-0.8,0.3-1.2,0.4
			c-3.9,1.4-7.6,3.4-11,5.4c-8.2-15-28.1-25.3-51.2-25.3h-0.3c-4.6,0-9,0.2-13.2,1c-2.1-2.8-5.4-5.3-9.3-6.7
			c-2.9-1.1-6.1-1.7-9.5-1.7c-0.6,0-1.3,0-1.9,0c-5.4,0.3-10.2,2.1-13.7,4.9c-10.1-8-24.4-13-40.3-13c-8.2,0-16,1.3-22.9,3.7
			c-5.6,1.9-10.7,4.4-15.1,7.5c-3,2.1-5.6,4.6-7.9,7.1c-2.3-1.9-5.7-2.9-9.5-2.9h-0.2c-7,0-12.6,4-12.6,9.3c0,1.2,0.3,2.1,0.8,3.1
			c0.6,1.2,1.5,2.3,2.8,3.2c-7.8,0.3-15.1,1.6-21.8,3.9c-6.7,2.3-12.6,5.5-17.6,9.4c-3.3,2.5-6.1,5.3-8.5,8.4
			c-14.4-20.1-42.9-33.8-75.7-33.8c-14.3,0-27.9,2.6-39.9,7.2c-24.7,9.4-42.8,27.3-46.5,48.3c-0.1,0.5-0.2,1-0.2,1.4
			c-0.3,2.2-0.5,4.4-0.5,6.6h0.5l659.6,5C1647.4,804.8,1647.4,804.7,1647.4,804.5L1647.4,804.5z M1340.1,739.5
			c-0.3-1.1-0.7-2.2-1.3-3.2c-0.3-0.6-0.6-1.3-1-1.9C1338.9,735.9,1339.7,737.7,1340.1,739.5z"/>
		<path id="svg_18" class="st7" d="M2055.9,797.5c-0.2-1.8-0.5-3.6-0.8-5.4c-6.5-30.1-40.4-53.1-82.9-53.1
			c-18.6,0-35.8,4.4-49.9,11.8c-9.3,5-17.2,11.3-23.2,18.5c-0.8-1.2-1.7-2.4-2.7-3.5c-6.2-7.2-15.1-12.9-25.7-16.3
			c-3.9-1.3-8.1-2.3-12.5-2.9c-3.5-0.5-7.1-0.8-10.8-0.8c-13.3,0-25.6,3.3-35.4,8.9c-0.4,0.2-0.7,0.4-1.1,0.6c0-0.1-0.1-0.1-0.1-0.2
			c-8.3-14.9-28.1-25.4-51.1-25.4c-4.7,0-9.2,0.4-13.5,1.2c-3.7-4.9-10.7-8.2-18.9-8.2c-0.3,0-0.6,0-0.8,0c-0.1,0-0.1,0-0.2,0
			c-5.7,0.2-10.9,2.1-14.5,4.9c-10.1-8-24.4-13-40.3-13c-12.8,0-24.6,3.2-34,8.7c-4.6,2.6-8.6,5.8-11.8,9.4c-0.9-0.8-2-1.4-3.2-1.9
			c-1.8-0.8-4-1.2-6.3-1.2c-4.9,0-9.1,2-11.3,5c-1,1.3-1.5,2.9-1.5,4.5c0,0.3,0,0.5,0.1,0.8c0.2,2.2,1.5,4.2,3.5,5.8
			c-3.2,0.1-6.3,0.4-9.3,0.9c-1.5,0.2-3.1,0.5-4.6,0.9c-7,1.5-13.4,4-19,7.2c-6.1,3.5-11.2,7.8-15,12.8c-0.8-1.2-1.7-2.3-2.6-3.4
			c-6.1-7.4-14.1-13.7-23.6-18.7c-0.4-0.2-0.8-0.4-1.3-0.6c-13.7-6.9-30.3-11-48.2-11c-17.8,0-34.5,4-48.5,10.9
			c-0.9,0.4-1.7,0.9-2.5,1.3c-1.9,1-3.7,2.1-5.5,3.2c-9.8,6.1-17.7,13.7-23.1,22.3c0,0,0,0-0.1,0.1c-3.9,6.3-6.4,13.1-7.3,20.2
			c-0.2,1.8-0.3,3.7-0.3,5.5l251,1.9l11.2,0.1c0-2.5-0.2-5-0.6-7.5h385.1c1.1,3.4,1.9,7.1,2.2,10.7l10.9,0.3h0.3
			C2056.2,801,2056.1,799.2,2055.9,797.5L2055.9,797.5z M1748.5,735c0.2,0.6,0.5,1.3,0.6,2C1748.9,736.3,1748.7,735.6,1748.5,735
			c-0.2-0.4-0.5-0.8-0.7-1.3c-0.3-0.6-0.6-1.3-1-1.9C1747.4,732.9,1748,733.9,1748.5,735z"/>
		<path id="svg_19" class="st18" d="M1658.3,799.5c0-2.5-0.2-5-0.6-7.5h385.1c-9-27.6-41.6-48-81.6-48c-14,0-27.1,2.5-38.8,6.9
			c-9.9,3.8-18.7,8.9-25.9,15.1c-3.1,2.7-5.9,5.5-8.4,8.5c-4.3-6.2-10.6-11.6-18.3-15.6c-3.5-1.8-7.4-3.4-11.5-4.6
			c-6.8-2-14.1-3.2-21.9-3.2c-8.7,0-16.9,1.4-24.3,3.9c-0.4,0.1-0.8,0.3-1.2,0.4c-3.9,1.4-7.6,3.2-11,5.2
			c-8.2-15-28.1-25.5-51.2-25.5h-0.3c-4.6,0-9,0.5-13.2,1.2c-3.7-4.9-10.7-8.2-18.9-8.2c-6.1,0-11.7,1.9-15.6,5
			c-10.1-8-24.4-13-40.3-13c-8.2,0-16,1.3-22.9,3.7c-5.6,1.9-10.7,4.4-15.1,7.5c-3,2.1-5.6,4.4-7.9,6.9c-2.3-1.9-5.7-3.1-9.5-3.1
			h-0.2c-3.9,0-7.3,1.4-9.6,3.4c-1.9,1.7-3,3.8-3,6.1c0,0.3,0,0.5,0.1,0.8c0.1,0.9,0.3,1.7,0.7,2.5c0.6,1.2,1.5,2.4,2.8,3.3
			c-7.8,0.3-15.1,1.6-21.8,3.9c-6.7,2.3-12.6,5.5-17.6,9.4c-3.2,2.5-6,5.3-8.4,8.3c0,0,0,0-0.1,0.1c0,0,0,0,0,0c0,0,0,0,0,0
			c0,0,0,0-0.1-0.1c-6.4-8.9-15.6-16.6-26.8-22.3c-0.2-0.1-0.4-0.2-0.6-0.3c-13.7-6.9-30.3-11-48.2-11c-12.4,0-24.3,2-35.1,5.5
			c-1.6,0.5-3.2,1.1-4.8,1.7c-2.9,1.1-5.8,2.3-8.5,3.7c-11.3,5.6-20.8,13-27.6,21.8c0,0,0,0-0.1,0.1c-4.8,6.2-8.2,13-9.9,20.3
			c-0.5,2-0.8,3.9-1,5.9c-0.1,1.5-0.2,3-0.2,4.6l262.2,2c0-1.5-0.1-3.1-0.3-4.6l11.2,0.1C1658.3,799.8,1658.3,799.7,1658.3,799.5
			L1658.3,799.5z M1738,742c-0.3-1.1-0.7-2.2-1.3-3.2c-0.3-0.6-0.6-1.3-1-1.9C1736.7,738.4,1737.6,740.2,1738,742z"/>
		<path id="svg_40" class="st30" d="M2500.9,759.7c4-7.2,7.7-15.4,7.7-24c0-29.1-31.9-52.7-71.2-52.7c-25.7,0-48.2,10.1-60.7,25.2
			c-8-11.5-24.2-19.4-42.8-19.4c-11.5,0-22,3-30.2,7.9c-6.8-12.4-23.3-21.2-42.5-21.2c-3.9,0-7.6,0.4-11.2,1
			c-3.1-4.1-8.9-6.8-15.7-6.8c-5.1,0-9.7,1.6-12.9,4.1c-8.4-6.6-20.3-10.7-33.5-10.7c-15.8,0-29.8,6-38.1,15
			c-1.9-1.6-4.7-2.6-7.9-2.6c-5.9,0-10.6,3.5-10.6,7.9c0,2.1,1.1,4,2.9,5.4c-17,0.5-31.8,7.7-39.7,18c-11.9-16.7-35.6-28-62.8-28
			c-39.2,0-70.8,23.6-70.8,52.7c0,9,3.2,17.4,8.6,24.8L2500.9,759.7L2500.9,759.7z M2251.3,678.6c-0.2-0.5-0.5-1-0.9-1.5
			c0.9,1.3,1.6,2.7,1.9,4.2C2252.1,680.3,2251.7,679.4,2251.3,678.6L2251.3,678.6z"/>
		<path id="svg_41" class="st31" d="M2488.8,759.7c4-7.2,7.5-15.4,7.5-24c0-29.1-32.1-52.7-71.3-52.7c-25.7,0-48.2,10.1-60.7,25.2
			c-8-11.5-24.2-19.4-42.8-19.4c-11.5,0-22,3-30.2,7.9c-6.8-12.4-23.3-21.2-42.5-21.2c-3.9,0-7.6,0.4-11.2,1
			c-3.1-4.1-8.9-6.8-15.7-6.8c-5.1,0-9.7,1.6-12.9,4.1c-8.4-6.6-20.3-10.7-33.5-10.7c-15.8,0-29.8,6-38.1,15
			c-1.9-1.6-4.7-2.6-7.9-2.6c-5.9,0-10.6,3.5-10.6,7.9c0,2.1,1.1,4,2.9,5.4c-17,0.5-31.8,7.7-39.7,18c-11.9-16.7-35.6-28-62.8-28
			c-39.2,0-70.7,23.6-70.7,52.7c0,9,3.3,17.4,8.7,24.8L2488.8,759.7L2488.8,759.7z M2238.8,678.6c-0.2-0.5-0.5-1-0.9-1.5
			c0.9,1.3,1.6,2.7,1.9,4.2C2239.7,680.3,2239.3,679.4,2238.8,678.6L2238.8,678.6z"/>
		<path id="svg_42" class="st7" d="M2296.2,799.5c0-2.5-0.2-5-0.6-7.5c-1.1-6.6-3.4-12.8-6.9-18.6c0,0,0,0,0-0.1
			c-9.2-15.2-26.1-27.2-47.3-33c-2.7-0.7-5.4-1.3-8.2-1.9c-6.6-1.3-13.6-1.9-20.9-1.9c-15.6,0-30.2,3.1-42.8,8.5
			c-2.4,1-4.8,2.2-7,3.4c-1.2,0.6-2.3,1.3-3.4,1.9c-7.8,4.6-14.6,10.3-19.8,16.6c-0.8-1.2-1.7-2.4-2.7-3.5
			c-10.3-12-28.4-19.9-48.9-19.9c-4.3,0-8.4,0.3-12.5,1c-0.8,0.1-1.5,0.3-2.3,0.4c-7.6,1.5-14.6,4.1-20.6,7.6
			c-0.4,0.2-0.7,0.4-1.1,0.6c0-0.1-0.1-0.1-0.1-0.2c-8.3-14.9-28.1-25.4-51.1-25.4c-4.7,0-9.2,0.4-13.5,1.2
			c-3.3-4.4-9.3-7.5-16.3-8.1c-0.9-0.1-1.7-0.1-2.6-0.1c-4.2,0-8,0.9-11.3,2.4c-1.6,0.7-3,1.6-4.3,2.6c-10.1-8-24.4-13-40.3-13
			c-12.8,0-24.6,3.2-34,8.7c-4.6,2.6-8.6,5.8-11.8,9.4c-0.9-0.8-2-1.4-3.2-1.9c-1.8-0.8-4-1.2-6.3-1.2c-4.9,0-9.1,2-11.3,5
			c-1,1.3-1.5,2.9-1.5,4.5c0,2.5,1.3,4.8,3.5,6.5c-4.8,0.2-9.4,0.7-13.8,1.7c-7,1.5-13.4,4-19,7.2c-6.1,3.5-11.2,7.8-15,12.8
			c-0.8-1.2-1.7-2.3-2.6-3.4c-15.1-18.2-42.1-30.3-73-30.3c-18.9,0-36.6,4.5-51,12.2c-20.8,11-34.9,28.5-36.1,48.3
			c-0.1,1-0.1,2-0.1,3l387.2,2.9l261.8,2l11.2,0.1C2296.2,799.8,2296.2,799.7,2296.2,799.5L2296.2,799.5z M1988.5,732.5
			c0.2,0.6,0.5,1.3,0.6,2C1989,733.8,1988.7,733.1,1988.5,732.5c-0.2-0.4-0.5-0.8-0.7-1.3c-0.3-0.6-0.6-1.3-1-1.9
			C1987.5,730.4,1988.1,731.4,1988.5,732.5z"/>
		<path id="svg_43" class="st18" d="M2285.3,804.5c0-1.5-0.1-3.1-0.3-4.6c0-0.2,0-0.3-0.1-0.5c-0.3-2.5-0.8-5-1.4-7.4
			c-1.8-6.7-5-13-9.3-18.7c0,0,0,0-0.1-0.1c-8.8-11.6-22.3-20.8-38.7-26.3c-1.7-0.6-3.5-1.1-5.3-1.6c-9-2.5-18.8-3.8-29-3.8
			c-10.7,0-21,1.5-30.5,4.1c-2.8,0.8-5.6,1.7-8.3,2.7c-1.4,0.5-2.7,1.1-4,1.6c-8.3,3.5-15.7,8.1-21.9,13.4c-3.1,2.7-5.9,5.5-8.4,8.5
			c-9.6-13.9-29.1-23.4-51.6-23.4c-4,0-7.9,0.3-11.7,0.9c-1,0.1-2,0.3-3,0.5c-3.3,0.7-6.6,1.5-9.6,2.6c-0.4,0.1-0.8,0.3-1.2,0.4
			c-3.9,1.4-7.6,3.4-11,5.4c-8.2-15-28.1-25.3-51.2-25.3h-0.3c-4.6,0-9,0.2-13.2,1c-2.1-2.8-5.4-5.3-9.3-6.7
			c-2.9-1.1-6.1-1.7-9.5-1.7c-0.6,0-1.3,0-1.9,0c-5.4,0.3-10.2,2.1-13.7,4.9c-10.1-8-24.4-13-40.3-13c-8.2,0-16,1.3-22.9,3.7
			c-5.6,1.9-10.7,4.4-15.1,7.5c-3,2.1-5.6,4.6-7.9,7.1c-2.3-1.9-5.7-2.9-9.5-2.9h-0.2c-7,0-12.6,4-12.6,9.3c0,1.2,0.3,2.1,0.8,3.1
			c0.6,1.2,1.5,2.3,2.8,3.2c-7.8,0.3-15.1,1.6-21.8,3.9c-6.7,2.3-12.6,5.5-17.6,9.4c-3.3,2.5-6.1,5.3-8.5,8.4
			c-14.4-20.1-42.9-33.8-75.7-33.8c-14.3,0-27.9,2.6-39.9,7.2c-24.7,9.4-42.8,27.3-46.5,48.3c-0.1,0.5-0.2,1-0.2,1.4
			c-0.3,2.2-0.5,4.4-0.5,6.6h0.5l659.6,5C2285.3,804.8,2285.3,804.7,2285.3,804.5L2285.3,804.5z M1978,739.5
			c-0.3-1.1-0.7-2.2-1.3-3.2c-0.3-0.6-0.6-1.3-1-1.9C1976.8,735.9,1977.7,737.7,1978,739.5z"/>
		<path id="svg_44" class="st7" d="M2693.8,797.5c-0.2-1.8-0.5-3.6-0.8-5.4c-6.5-30.1-40.4-53.1-82.9-53.1
			c-18.6,0-35.8,4.4-49.9,11.8c-9.3,5-17.2,11.3-23.2,18.5c-0.8-1.2-1.7-2.4-2.7-3.5c-6.2-7.2-15.1-12.9-25.7-16.3
			c-3.9-1.3-8.1-2.3-12.5-2.9c-3.5-0.5-7.1-0.8-10.8-0.8c-13.3,0-25.6,3.3-35.4,8.9c-0.4,0.2-0.7,0.4-1.1,0.6c0-0.1-0.1-0.1-0.1-0.2
			c-8.3-14.9-28.1-25.4-51.1-25.4c-4.7,0-9.2,0.4-13.5,1.2c-3.7-4.9-10.7-8.2-18.9-8.2c-0.3,0-0.6,0-0.8,0c-0.1,0-0.1,0-0.2,0
			c-5.7,0.2-10.9,2.1-14.5,4.9c-10.1-8-24.4-13-40.3-13c-12.8,0-24.6,3.2-34,8.7c-4.6,2.6-8.6,5.8-11.8,9.4c-0.9-0.8-2-1.4-3.2-1.9
			c-1.8-0.8-4-1.2-6.3-1.2c-4.9,0-9.1,2-11.3,5c-1,1.3-1.5,2.9-1.5,4.5c0,0.3,0,0.5,0.1,0.8c0.2,2.2,1.5,4.2,3.5,5.8
			c-3.2,0.1-6.3,0.4-9.3,0.9c-1.5,0.2-3.1,0.5-4.6,0.9c-7,1.5-13.4,4-19,7.2c-6.1,3.5-11.2,7.8-15,12.8c-0.8-1.2-1.7-2.3-2.6-3.4
			c-6.1-7.4-14.1-13.7-23.6-18.7c-0.4-0.2-0.8-0.4-1.3-0.6c-13.7-6.9-30.3-11-48.2-11c-17.8,0-34.5,4-48.5,10.9
			c-0.9,0.4-1.7,0.9-2.5,1.3c-1.9,1-3.8,2.1-5.5,3.2c-9.8,6.1-17.7,13.7-23.1,22.3c0,0,0,0-0.1,0.1c-3.9,6.3-6.4,13.1-7.3,20.2
			c-0.2,1.8-0.3,3.7-0.3,5.5l251,1.9l11.2,0.1c0-2.5-0.2-5-0.6-7.5h385.1c1.1,3.4,1.9,7.1,2.2,10.7l10.9,0.3h0.3
			C2694.1,801,2694,799.2,2693.8,797.5L2693.8,797.5z M2386.4,735c0.2,0.6,0.5,1.3,0.6,2C2386.8,736.3,2386.6,735.6,2386.4,735
			c-0.2-0.4-0.5-0.8-0.7-1.3c-0.3-0.6-0.6-1.3-1-1.9C2385.3,732.9,2385.9,733.9,2386.4,735z"/>
		<path id="svg_45" class="st18" d="M2296.2,799.5c0-2.5-0.2-5-0.6-7.5h385.1c-9-27.6-41.6-48-81.6-48c-14,0-27.1,2.5-38.8,6.9
			c-9.9,3.8-18.7,8.9-25.9,15.1c-3.1,2.7-5.9,5.5-8.4,8.5c-4.3-6.2-10.6-11.6-18.3-15.6c-3.5-1.8-7.4-3.4-11.5-4.6
			c-6.8-2-14.1-3.2-21.9-3.2c-8.7,0-16.9,1.4-24.3,3.9c-0.4,0.1-0.8,0.3-1.2,0.4c-3.9,1.4-7.6,3.2-11,5.2
			c-8.2-15-28.1-25.5-51.2-25.5h-0.3c-4.6,0-9,0.5-13.2,1.2c-3.7-4.9-10.7-8.2-18.9-8.2c-6.1,0-11.7,1.9-15.6,5
			c-10.1-8-24.4-13-40.3-13c-8.2,0-16,1.3-22.9,3.7c-5.6,1.9-10.7,4.4-15.1,7.5c-3,2.1-5.6,4.4-7.9,6.9c-2.3-1.9-5.7-3.1-9.5-3.1
			h-0.2c-3.9,0-7.3,1.4-9.6,3.4c-1.9,1.7-3,3.8-3,6.1c0,0.3,0,0.5,0.1,0.8c0.1,0.9,0.3,1.7,0.7,2.5c0.6,1.2,1.5,2.4,2.8,3.3
			c-7.8,0.3-15.1,1.6-21.8,3.9c-6.7,2.3-12.6,5.5-17.6,9.4c-3.2,2.5-6,5.3-8.4,8.3c0,0,0,0-0.1,0.1c0,0,0,0,0,0c0,0,0,0,0,0
			c0,0,0,0-0.1-0.1c-6.4-8.9-15.6-16.6-26.8-22.3c-0.2-0.1-0.4-0.2-0.6-0.3c-13.7-6.9-30.3-11-48.2-11c-12.4,0-24.3,2-35.1,5.5
			c-1.6,0.5-3.2,1.1-4.8,1.7c-2.9,1.1-5.8,2.3-8.5,3.7c-11.3,5.6-20.8,13-27.6,21.8c0,0,0,0-0.1,0.1c-4.8,6.2-8.2,13-9.9,20.3
			c-0.5,2-0.8,3.9-1,5.9c-0.1,1.5-0.2,3-0.2,4.6l262.2,2c0-1.5-0.1-3.1-0.3-4.6l11.2,0.1C2296.2,799.8,2296.2,799.7,2296.2,799.5
			L2296.2,799.5z M2375.9,742c-0.3-1.1-0.7-2.2-1.3-3.2c-0.3-0.6-0.6-1.3-1-1.9C2374.7,738.4,2375.5,740.2,2375.9,742z"/>
		<path id="svg_82" class="st7" d="M2077.6,723.1"/>
		<path id="svg_87" class="st7" d="M1369.7,822.5c0-2.5-0.2-5-0.6-7.5c-1.1-6.6-3.4-12.8-6.9-18.6c0,0,0,0,0-0.1
			c-9.2-15.2-26.1-27.2-47.3-33c-2.7-0.7-5.4-1.3-8.2-1.9c-6.6-1.3-13.6-1.9-20.9-1.9c-15.6,0-30.2,3.1-42.8,8.5
			c-2.4,1-4.8,2.2-7,3.4c-1.2,0.6-2.3,1.3-3.4,1.9c-7.8,4.6-14.6,10.3-19.8,16.6c-0.8-1.2-1.7-2.4-2.7-3.5
			c-10.3-12-28.4-19.9-48.9-19.9c-4.3,0-8.4,0.3-12.5,1c-0.8,0.1-1.5,0.3-2.3,0.4c-7.6,1.5-14.6,4.1-20.6,7.6
			c-0.4,0.2-0.7,0.4-1.1,0.6c0-0.1-0.1-0.1-0.1-0.2c-8.3-14.9-28.1-25.4-51.1-25.4c-4.7,0-9.2,0.4-13.5,1.2
			c-3.3-4.4-9.3-7.5-16.3-8.1c-0.9-0.1-1.7-0.1-2.6-0.1c-4.2,0-8,0.9-11.3,2.4c-1.6,0.7-3,1.6-4.3,2.6c-10.1-8-24.4-13-40.3-13
			c-12.8,0-24.6,3.2-34,8.7c-4.6,2.6-8.6,5.8-11.8,9.4c-0.9-0.8-2-1.4-3.2-1.9c-1.8-0.8-4-1.2-6.3-1.2c-4.9,0-9.1,2-11.3,5
			c-1,1.3-1.5,2.9-1.5,4.5c0,2.5,1.3,4.8,3.5,6.5c-4.8,0.2-9.4,0.7-13.8,1.7c-7,1.5-13.4,4-19,7.2c-6.1,3.5-11.2,7.8-15,12.8
			c-0.8-1.2-1.7-2.3-2.6-3.4c-15.1-18.2-42.1-30.3-73-30.3c-18.9,0-36.6,4.5-51,12.2c-20.8,11-34.9,28.5-36.1,48.3
			c-0.1,1-0.1,2-0.1,3l387.2,2.9l261.8,2l11.2,0.1C1369.7,822.8,1369.7,822.7,1369.7,822.5L1369.7,822.5z M1062,755.5
			c0.2,0.6,0.5,1.3,0.6,2C1062.4,756.8,1062.2,756.1,1062,755.5c-0.2-0.4-0.5-0.8-0.7-1.3c-0.3-0.6-0.6-1.3-1-1.9
			C1060.9,753.4,1061.5,754.4,1062,755.5z"/>
		<path id="svg_88" class="st18" d="M1358.7,827.5c0-1.5-0.1-3.1-0.3-4.6c0-0.2,0-0.3-0.1-0.5c-0.3-2.5-0.8-5-1.4-7.4
			c-1.8-6.7-5-13-9.3-18.7c0,0,0,0-0.1-0.1c-8.8-11.6-22.3-20.8-38.7-26.3c-1.7-0.6-3.5-1.1-5.3-1.6c-9-2.5-18.8-3.8-29-3.8
			c-10.7,0-21,1.5-30.5,4.1c-2.8,0.8-5.6,1.7-8.3,2.7c-1.4,0.5-2.7,1.1-4,1.6c-8.3,3.5-15.7,8.1-21.9,13.4c-3.1,2.7-5.9,5.5-8.4,8.5
			c-9.6-13.9-29.1-23.4-51.6-23.4c-4,0-7.9,0.3-11.7,0.9c-1,0.1-2,0.3-3,0.5c-3.3,0.7-6.6,1.5-9.6,2.6c-0.4,0.1-0.8,0.3-1.2,0.4
			c-3.9,1.4-7.6,3.4-11,5.4c-8.2-15-28.1-25.3-51.2-25.3h-0.3c-4.6,0-9,0.2-13.2,1c-2.1-2.8-5.4-5.3-9.3-6.7
			c-2.9-1.1-6.1-1.7-9.5-1.7c-0.6,0-1.3,0-1.9,0c-5.4,0.3-10.2,2.1-13.7,4.9c-10.1-8-24.4-13-40.3-13c-8.2,0-16,1.3-22.9,3.7
			c-5.6,1.9-10.7,4.4-15.1,7.5c-3,2.1-5.6,4.6-7.9,7.1c-2.3-1.9-5.7-2.9-9.5-2.9h-0.2c-7,0-12.6,4-12.6,9.3c0,1.2,0.3,2.1,0.8,3.1
			c0.6,1.2,1.5,2.3,2.8,3.2c-7.8,0.3-15.1,1.6-21.8,3.9c-6.7,2.3-12.6,5.5-17.6,9.4c-3.3,2.5-6.1,5.3-8.5,8.4
			c-14.4-20.1-42.9-33.8-75.7-33.8c-14.3,0-27.9,2.6-39.9,7.2c-24.7,9.4-42.8,27.3-46.5,48.3c-0.1,0.5-0.2,1-0.2,1.4
			c-0.3,2.2-0.5,4.4-0.5,6.6h0.5l659.6,5C1358.8,827.8,1358.8,827.7,1358.7,827.5L1358.7,827.5z M1051.5,762.5
			c-0.3-1.1-0.7-2.2-1.3-3.2c-0.3-0.6-0.6-1.3-1-1.9C1050.3,758.9,1051.1,760.7,1051.5,762.5z"/>
	</g>
</g>
</svg>
