<svg width="470" height="470" xmlns="http://www.w3.org/2000/svg">

 <g>
  <title>background</title>
  <rect fill="none" id="canvas_background" height="402" width="582" y="-1" x="-1"/>
 </g>
 <g>
  <title>Layer 1</title>
  <rect stroke="#000" id="svg_21" height="226.999994" width="382" y="56" x="46.5" fill-opacity="null" stroke-opacity="null" stroke-width="1.5" fill="#A8FFE9"/>
  <rect id="svg_22" height="50" width="445" y="327" x="13.5" fill-opacity="null" stroke-opacity="null" stroke-width="1.5" stroke="#000" fill="#A8FFE9"/>
  <g id="svg_1">
   <g id="svg_2">
    <g id="svg_3">
     <path id="svg_4" d="m432.5,12.5l-395,0c-20.678,0 -37.5,16.823 -37.5,37.5l0,300c0,20.677 16.822,37.5 37.5,37.5l145,0l0,55l-52.5,0c-4.142,0 -7.5,3.358 -7.5,7.5c0,4.142 3.358,7.5 7.5,7.5l210,0c4.142,0 7.5,-3.358 7.5,-7.5c0,-4.142 -3.358,-7.5 -7.5,-7.5l-52.5,0l0,-55l145,0c20.678,0 37.5,-16.823 37.5,-37.5l0,-300c0,-20.677 -16.822,-37.5 -37.5,-37.5zm-160,430l-75,0l0,-55l75,0l0,55zm182.5,-92.5c0,12.406 -10.093,22.5 -22.5,22.5l-395,0c-12.407,0 -22.5,-10.094 -22.5,-22.5l0,-22.5l440,0l0,22.5zm0,-37.5l-440,0l0,-262.5c0,-12.406 10.093,-22.5 22.5,-22.5l395,0c12.407,0 22.5,10.094 22.5,22.5l0,262.5z"/>
     <path id="svg_5" d="m432.5,42.5l-395,0c-4.142,0 -7.5,3.358 -7.5,7.5l0,240c0,4.142 3.358,7.5 7.5,7.5l325,0c4.142,0 7.5,-3.358 7.5,-7.5c0,-4.142 -3.358,-7.5 -7.5,-7.5l-317.5,0l0,-225l380,0l0,225l-32.5,0c-4.142,0 -7.5,3.358 -7.5,7.5c0,4.142 3.358,7.5 7.5,7.5l40,0c4.142,0 7.5,-3.358 7.5,-7.5l0,-240c0,-4.142 -3.358,-7.5 -7.5,-7.5z"/>
    </g>
   </g>
  </g>
  <g id="svg_6"/>
  <g id="svg_7"/>
  <g id="svg_8"/>
  <g id="svg_9"/>
  <g id="svg_10"/>
  <g id="svg_11"/>
  <g id="svg_12"/>
  <g id="svg_13"/>
  <g id="svg_14"/>
  <g id="svg_15"/>
  <g id="svg_16"/>
  <g id="svg_17"/>
  <g id="svg_18"/>
  <g id="svg_19"/>
  <g id="svg_20"/>
 </g>
</svg>