<svg width="230" height="50" xmlns="http://www.w3.org/2000/svg">
 <style type="text/css">.st0{fill:#007AB9;}</style>

 <g>
  <title>background</title>
  <rect fill="none" id="canvas_background" height="52" width="232" y="-1" x="-1"/>
 </g>
 <g>
  <title>Layer 1</title>
  <g stroke="null" id="形状_2">
   <g stroke="null" id="svg_1">
    <path stroke="null" id="svg_2" d="m34.954781,17.066956l-8.921739,0l-0.793043,7.98l8.17826,0c5.006087,0 5.353043,0.941739 5.353043,4.213043l0,1.387826l-6.592174,0c-6.493043,0 -10.111304,2.28 -10.111304,8.624347c0,5.402608 3.122609,9.31826 8.971304,9.31826c2.131304,0 5.402608,-0.346957 9.020869,-2.329565l0.346957,2.032174l7.98,0l0,-18.933912c-0.049565,-8.822608 -2.428696,-12.292173 -13.432173,-12.292173zm3.816522,23.444347c-1.437391,0.644348 -2.577391,1.288696 -4.510435,1.288696c-1.833913,0 -2.626956,-0.892174 -2.626956,-2.626956c0,-1.734783 0.892174,-2.131304 2.924348,-2.131304l4.262608,0l-0.049565,3.469565l0,0zm190.528686,-23.444347l-10.35913,0l-8.773043,13.87826l0,-28.252172l-9.566086,1.586087l0,43.865215l9.566086,0l0,-14.621738l8.773043,14.621738l10.35913,0l-9.566086,-15.959999l9.566086,-15.117391zm-76.03304,-0.446087c-11.251304,0 -13.977391,6.294782 -13.977391,12.787825l0,6.294782c0,6.493043 2.726087,12.787825 13.977391,12.787825c11.251304,0 13.927825,-6.294782 13.927825,-12.787825l0,-6.294782c0,-6.443478 -2.676522,-12.787825 -13.927825,-12.787825zm4.361739,20.024347c0,2.230435 -1.14,4.014782 -4.361739,4.014782c-3.271304,0 -4.361739,-1.784348 -4.361739,-4.014782l0,-8.07913c0,-2.230435 1.14,-3.965217 4.361739,-3.965217c3.221739,0 4.361739,1.784348 4.361739,3.965217l0,8.07913zm-134.767819,-19.57826l-7.236521,0l0,-4.014782c0,-2.081739 0.198261,-3.172174 3.172174,-3.172174l3.965217,0l0,-7.98l-6.344348,0c-7.682608,0 -10.35913,3.866087 -10.35913,10.35913l0,4.807826l-4.758261,0l0,7.98l4.758261,0l0,23.146955l9.566086,0l0,-23.146955l6.393913,0l0.842609,-7.98zm28.698259,12.73826l0,5.600869c0,7.781739 4.064348,13.184347 14.373912,13.184347c2.37913,0 5.204348,-0.247826 9.566086,-1.23913l0,-7.732174c-4.956521,0.842609 -6.393913,1.04087 -8.773043,1.04087c-4.312174,0 -5.600869,-0.941739 -5.600869,-4.609565l0,-6.889565c0,-3.618261 1.288696,-4.56 5.600869,-4.56c2.37913,0 3.816522,0.198261 8.773043,1.04087l0,-7.781739c-4.361739,-0.991304 -7.186956,-1.23913 -9.566086,-1.23913c-10.309565,0 -14.373912,5.402608 -14.373912,13.184347zm73.802605,-13.184347c-2.428696,0 -5.105217,0.396522 -7.186956,1.14l0,-15.067825l-9.566086,1.586087l0,43.072172c5.204348,0.793043 7.98,1.23913 12.688695,1.23913c13.085217,0 15.216521,-5.501739 15.216521,-13.035652l0,-7.781739c0,-6.889565 -1.586087,-11.152173 -11.152173,-11.152173zm1.586087,18.983477c0,2.973913 -0.644348,5.154782 -5.303478,5.154782c-1.288696,0 -2.081739,0 -3.469565,-0.148696l0,-14.720869c1.437391,-0.644348 2.825217,-1.288696 4.807826,-1.288696c3.271304,0 3.965217,1.784348 3.965217,3.965217l0,7.038261l0,0zm56.950432,-18.983477c-11.251304,0 -13.977391,6.294782 -13.977391,12.787825l0,6.294782c0,6.493043 2.726087,12.787825 13.977391,12.787825c11.251304,0 13.927825,-6.294782 13.927825,-12.787825l0,-6.294782c0,-6.443478 -2.676522,-12.787825 -13.927825,-12.787825zm4.361739,20.024347c0,2.230435 -1.14,4.014782 -4.411304,4.014782c-3.271304,0 -4.361739,-1.784348 -4.361739,-4.014782l0,-8.07913c0,-2.230435 1.14,-3.965217 4.361739,-3.965217c3.221739,0 4.411304,1.784348 4.411304,3.965217l0,8.07913zm-96.404343,-20.024347c-10.507826,0 -13.580869,5.600869 -13.580869,12.391304l0,6.393913c0,7.781739 4.064348,13.184347 14.373912,13.184347c4.708695,0 7.186956,-0.247826 11.945217,-1.23913l0,-7.732174c-4.956521,0.842609 -7.286087,1.04087 -11.152173,1.04087c-4.312174,0 -5.600869,-0.941739 -5.600869,-4.609565l0,-0.644348l17.546086,0l0,-6.393913c0.049565,-6.889565 -3.023478,-12.391304 -13.531304,-12.391304zm3.965217,12.391304l-7.98,0l0,-1.23913c0,-2.230435 0.743478,-3.965217 4.014782,-3.965217c3.271304,0 3.965217,1.784348 3.965217,3.965217l0,1.23913z" class="st0"/>
   </g>
  </g>
 </g>
</svg>