<svg width="30" height="30" xmlns="http://www.w3.org/2000/svg">
 <g>
  <title>background</title>
  <rect fill="none" id="canvas_background" height="32" width="32" y="-1" x="-1"/>
 </g>

 <g>
  <title>Layer 1</title>
  <path stroke="null" id="svg_1" fill="#FFFFFF" d="m14.700759,0c-8.105971,0 -14.700759,6.594789 -14.700759,14.700759c0,8.105375 6.594789,14.700759 14.700759,14.700759c8.105375,0 14.700759,-6.595384 14.700759,-14.700759c0,-8.105971 -6.594204,-14.700759 -14.700759,-14.700759zm3.655945,15.218295l-2.391696,0c0,3.821155 0,8.524622 0,8.524622l-3.544036,0c0,0 0,-4.657863 0,-8.524622l-1.684665,0l0,-3.012858l1.684665,0l0,-1.948781c0,-1.3957 0.663214,-3.576593 3.576603,-3.576593l2.62619,0.010069l0,2.924639c0,0 -1.59585,0 -1.906133,0c-0.310294,0 -0.751444,0.155142 -0.751444,0.820716l0,1.770535l2.700215,0l-0.309698,3.012284l0,-0.000011z"/>
 </g>
</svg>