<svg width="30" height="30" xmlns="http://www.w3.org/2000/svg">
 <g>
  <title>background</title>
  <rect x="-1" y="-1" width="32" height="32" id="canvas_background" fill="none"/>
 </g>

 <g>
  <title>Layer 1</title>
  <path stroke="null" d="m13.826,0c-7.623625,0 -13.826,6.202375 -13.826,13.826c0,7.623068 6.202375,13.826 13.826,13.826c7.623068,0 13.826,-6.202932 13.826,-13.826c0,-7.623625 -6.201818,-13.826 -13.826,-13.826zm3.4384,14.312744l-2.249384,0c0,3.59378 0,8.017364 0,8.017364l-3.333143,0c0,0 0,-4.380702 0,-8.017364l-1.584426,0l0,-2.833589l1.584426,0l0,-1.832811c0,-1.312651 0.623746,-3.363773 3.363773,-3.363773l2.469923,0.009468l0,2.750609c0,0 -1.500889,0 -1.792713,0c-0.291824,0 -0.706727,0.145912 -0.706727,0.771886l0,1.665179l2.539537,0l-0.291267,2.833032z" fill="#FFFFFF" id="svg_1"/>
 </g>
</svg>