<svg width="50" height="50" xmlns="http://www.w3.org/2000/svg">

 <g>
  <title>background</title>
  <rect fill="none" id="canvas_background" height="52" width="52" y="-1" x="-1"/>
 </g>
 <g>
  <title>Layer 1</title>
  <path stroke="null" id="svg_1" fill-rule="evenodd" clip-rule="evenodd" fill="#007AB9" d="m38.688983,36.573983l0,-9.1744c0,-4.915417 -2.624167,-7.20275 -6.122533,-7.20275c-2.823133,0 -4.088217,1.55335 -4.793217,2.642967l0,-2.266967l-5.318833,0c0.0705,1.50165 0,16.00115 0,16.00115l5.318833,0l0,-8.936267c0,-0.47705 0.034467,-0.954883 0.175467,-1.296417c0.383833,-0.955667 1.258817,-1.945017 2.727567,-1.945017c1.925433,0 2.694667,1.467183 2.694667,3.617433l0,8.56105l5.31805,0l0,-0.000783zm-21.837766,-18.185083c1.85415,0 3.009567,-1.229833 3.009567,-2.76595c-0.034467,-1.569017 -1.155417,-2.7636 -2.974317,-2.7636s-3.008783,1.1938 -3.008783,2.7636c0,1.536117 1.154633,2.76595 2.93985,2.76595l0.033683,0zm8.648783,30.6111c-12.978267,0 -23.5,-10.521733 -23.5,-23.5c0,-12.97905 10.521733,-23.5 23.5,-23.5s23.5,10.52095 23.5,23.5c0,12.978267 -10.521733,23.5 -23.5,23.5zm-5.989367,-12.426017l0,-16.00115l-5.31805,0l0,16.00115l5.31805,0z"/>
 </g>
</svg>