<svg width="30" height="30" xmlns="http://www.w3.org/2000/svg">
 <g>
  <title>background</title>
  <rect x="-1" y="-1" width="32" height="32" id="canvas_background" fill="none"/>
 </g>

 <g>
  <title>Layer 1</title>
  <g stroke="null" id="svg_1">
   <path stroke="null" id="LinkedIn" d="m28.117004,17.858704l0,9.655623l-5.59772,0l0,-9.008948c0,-2.263121 -0.80965,-3.807613 -2.835839,-3.807613c-1.546738,0 -2.467203,1.040874 -2.87215,2.047745c-0.147673,0.359952 -0.185684,0.860959 -0.185684,1.364819l0,9.403997l-5.599602,0c0,0 0.075415,-15.2582 0,-16.839064l5.599055,0l0,2.38687c-0.011355,0.017852 -0.02611,0.0371 -0.036797,0.054406l0.036797,0l0,-0.054406c0.743889,-1.145739 2.072397,-2.782465 5.046011,-2.782465c3.684107,-0.000061 6.445927,2.406726 6.445927,7.579036zm-22.948416,-15.300705c-1.915617,0 -3.168588,1.256493 -3.168588,2.908825c0,1.616324 1.216721,2.91095 3.094266,2.91095l0.037404,0c1.952717,0 3.167131,-1.294383 3.167131,-2.91095c-0.036797,-1.652332 -1.214414,-2.908825 -3.130213,-2.908825zm-2.836021,24.956328l5.597477,0l0,-16.839064l-5.597477,0l0,16.839064z" fill="#ffffff"/>
  </g>
  <g id="svg_2"/>
  <g id="svg_3"/>
  <g id="svg_4"/>
  <g id="svg_5"/>
  <g id="svg_6"/>
  <g id="svg_7"/>
  <g id="svg_8"/>
  <g id="svg_9"/>
  <g id="svg_10"/>
  <g id="svg_11"/>
  <g id="svg_12"/>
  <g id="svg_13"/>
  <g id="svg_14"/>
  <g id="svg_15"/>
  <g id="svg_16"/>
 </g>
</svg>