<svg width="430.117" height="430.117" xmlns="http://www.w3.org/2000/svg">

 <g>
  <title>background</title>
  <rect fill="none" id="canvas_background" height="402" width="582" y="-1" x="-1"/>
 </g>
 <g>
  <title>Layer 1</title>
  <g id="svg_1">
   <path fill="#ffffff" d="m430.117,261.543l0,159.017l-92.188,0l0,-148.367c0,-37.271 -13.334,-62.707 -46.703,-62.707c-25.473,0 -40.632,17.142 -47.301,33.724c-2.432,5.928 -3.058,14.179 -3.058,22.477l0,154.873l-92.219,0c0,0 1.242,-251.285 0,-277.32l92.21,0l0,39.309c-0.187,0.294 -0.43,0.611 -0.606,0.896l0.606,0l0,-0.896c12.251,-18.869 34.13,-45.824 83.102,-45.824c60.673,-0.001 106.157,39.636 106.157,124.818zm-377.934,-251.985c-31.548,0 -52.183,20.693 -52.183,47.905c0,26.619 20.038,47.94 50.959,47.94l0.616,0c32.159,0 52.159,-21.317 52.159,-47.94c-0.606,-27.212 -20,-47.905 -51.551,-47.905zm-46.706,411.002l92.184,0l0,-277.32l-92.184,0l0,277.32z" id="LinkedIn"/>
  </g>
  <g id="svg_2"/>
  <g id="svg_3"/>
  <g id="svg_4"/>
  <g id="svg_5"/>
  <g id="svg_6"/>
  <g id="svg_7"/>
  <g id="svg_8"/>
  <g id="svg_9"/>
  <g id="svg_10"/>
  <g id="svg_11"/>
  <g id="svg_12"/>
  <g id="svg_13"/>
  <g id="svg_14"/>
  <g id="svg_15"/>
  <g id="svg_16"/>
 </g>
</svg>