<svg width="30" height="30" xmlns="http://www.w3.org/2000/svg">
 <g>
  <title>background</title>
  <rect fill="none" id="canvas_background" height="9.497933" width="9.497933" y="-1" x="-1"/>
 </g>

 <g>
  <title>Layer 1</title>
  <g stroke="null" id="svg_1">
   <path stroke="null" fill="#ffffff" d="m29.61581,18.762004l0,10.856213l-6.293746,0l0,-10.12913c0,-2.54452 -0.910323,-4.281055 -3.18845,-4.281055c-1.739061,0 -2.773978,1.170297 -3.229276,2.302364c-0.166035,0.404709 -0.208772,0.968012 -0.208772,1.534522l0,10.573299l-6.295862,0c0,0 0.084792,-17.15542 0,-18.93285l6.295247,0l0,2.683656c-0.012767,0.020072 -0.029357,0.041713 -0.041372,0.061171l0.041372,0l0,-0.061171c0.836385,-1.288201 2.330081,-3.12844 5.673437,-3.12844c4.142193,-0.000069 7.24742,2.705981 7.24742,8.521421l0.000002,0zm-25.801845,-17.20321c-2.153807,0 -3.562573,1.412727 -3.562573,3.270511c0,1.817299 1.368009,3.2729 3.47901,3.2729l0.042055,0c2.19552,0 3.560935,-1.455328 3.560935,-3.2729c-0.041372,-1.857785 -1.365415,-3.270511 -3.519427,-3.270511zm-3.188655,28.059423l6.293473,0l0,-18.93285l-6.293473,0l0,18.93285z" id="LinkedIn"/>
  </g>
  <g id="svg_2"/>
  <g id="svg_3"/>
  <g id="svg_4"/>
  <g id="svg_5"/>
  <g id="svg_6"/>
  <g id="svg_7"/>
  <g id="svg_8"/>
  <g id="svg_9"/>
  <g id="svg_10"/>
  <g id="svg_11"/>
  <g id="svg_12"/>
  <g id="svg_13"/>
  <g id="svg_14"/>
  <g id="svg_15"/>
  <g id="svg_16"/>
 </g>
</svg>