<svg width="2000" height="193" xmlns="http://www.w3.org/2000/svg">

 <g>
  <title>background</title>
  <rect fill="none" id="canvas_background" height="195" width="2002" y="-1" x="-1"/>
 </g>
 <g>
  <title>Layer 1</title>
  <path stroke="null" id="svg_3" d="m1917.256384,371.337471c0,0 -53.24428,-67.661634 -147.44064,-78.257415s-156.24895,33.45239 -187.80111,52.373439c-56.53096,34.814701 -97.28584,47.681016 -178.13826,5.297881c-113.25912,-59.412059 -222.17982,0.378427 -261.62003,70.689011c0,-104.973929 0.46014,-149.173477 0.46014,-149.173477l774.5399,-0.22705l0,99.297611z"/>
  <path stroke="null" id="svg_6" d="m323.44035,107.46907c38.40499,-36.89593 133.5233,-100.21733 173.23219,-15.9266c39.70889,84.29073 119.69517,-2.90637 150.08583,-11.76747c60.78132,-17.72221 102.21177,41.65468 173.56378,67.80874c71.352,26.15406 76.31884,-75.67265 156.52217,-79.77499c80.20333,-4.10234 104.39324,130.07616 220.31241,68.55663c115.91917,-61.51953 141.03244,80.13787 156.88843,90.99335c31.71197,21.71095 -1285.29888,-26.15405 -1139.95223,-21.93813" opacity="0.5" stroke-opacity="null" stroke-width="null" fill="#5B9BA2"/>
  <path stroke="null" id="svg_7" d="m1245.86525,80.436665c-46.60872,-51.9934 -95.4314,-69.33624 -181.0536,-6.39698c-85.62219,62.93926 -119.8238,-4.09563 -150.24712,-16.58261c-60.84665,-24.97398 -102.32162,58.6994 -173.75031,95.55547c-71.42868,36.85607 -76.40087,-106.63722 -156.69039,-112.4182c-80.28953,-5.78099 -104.50543,183.30217 -220.54918,96.60939c-116.04375,-86.69278 -141.18401,112.92958 -157.05704,128.22702c-31.74605,30.59488 1335.30252,27.78443 1189.79966,33.72547" opacity="0.5" stroke-opacity="null" stroke-width="null" fill="#5B9BA2"/>
 </g>
</svg>