<svg width="512.001" height="512.001" xmlns="http://www.w3.org/2000/svg">
 <g>
  <title>background</title>
  <rect x="-1" y="-1" width="514.001" height="514.001" id="canvas_background" fill="none"/>
 </g>

 <g>
  <title>Layer 1</title>
  <rect fill="#ffffff" stroke="#2F7296" stroke-width="4" stroke-opacity="null" x="16.500488" y="174.500504" width="482" height="165" id="svg_31"/>
  <path id="svg_32" d="m42.500488,170.000504c0,0 99,1 99,1c0,0 41,-36 41,-36c0,0 46,-17 46,-17c0,0 44,-6 44,-6c0,0 51,15 51,15c0,0 29,24 29,24c0,0 12,17 11.499512,16.999496c0.500488,0.000504 93.500488,-1.999496 93.500488,-1.999496c0,0 4,-14 4,-14c0,0 -72,-81 -72,-81c0,0 -92,-34 -92,-34c0,0 -92,2 -92,2c0,0 -47,14 -47,14c0,0 -59,39 -59,39c0,0 -32,38 -32,38c0,0 -25,40 -25,40z" stroke-opacity="null" stroke-width="null" stroke="null" fill="#3399cc"/>
  <path id="svg_33" d="m51.500488,345.000504c0,0 62,-4 62,-4c0,0 31,4 31,4c0,0 37,38 37,38c0,0 54,17 54,17c0,0 55,0 55,0c0,0 49,-20 49,-20c0,0 23,-20 23,-20c0,0 6,-13 6,-13c0,0 56,-4 56,-4c0,0 41,0 41,0c0,0 -28,61 -28.500488,60.999496c0.500488,0.000504 -64.499512,50.000504 -64.499512,50.000504c0,0 -100,29 -100,29c0,0 -86,-7 -86,-7c0,0 -59,-32 -59,-32c0,0 -52,-53 -52,-53c0,0 -24,-46 -24,-46z" stroke-opacity="null" stroke-width="null" stroke="null" fill="#3399cc"/>
  <g id="svg_1">
   <g id="svg_2">
    <g id="svg_3">
     <path d="m67.273,219.939l-20.312,0c-3.435,0 -5.692,2.159 -5.692,4.612l0,62.408c0,3.142 3.828,4.71 7.653,4.71c3.827,0 7.654,-1.568 7.654,-4.71l0,-21.195l9.714,0c13.545,0 24.143,-6.281 24.143,-22.766l0,-0.49c0,-16.486 -10.207,-22.569 -23.16,-22.569zm7.849,24.237c0,6.673 -3.336,9.813 -8.832,9.813l-9.714,0l0,-20.705l9.714,0c5.496,0 8.832,3.141 8.832,9.813l0,1.079z" id="svg_4" fill="#000000"/>
     <path d="m403.057,219.939l-42.392,0c-3.238,0 -4.611,3.532 -4.611,6.771c0,3.727 1.668,6.966 4.611,6.966l13.542,0l0,53.284c0,3.142 3.827,4.71 7.654,4.71c3.827,0 7.653,-1.568 7.653,-4.71l0,-53.284l13.542,0c2.944,0 4.612,-3.239 4.612,-6.966c0.001,-3.239 -1.372,-6.771 -4.611,-6.771z" id="svg_5" fill="#000000"/>
     <path d="m462.094,219.939c-2.451,0 -3.435,0.98 -4.415,2.844l-13.639,25.22l-13.739,-25.22c-1.078,-1.864 -1.962,-2.844 -4.415,-2.844c-4.222,0 -10.402,2.649 -10.402,6.278c0,0.297 0,0.688 0.195,1.081l20.313,33.657c0.197,0.297 0.395,0.785 0.395,1.375l0,24.629c0,3.142 3.827,4.71 7.654,4.71c3.824,0 7.653,-1.568 7.653,-4.71l0,-24.629c0,-0.59 0.195,-1.079 0.392,-1.375l20.215,-33.657c0.195,-0.393 0.195,-0.783 0.195,-1.081c0,-3.629 -6.183,-6.278 -10.402,-6.278z" id="svg_6" fill="#000000"/>
     <path d="m141.032,260.857c6.867,-2.649 11.873,-8.927 11.873,-19.918c0,-15.995 -10.697,-21 -24.141,-21l-20.312,0c-2.847,0 -4.711,2.159 -4.711,4.612l0,62.408c0,3.142 3.828,4.71 7.654,4.71c3.827,0 7.654,-1.568 7.654,-4.71l0,-23.649l6.478,0l13.442,26.102c1.08,2.061 2.943,2.844 4.906,2.844c4.516,0 9.617,-4.12 9.617,-7.947c0,-0.492 -0.098,-1.178 -0.49,-1.766l-11.97,-21.686zm-12.267,-9.322l-9.715,0l0,-18.252l9.715,0c5.495,0 8.832,2.256 8.832,9.127c0,6.87 -3.337,9.125 -8.832,9.125z" id="svg_7" fill="#000000"/>
     <path d="m175.343,219.939c-3.827,0 -7.656,1.373 -7.656,4.612l0,62.408c0,3.142 3.829,4.71 7.656,4.71c3.824,0 7.651,-1.568 7.651,-4.71l0,-62.408c0,-3.239 -3.827,-4.612 -7.651,-4.612z" id="svg_8" fill="#000000"/>
     <path d="m301.368,260.857c6.868,-2.649 11.873,-8.927 11.873,-19.918c0,-15.995 -10.695,-21 -24.142,-21l-20.313,0c-2.845,0 -4.71,2.159 -4.71,4.612l0,62.408c0,3.142 3.829,4.71 7.656,4.71c3.826,0 7.651,-1.568 7.651,-4.71l0,-23.649l6.477,0l13.444,26.102c1.079,2.061 2.942,2.844 4.905,2.844c4.515,0 9.617,-4.12 9.617,-7.947c0,-0.492 -0.098,-1.178 -0.49,-1.766l-11.968,-21.686zm-12.268,-9.322l-9.715,0l0,-18.252l9.715,0c5.497,0 8.834,2.256 8.834,9.127c0,6.87 -3.337,9.125 -8.834,9.125z" id="svg_9" fill="#000000"/>
     <path d="m335.678,219.939c-3.827,0 -7.655,1.373 -7.655,4.612l0,62.408c0,3.142 3.828,4.71 7.655,4.71c3.827,0 7.653,-1.568 7.653,-4.71l0,-62.408c0,-3.239 -3.826,-4.612 -7.653,-4.612z" id="svg_10" fill="#000000"/>
     <path d="m223.487,219.939c-13.54,0 -24.04,6.278 -24.04,23.157l0,26.005c0,16.878 10.5,23.157 24.04,23.157c13.541,0 24.141,-6.278 24.141,-23.157l0,-26.005c0,-16.879 -10.6,-23.157 -24.141,-23.157zm8.832,49.162c0,6.771 -3.338,9.813 -8.832,9.813c-5.496,0 -8.732,-3.042 -8.732,-9.813l0,-26.005c0,-6.771 3.236,-9.813 8.732,-9.813c5.494,0 8.832,3.042 8.832,9.813l0,26.005z" id="svg_11" fill="#000000"/>
     <path d="m486.872,160.869l-15.925,0c-17.712,-40.001 -46.087,-74.123 -82.409,-98.975c-39.124,-26.77 -84.955,-40.92 -132.537,-40.92c-47.583,0 -93.414,14.15 -132.539,40.92c-36.321,24.852 -64.697,58.975 -82.408,98.975l-15.926,0c-13.856,0 -25.128,11.272 -25.128,25.128l0,140.005c0,13.856 11.272,25.128 25.128,25.128l15.923,0c17.712,40.001 46.088,74.125 82.409,98.977c39.125,26.77 84.957,40.92 132.541,40.92c47.583,0 93.414,-14.15 132.539,-40.92c36.32,-24.852 64.695,-58.976 82.408,-98.977l15.924,0c13.855,0 25.129,-11.273 25.129,-25.128l0,-140.005c0,-13.856 -11.274,-25.128 -25.129,-25.128zm-230.871,-119.895c82.654,0 156.799,46.586 192.881,119.895l-70.49,0c-29.279,-37.596 -74.644,-59.896 -122.391,-59.896s-93.111,22.3 -122.395,59.896l-24.516,0c32.069,-49.666 86.935,-79.896 146.91,-79.896c21.405,0 42.398,3.87 62.396,11.501c5.16,1.97 10.94,-0.617 12.908,-5.777c1.97,-5.16 -0.617,-10.939 -5.777,-12.908c-22.283,-8.504 -45.676,-12.815 -69.527,-12.815c-35.752,0 -70.795,9.819 -101.34,28.396c-28.789,17.509 -52.502,42.148 -68.902,71.501l-22.64,0c36.082,-73.311 110.229,-119.897 192.883,-119.897zm95.774,119.895l-191.55,0c25.171,-25.266 59.692,-39.896 95.776,-39.896c36.084,0 70.605,14.63 95.774,39.896zm-95.774,310.158c-82.656,0 -156.803,-46.587 -192.884,-119.897l70.489,0c29.279,37.598 74.645,59.898 122.395,59.898c47.748,0 93.113,-22.3 122.394,-59.898l24.516,0c-32.07,49.665 -86.935,79.896 -146.91,79.896c-21.404,0 -42.399,-3.869 -62.4,-11.5c-5.161,-1.968 -10.939,0.619 -12.908,5.779c-1.969,5.16 0.619,10.939 5.779,12.908c22.286,8.502 45.68,12.813 69.529,12.813c35.75,0 70.792,-9.819 101.338,-28.395c28.789,-17.509 52.503,-42.148 68.904,-71.501l22.639,0c-36.081,73.31 -110.227,119.897 -192.881,119.897zm-95.778,-119.897l191.556,0c-25.17,25.267 -59.691,39.898 -95.777,39.898c-36.089,0 -70.61,-14.631 -95.779,-39.898zm331.779,-25.128l0,0c-0.001,2.78 -2.35,5.128 -5.13,5.128l-22.597,0c-0.022,0 -0.044,-0.001 -0.065,0l-43.549,0c-0.267,-0.01 -0.533,-0.012 -0.799,0l-372.074,0c-0.021,-0.001 -0.042,0 -0.063,0l-22.597,0c-2.779,0 -5.128,-2.349 -5.128,-5.128l0,-140.005c0,-2.78 2.349,-5.128 5.128,-5.128l22.564,0c0.041,-0.001 0.081,0.001 0.121,0l43.549,0c0.113,0.004 0.227,0.02 0.342,0.02c0.099,0 0.195,-0.017 0.295,-0.02l46.566,0c0.005,0 0.009,0.001 0.014,0.001c0.002,0 0.006,-0.001 0.008,-0.001l325.732,0c0.011,0 0.022,0.002 0.033,0.002c0.017,0 0.034,-0.002 0.051,-0.002l22.47,0c2.78,0 5.129,2.349 5.129,5.128l0,140.005z" id="svg_12" fill="#000000"/>
     <path d="m343.211,104.247l0.428,0.244c1.544,0.862 3.217,1.272 4.868,1.272c3.505,0 6.908,-1.847 8.738,-5.125c2.694,-4.821 0.969,-10.913 -3.853,-13.607l-0.085,-0.049c-4.768,-2.788 -10.893,-1.183 -13.681,3.584c-2.787,4.767 -1.182,10.892 3.585,13.681z" id="svg_13" fill="#000000"/>
     <path d="m168.703,407.702l-0.257,-0.146c-4.795,-2.739 -10.903,-1.073 -13.644,3.721c-2.739,4.795 -1.073,10.904 3.722,13.644l0.256,0.146c1.565,0.894 3.27,1.319 4.952,1.319c3.472,0 6.847,-1.811 8.692,-5.041c2.74,-4.794 1.074,-10.903 -3.721,-13.643z" id="svg_14" fill="#000000"/>
    </g>
   </g>
  </g>
  <g id="svg_15"/>
  <g id="svg_16"/>
  <g id="svg_17"/>
  <g id="svg_18"/>
  <g id="svg_19"/>
  <g id="svg_20"/>
  <g id="svg_21"/>
  <g id="svg_22"/>
  <g id="svg_23"/>
  <g id="svg_24"/>
  <g id="svg_25"/>
  <g id="svg_26"/>
  <g id="svg_27"/>
  <g id="svg_28"/>
  <g id="svg_29"/>
 </g>
</svg>