<svg width="511.999" height="511.999" xmlns="http://www.w3.org/2000/svg">
 <g>
  <title>background</title>
  <rect x="-1" y="-1" width="513.999" height="513.999" id="canvas_background" fill="none"/>
 </g>

 <g>
  <title>Layer 1</title>
  <path fill="#ffffff" stroke="#2F7296" stroke-width="null" stroke-opacity="null" d="m11.499512,247.499496c0,0 144,-1 144,-1c0,0 6,-29 6,-29c0,0 21,-18 21,-18c0,0 -9,-22 -9,-22c0,0 -18,-9 -18,-9c0,0 -36,-1 -36,-1c0,0 -2,-31 -2,-31c0,0 22,-22 22,-22c0,0 2,-51 2,-51c0,0 -13,-29 -13,-29c0,0 -32,-6 -32,-6c0,0 -31,6 -31,6c0,0 -12,16 -12,16c0,0 -3,43 -3,43c0,0 6,30 6,30c0,0 17,14 17,14c0,0 2,31 2,31c0,0 -36,1 -36,1c0,0 -24,11 -24,11c0,0 -4,67 -4,67z" id="svg_39"/>
  <path fill="#ffffff" stroke="#2F7296" stroke-width="null" stroke-opacity="null" d="m498.499512,247.499496c0,0 -139,1 -139,1c0,0 -8,-30 -8,-30c0,0 -16,-15 -16,-15c0,0 -10,-5 -10,-5c0,0 12,-20 12,-20c0,0 14,-12 14,-12c0,0 43,-4 43,-4c0,0 -1,-26 -1,-26c0,0 -23,-25 -23,-25c0,0 -1,-40 -1,-40c0,0 5,-28 5,-28c0,0 20,-13 20,-13c0,0 34,-3 34,-3c0,0 25,13 25,13c0,0 13,28 13,28c0,0 -4,30 -4,30c0,0 -5,26 -5,26c0,0 -17,14 -17,14c0,0 -1,26 -1,26c0,0 34,2 34,2c0,0 24,9 24,9c0,0 8,24 8,24c0,0 -7,48 -7,48z" id="svg_40"/>
  <path stroke="#2F7296" id="svg_31" d="m241.499512,51.999491c0,0 32,-1.07874 30,1.92126c9,-7 26,10.488189 20,12.488189c7,-4 19,27.858268 19,27.858268c0,0 -4,43.228347 -4,43.228347c0,0 -12,24.976379 -12,24.976379c0,0 -11,13.448819 -11,13.448819c0,0 0,28.818898 0,28.818898c0,0 44,2.88189 44,2.88189c0,0 21,17.291339 21,17.291339c0,0 7,27.858268 7,27.858268c0,0 -1,42.267717 -1,42.267717c0,0 -197,0.96063 -197,0.96063c0,0 -1,-56.677166 -1,-56.677166c0,0 15,-29.779528 15,-29.779528c0,0 27,-6.72441 27,-6.72441c0,0 34,1.92126 34,1.92126c0,0 -1,-31.700788 -1,-31.700788c0,0 -28,-25.937008 -28,-25.937008c0,0 -3,-43.228348 -3,-43.228348c0,0 9,-33.622047 9,-33.622047c0,0 8,-18.52756 16,-15.52756c-12,-3 16,-2.724409 16,-2.724409z" stroke-opacity="null" stroke-width="null" fill="#3399cc"/>
  <g id="svg_1">
   <g id="svg_2">
    <path d="m468.15,157.858l-21.558,0l0,-13.863l13.451,-14.814c6.983,-7.69 10.828,-17.645 10.828,-28.033l0,-35.131c0,-24.565 -19.986,-44.55 -44.551,-44.55l-20.492,0c-24.565,0 -44.55,19.986 -44.55,44.55l0,35.131c0,10.388 3.846,20.344 10.827,28.033l13.453,14.816l0,13.861l-21.558,0c-20.944,0 -38.497,14.764 -42.821,34.43c-2.201,-0.308 -4.445,-0.478 -6.729,-0.478l-25.252,0l0,-16.958l15.404,-16.963c7.701,-8.482 11.943,-19.463 11.943,-30.92l0,-39.569c0,-27.132 -22.073,-49.203 -49.204,-49.203c-4.252,0 -7.697,3.445 -7.697,7.697s3.445,7.697 7.697,7.697c18.643,0 33.81,15.166 33.81,33.809l0,39.568c0,7.623 -2.822,14.928 -7.945,20.571l-15.862,17.469c-2.128,1.369 -3.538,3.758 -3.538,6.478l0,28.022c0,4.252 3.445,7.697 7.697,7.697l32.949,0c18.207,0 33.021,14.813 33.021,33.021l0,48.298l-183.343,0l0,-48.298c0,-14.196 9.006,-26.326 21.602,-30.984c0.592,-0.124 1.156,-0.321 1.689,-0.573c3.077,-0.95 6.345,-1.465 9.729,-1.465l32.949,0c4.251,0 7.697,-3.445 7.697,-7.697l0,-28.022c0,-2.719 -1.41,-5.109 -3.538,-6.478l-15.862,-17.469c-5.124,-5.643 -7.947,-12.949 -7.947,-20.571l0,-39.567c0,-18.642 15.166,-33.809 33.81,-33.809c4.251,0 7.697,-3.445 7.697,-7.697s-3.446,-7.697 -7.697,-7.697c-27.132,0 -49.204,22.072 -49.204,49.203l0,39.568c0,11.456 4.242,22.437 11.943,30.92l15.402,16.962l0,16.959l-25.252,0c-2.151,0 -4.265,0.155 -6.342,0.429c-4.342,-19.641 -21.881,-34.38 -42.808,-34.38l-21.558,0l0,-13.863l13.451,-14.814c6.983,-7.69 10.828,-17.645 10.828,-28.033l0,-35.131c0,-24.565 -19.986,-44.55 -44.551,-44.55l-20.49,0c-24.565,0 -44.55,19.986 -44.55,44.55l0,35.131c0,10.388 3.845,20.344 10.828,28.033l13.452,14.815l0,13.862l-21.558,0c-24.179,0 -43.85,19.671 -43.85,43.85l0,49.716c0,4.252 3.446,7.697 7.697,7.697l119.758,0c4.251,0 7.697,-3.445 7.697,-7.697s-3.446,-7.697 -7.697,-7.697l-112.061,0l0,-42.019c0,-15.69 12.765,-28.456 28.456,-28.456l29.255,0c4.251,0 7.697,-3.445 7.697,-7.697l0,-24.88c0,-2.677 -1.367,-5.035 -3.441,-6.414l-14.009,-15.428c-4.405,-4.851 -6.831,-11.131 -6.831,-17.684l0,-35.132c0,-16.077 13.079,-29.156 29.156,-29.156l20.492,0c16.077,0 29.157,13.079 29.157,29.156l0,35.131c0,6.553 -2.426,12.834 -6.831,17.684l-14.01,15.429c-2.073,1.379 -3.439,3.737 -3.439,6.413l0,24.88c0,4.252 3.446,7.697 7.697,7.697l29.255,0c13.975,0 25.621,10.129 28.002,23.43c-16.127,7.864 -27.265,24.424 -27.265,43.542l0,55.995c0,4.252 3.446,7.697 7.697,7.697l198.736,0c4.252,0 7.697,-3.445 7.697,-7.697l0,-55.995c0,-18.971 -10.973,-35.419 -26.901,-43.355c2.305,-13.392 13.995,-23.617 28.036,-23.617l29.255,0c4.252,0 7.697,-3.445 7.697,-7.697l0,-24.88c0,-2.678 -1.367,-5.036 -3.442,-6.415l-14.008,-15.427c-4.405,-4.85 -6.83,-11.131 -6.83,-17.684l0,-35.131c0,-16.077 13.079,-29.156 29.156,-29.156l20.492,0c16.077,0 29.157,13.079 29.157,29.156l0,35.131c0,6.553 -2.426,12.834 -6.831,17.684l-14.009,15.429c-2.074,1.379 -3.44,3.737 -3.44,6.413l0,24.88c0,4.252 3.445,7.697 7.697,7.697l29.255,0c15.69,0 28.456,12.765 28.456,28.456l0,42.019l-110.737,0c-4.252,0 -7.697,3.445 -7.697,7.697s3.445,7.697 7.697,7.697l118.434,0c4.252,0 7.697,-3.445 7.697,-7.697l0,-49.716c0.001,-24.178 -19.67,-43.849 -43.849,-43.849z" id="svg_3" fill="#000000"/>
   </g>
  </g>
  <path fill="#ffffff" stroke="null" stroke-width="null" stroke-opacity="null" d="m235.499512,402.499496c0,0 22,-39 22,-39c0,0 21,38 21,38c0,0 47,6 47,6c0,0 -32,29 -32,29c0,0 7,47 7,48c0,1 -39,-20 -39,-20c0,0 -43,20 -43,20c0,0 7,-46 7,-46c0,0 -29,-32 -29,-32c0,0 39,-4 39,-4z" id="svg_38"/>
  <g id="svg_4">
   <g id="svg_5">
    <path d="m333.406,401.466c-0.888,-2.738 -3.231,-4.751 -6.073,-5.218l-42.046,-6.902l-19.557,-37.856c-1.321,-2.557 -3.959,-4.165 -6.838,-4.165s-5.517,1.606 -6.838,4.165l-19.557,37.856l-42.046,6.902c-2.841,0.467 -5.184,2.479 -6.074,5.218c-0.89,2.738 -0.177,5.743 1.847,7.791l29.958,30.297l-6.429,42.12c-0.434,2.846 0.755,5.697 3.085,7.388c1.34,0.974 2.928,1.471 4.525,1.471c1.178,0 2.362,-0.271 3.454,-0.82l38.073,-19.13l38.073,19.13c2.573,1.293 5.652,1.043 7.979,-0.651c2.33,-1.691 3.519,-4.542 3.085,-7.388l-6.43,-42.12l29.958,-30.297c2.029,-2.048 2.741,-5.053 1.851,-7.791zm-45.47,30.013c-1.711,1.731 -2.502,4.169 -2.136,6.573l4.765,31.214l-28.216,-14.176c-2.175,-1.092 -4.737,-1.092 -6.911,0l-28.216,14.176l4.764,-31.214c0.367,-2.406 -0.425,-4.844 -2.136,-6.573l-22.204,-22.454l31.16,-5.114c2.401,-0.395 4.475,-1.902 5.591,-4.063l14.494,-28.055l14.493,28.055c1.117,2.161 3.19,3.668 5.591,4.063l31.16,5.114l-22.199,22.454z" id="svg_6" fill="#000000"/>
   </g>
  </g>
  <path fill="#3399cc" stroke="null" stroke-width="null" stroke-opacity="null" d="m404.499512,343.499496c0,0 22,-39 22,-39c0,0 21,38 21,38c0,0 47,6 47,6c0,0 -32,29 -32,29c0,0 7,47 7,48c0,1 -39,-20 -39,-20c0,0 -43,20 -43,20c0,0 7,-46 7,-46c0,0 -29,-32 -29,-32c0,0 39,-4 39,-4z" id="svg_33"/>
  <g id="svg_7">
   <g id="svg_8">
    <path d="m501.894,344.869c-0.89,-2.738 -3.231,-4.751 -6.071,-5.218l-42.046,-6.902l-19.558,-37.856c-1.321,-2.557 -3.959,-4.165 -6.838,-4.165c-2.88,0 -5.517,1.606 -6.838,4.165l-19.557,37.856l-42.047,6.902c-2.841,0.467 -5.184,2.479 -6.074,5.218c-0.89,2.738 -0.178,5.744 1.847,7.791l29.959,30.297l-6.43,42.121c-0.434,2.846 0.755,5.697 3.085,7.388c2.33,1.692 5.408,1.945 7.979,0.651l38.073,-19.13l38.073,19.13c1.092,0.549 2.276,0.82 3.454,0.82c1.598,0 3.186,-0.496 4.525,-1.471c2.33,-1.691 3.519,-4.542 3.085,-7.388l-6.43,-42.121l29.959,-30.297c2.028,-2.047 2.74,-5.053 1.85,-7.791zm-45.47,30.014c-1.711,1.73 -2.502,4.169 -2.136,6.573l4.765,31.215l-28.216,-14.176c-1.088,-0.546 -2.271,-0.82 -3.456,-0.82s-2.369,0.274 -3.456,0.82l-28.216,14.176l4.765,-31.215c0.366,-2.406 -0.425,-4.844 -2.136,-6.573l-22.203,-22.453l31.16,-5.114c2.402,-0.395 4.475,-1.902 5.591,-4.063l14.493,-28.055l14.494,28.055c1.117,2.161 3.19,3.668 5.591,4.063l31.159,5.114l-22.199,22.453z" id="svg_9" fill="#000000"/>
   </g>
  </g>
  <path fill="#3399cc" stroke="null" stroke-width="null" stroke-opacity="null" d="m68.499512,346.499496c0,0 22,-39 22,-39c0,0 21,38 21,38c0,0 47,6 47,6c0,0 -32,29 -32,29c0,0 7,47 7,48c0,1 -39,-20 -39,-20c0,0 -43,20 -43,20c0,0 7,-46 7,-46c0,0 -29,-32 -29,-32c0,0 39,-4 39,-4z" id="svg_32"/>
  <g id="svg_10">
   <g id="svg_11">
    <path d="m164.919,344.87c-0.889,-2.739 -3.233,-4.752 -6.074,-5.219l-42.046,-6.902l-19.557,-37.856c-1.322,-2.557 -3.959,-4.165 -6.839,-4.165c-2.88,0 -5.517,1.606 -6.839,4.165l-19.555,37.857l-42.046,6.902c-2.841,0.467 -5.184,2.479 -6.074,5.218c-0.89,2.738 -0.177,5.744 1.847,7.791l29.959,30.297l-6.429,42.121c-0.434,2.846 0.755,5.697 3.085,7.388c2.329,1.692 5.407,1.945 7.979,0.651l38.073,-19.13l38.072,19.13c1.092,0.549 2.276,0.82 3.454,0.82c1.597,0 3.186,-0.496 4.525,-1.471c2.33,-1.691 3.519,-4.542 3.085,-7.388l-6.429,-42.121l29.958,-30.297c2.027,-2.048 2.741,-5.053 1.851,-7.791zm-45.472,30.013c-1.711,1.73 -2.503,4.169 -2.136,6.573l4.764,31.215l-28.215,-14.176c-1.087,-0.547 -2.271,-0.82 -3.456,-0.82s-2.369,0.274 -3.456,0.82l-28.216,14.176l4.765,-31.215c0.367,-2.406 -0.425,-4.844 -2.136,-6.573l-22.2,-22.453l31.16,-5.114c2.401,-0.395 4.475,-1.902 5.592,-4.063l14.493,-28.055l14.493,28.055c1.117,2.161 3.191,3.668 5.592,4.063l31.16,5.114l-22.204,22.453z" id="svg_12" fill="#000000"/>
   </g>
  </g>
  <g id="svg_13"/>
  <g id="svg_14"/>
  <g id="svg_15"/>
  <g id="svg_16"/>
  <g id="svg_17"/>
  <g id="svg_18"/>
  <g id="svg_19"/>
  <g id="svg_20"/>
  <g id="svg_21"/>
  <g id="svg_22"/>
  <g id="svg_23"/>
  <g id="svg_24"/>
  <g id="svg_25"/>
  <g id="svg_26"/>
  <g id="svg_27"/>
  <path id="svg_30" d="m262.499512,254.999496" opacity="0.5" fill-opacity="null" stroke-opacity="null" stroke-width="null" stroke="#2F7296" fill="#ffffff"/>
 </g>
</svg>