<svg width="1300" height="800" xmlns="http://www.w3.org/2000/svg">

 <g>
  <title>background</title>
  <rect fill="none" id="canvas_background" height="802" width="1302" y="-1" x="-1"/>
 </g>
 <g>
  <title>Layer 1</title>
  <circle id="svg_1" r="9.362" cy="620.361" cx="529.695" stroke-miterlimit="10" stroke-width="4" stroke="#19E0CD" fill="none"/>
  <circle id="svg_2" r="7.684" cy="578.684" cx="925.018" stroke-miterlimit="10" stroke-width="4" stroke="#19E0CD" fill="none"/>
  <circle id="svg_4" r="7.27" cy="591.834" cx="776.412" stroke-miterlimit="10" stroke-width="4" stroke="#19E0CD" fill="none"/>
  <circle id="svg_5" r="6.905" cy="42.905" cx="617.623" stroke-miterlimit="10" stroke-width="4" stroke="#2F7296" fill="none"/>
  <circle id="svg_6" r="6.905" cy="103.904994" cx="775.623031" stroke-miterlimit="10" stroke-width="4" stroke="#2F7296" fill="none"/>
  <circle id="svg_7" r="6.905" cy="680.905009" cx="325.623809" stroke-miterlimit="10" stroke-width="4" stroke="#2F7296" fill="none"/>
  <circle id="svg_8" r="6.517" cy="558.518" cx="993.851" stroke-miterlimit="10" stroke-width="4" stroke="#C11846" fill="none"/>
  <circle id="svg_9" r="3.274" cy="423.858008" cx="534.192023" fill="#008E8A"/>
  <circle id="svg_10" r="3.274" cy="201.858" cx="413.192" fill="#008E8A"/>
  <circle id="svg_11" r="4.218" cy="347.316" cx="1058.65" fill="#C11A46"/>
  <circle id="svg_12" r="4.218" cy="443.316" cx="684.65" fill="#C11A46"/>
  <circle stroke="null" id="svg_13" r="3.274" cy="136.858008" cx="600.192023" fill="#004A8C"/>
  <line id="svg_20" y2="322" x2="80.667" y1="326.036" x1="85.276" fill="none"/>
  <path id="svg_21" d="m432.104,146.104" fill="#D1D3D3"/>
  <polygon id="svg_22" points="433.3330383300781,63.6670036315918 435.4890441894531,68.03400421142578 440.30804443359375,68.73400497436523 436.821044921875,72.13300323486328 437.64404296875,76.93300247192383 433.3330383300781,74.6670036315918 429.0230407714844,76.93300247192383 429.8460388183594,72.13300323486328 426.3590393066406,68.73400497436523 431.17803955078125,68.03400421142578 " stroke-miterlimit="10" stroke-width="2" stroke="#C9175F" fill="none"/>
  <polygon id="svg_23" points="1070.334,487.666 1072.488,492.033   1077.309,492.734 1073.82,496.133 1074.645,500.934 1070.334,498.667 1066.023,500.934 1066.846,496.133 1063.359,492.734   1068.178,492.033 " stroke-miterlimit="10" stroke-width="2" stroke="#18B6C6" fill="none"/>
  <polygon id="svg_24" points="411.3330078125,581.6660270690918 413.4889831542969,586.033031463623 418.3079833984375,586.7340202331543 414.82098388671875,590.1330070495605 415.6440124511719,594.9340324401855 411.3330078125,592.6670036315918 407.02301025390625,594.9340324401855 407.84600830078125,590.1330070495605 404.3590087890625,586.7340202331543 409.1780090332031,586.033031463623 " stroke-miterlimit="10" stroke-width="2" stroke="#C9175F" fill="none"/>
  <rect stroke="#1957E0" id="svg_25" height="9" width="9" stroke-miterlimit="10" stroke-width="3" fill="none" y="360.5" x="588.5"/>
  <rect id="svg_26" height="9" width="9" stroke-miterlimit="10" stroke-width="2" stroke="#E2178B" fill="none" y="235" x="1050"/>
  <rect id="svg_27" height="9" width="9" stroke-miterlimit="10" stroke-width="3" stroke="#E2178B" fill="none" y="592.5" x="1144.5"/>
  <rect id="svg_28" height="9" width="9" stroke-miterlimit="10" stroke-width="2" stroke="#F75200" fill="none" transform="matrix(0.7071,0.7071,-0.7071,0.7071,333.2859,-63.667) " y="-1.699052" x="418.606845"/>
  <rect id="svg_29" height="9" width="9" stroke-miterlimit="10" stroke-width="2" stroke="#F75200" fill="none" transform="matrix(0.7071,0.7071,-0.7071,0.7071,401.1153,-533.4304) " y="254.7197" x="779.895347"/>
  <rect id="svg_30" height="9" width="9" stroke-miterlimit="10" stroke-width="2" stroke="#F75200" fill="none" transform="matrix(0.7071,0.7071,-0.7071,0.7071,329.9208,-207.5425) " y="112.514496" x="639.397681"/>
  <rect id="svg_31" height="9" width="9" stroke-miterlimit="10" stroke-width="4" stroke="#00E3F4" fill="none" transform="matrix(0.7071,0.7071,-0.7071,0.7071,402.8619,-793.6473) " y="85" x="1155"/>
  <rect id="svg_32" height="9" width="9" stroke-miterlimit="10" stroke-width="2" stroke="#00DBF2" fill="none" transform="matrix(0.7072,0.7071,-0.7071,0.7072,565.3864,-756.1118) " y="300" x="1191"/>
  <rect id="svg_33" height="9" width="9" stroke-miterlimit="10" stroke-width="2" stroke="#00DBF2" fill="none" y="623" x="720"/>
  <polygon id="svg_34" points="538.4170074462891,497.5 553.8329925537109,497.5 546.125,505.20697021484375 " stroke-miterlimit="10" stroke-width="3" stroke="#004A8C" fill="none"/>
  <polygon id="svg_35" points="827.4180297851562,560.5 842.833984375,560.5 835.125,568.2070007324219 " stroke-miterlimit="10" stroke-width="3" stroke="#1AD8CF" fill="none"/>
  <polygon id="svg_36" points="678.585,627.5 690.624,627.5   684.604,633.519 " stroke-miterlimit="10" stroke-width="3" stroke="#1AD8CF" fill="none"/>
  <path id="svg_37" d="m796,781.5l0,18.5l-792,0l0,-21l489.1,5c0,-0.17 0,-0.34 -0.01,-0.51c0,-1.54 -0.07,-3.061 -0.19,-4.57l8.31,0.08c0,-0.17 0,-0.34 -0.01,-0.51c-0.01,-2.54 -0.17,-5.03 -0.47,-7.49l285.53,0c0.82,3.37 1.38,6.86 1.641,10.42l8.099,0.08z" fill="#FFFFFF"/>
  <path id="svg_38" d="m501.21,779l-8.31,-0.08c0.12,1.51 0.19,3.03 0.19,4.57c0.01,0.17 0.01,0.34 0.01,0.51l-489.1,-5l0,-8l496.73,0c0.3,2.46 0.46,4.95 0.47,7.49c0.01,0.17 0.01,0.34 0.01,0.51z" fill="#FFFFFF"/>
  <path id="svg_39" d="m796,771l0,10.5l-8.1,-0.08c-0.261,-3.56 -0.82,-7.05 -1.641,-10.42l9.741,0z" fill="#FFFFFF"/>
  <path id="svg_46" d="m1269,781.5l0,18.5l-792,0l0,-21l489.1,5c0,-0.17 0,-0.34 -0.01,-0.51c0,-1.54 -0.07,-3.061 -0.189,-4.57l8.31,0.08c0,-0.17 0,-0.34 -0.01,-0.51c-0.011,-2.54 -0.171,-5.03 -0.47,-7.49l285.529,0c0.82,3.37 1.38,6.86 1.641,10.42l8.099,0.08z" fill="#FFFFFF"/>
  <path id="svg_47" d="m974.21,779l-8.31,-0.08c0.119,1.51 0.189,3.03 0.189,4.57c0.01,0.17 0.01,0.34 0.01,0.51l-489.099,-5l0,-8l496.73,0c0.299,2.46 0.459,4.95 0.47,7.49c0.01,0.17 0.01,0.34 0.01,0.51z" fill="#FFFFFF"/>
  <path id="svg_48" d="m1269,771l0,10.5l-8.1,-0.08c-0.261,-3.56 -0.82,-7.05 -1.641,-10.42l9.741,0z" fill="#FFFFFF"/>
  <path id="svg_49" d="m502.333,637.199c0,1.766 0.734,3.376 1.932,4.524c-1.198,-1.148 -1.932,-2.759 -1.932,-4.527l0,0.003z" fill="#B6B8BE"/>
  <path id="svg_50" d="m777.929,637.199l0,-0.003c0,1.769 -0.735,3.379 -1.931,4.53c1.193,-1.151 1.931,-2.761 1.931,-4.527z" fill="#B6B8BE"/>
  <circle id="svg_68" r="3.274" cy="501.858" cx="816.192" fill="#004A8C"/>
  <path id="svg_69" d="m962.104,591.104" fill="#D1D3D3"/>
  <rect id="svg_71" height="9" width="9" stroke-miterlimit="10" stroke-width="3" stroke="#1957E0" fill="none" y="556.5" x="805.5"/>
  <circle id="svg_72" r="4.218" cy="561.316" cx="902.65" fill="#C11A46"/>
  <polygon id="svg_73" points="971.333984375,593.666015625 973.4879760742188,598.0330200195312 978.3090209960938,598.7340087890625 974.8200073242188,602.1329956054688 975.64501953125,606.9340209960938 971.333984375,604.6669921875 967.0230102539062,606.9340209960938 967.8460083007812,602.1329956054688 964.3590087890625,598.7340087890625 969.177978515625,598.0330200195312 " stroke-miterlimit="10" stroke-width="2" stroke="#18B6C6" fill="none"/>
  <rect id="svg_74" height="9" width="9" stroke-miterlimit="10" stroke-width="3" stroke="#E2178B" fill="none" y="580.5" x="868.5"/>
  <rect id="svg_75" height="9" width="9" stroke-miterlimit="10" stroke-width="2" stroke="#00DBF2" fill="#FFFFFF" y="558" x="866"/>
  <polygon id="svg_76" points="876.4180297851562,528.5 891.833984375,528.5 884.125,536.2069702148438 " stroke-miterlimit="10" stroke-width="3" stroke="#F24A00" fill="none"/>
  <circle id="svg_77" r="3.274" cy="589.858" cx="851.192" fill="#004A8C"/>
  <rect id="svg_78" height="9" width="9" stroke-miterlimit="10" stroke-width="3" stroke="#1957E0" fill="none" y="535.5" x="853.5"/>
  <circle id="svg_79" r="4.218" cy="562.316" cx="735.65" fill="#C11A46"/>
  <rect id="svg_80" height="9" width="9" stroke-miterlimit="10" stroke-width="3" stroke="#E2178B" fill="none" y="603.5" x="1027.5"/>
  <circle id="svg_81" r="3.274" cy="470.858" cx="753.192" fill="#004A8C"/>
  <polygon id="svg_83" points="494.33399963378906,238.66600036621094 496.48799896240234,243.0330047607422 501.30899810791016,243.73399353027344 497.8199996948242,247.13299560546875 498.6449966430664,251.9340057373047 494.33399963378906,249.66700744628906 490.0230026245117,251.9340057373047 490.8460006713867,247.13299560546875 487.35900115966797,243.73399353027344 492.1780014038086,243.0330047607422 " stroke-miterlimit="10" stroke-width="2" stroke="#C9175F" fill="none"/>
  <polygon id="svg_84" points="958.334,56.666 960.488,61.033   965.309,61.734 961.82,65.133 962.645,69.934 958.334,67.667 954.023,69.934 954.846,65.133 951.359,61.734 956.178,61.033 " stroke-miterlimit="10" stroke-width="2" stroke="#C9175F" fill="none"/>
  <rect id="svg_85" height="9" width="9" stroke-miterlimit="10" stroke-width="3" stroke="#1957E0" fill="none" y="589.5" x="994.5"/>
  <rect id="svg_86" height="9" width="9" stroke-miterlimit="10" stroke-width="2" stroke="#F75200" fill="none" transform="matrix(0.7072,0.7071,-0.7071,0.7072,734.532,-500.5095) " y="632" x="967"/>
  <path id="svg_90" d="m1406.969,816.74c0,-1.54 -0.07,-3.061 -0.189,-4.57c-0.01,-0.17 -0.021,-0.35 -0.041,-0.52c-0.209,-2.511 -0.56,-4.98 -1.039,-7.4c-1.34,-6.69 -3.7,-12.99 -6.92,-18.73c-0.01,-0.029 -0.03,-0.05 -0.041,-0.079c-6.52,-11.58 -16.52,-20.841 -28.68,-26.29c-1.279,-0.58 -2.59,-1.11 -3.92,-1.601c-6.68,-2.46 -13.93,-3.8 -21.539,-3.8c-7.961,0 -15.58,1.46 -22.601,4.13c-2.11,0.811 -4.16,1.72 -6.149,2.73c-1.021,0.52 -2.021,1.06 -3,1.63c-6.141,3.55 -11.631,8.1 -16.24,13.43c-2.301,2.65 -4.381,5.49 -6.221,8.49c-7.119,-13.9 -21.59,-23.41 -38.289,-23.41c-2.971,0 -5.881,0.3 -8.681,0.88c-0.74,0.14 -1.47,0.311 -2.19,0.5c-2.47,0.65 -4.859,1.51 -7.129,2.561c-0.291,0.13 -0.58,0.27 -0.871,0.42c-2.91,1.42 -5.64,3.295 -8.14,5.314c-6.101,-14.99 -20.819,-25.425 -37.989,-25.425l-0.221,0c-3.38,0 -6.66,0.325 -9.8,1.105c-1.58,-2.841 -4,-5.213 -6.921,-6.643c-2.129,-1.061 -4.529,-1.682 -7.069,-1.682c-0.479,0 -0.95,0.004 -1.41,0.055c-3.989,0.34 -7.55,2.142 -10.14,4.872c-7.48,-7.97 -18.12,-12.954 -29.91,-12.954c-6.07,0 -11.83,1.318 -17.01,3.698c-4.141,1.87 -7.9,4.429 -11.16,7.519c-2.189,2.07 -4.15,4.494 -5.84,7.004c-1.73,-1.898 -4.24,-2.975 -7.02,-2.975l-0.16,0c-5.181,0 -9.34,4.175 -9.34,9.375c0,1.15 0.199,2.178 0.579,3.197c0.44,1.24 1.14,2.329 2.04,3.259c-5.75,0.25 -11.199,1.614 -16.15,3.904c-4.939,2.28 -9.359,5.473 -13.06,9.362c-2.42,2.53 -4.53,5.347 -6.271,8.406c-10.659,-20.08 -31.789,-33.752 -56.109,-33.752c-10.6,0 -20.689,2.599 -29.609,7.199c-18.33,9.42 -31.73,27.26 -34.471,48.299c-0.061,0.471 -0.12,0.826 -0.17,1.305c-0.23,2.16 -0.35,4.445 -0.35,6.445l0.35,0l489.1,5.125c0.001,-0.168 0.001,-0.213 -0.009,-0.383zm-227.821,-65.03c-0.189,-1.13 -0.52,-2.19 -0.949,-3.22c-0.221,-0.63 -0.48,-1.25 -0.771,-1.851c0.81,1.561 1.441,3.271 1.72,5.071z" fill="#FFFFFF"/>
  <polygon id="svg_91" points="873.333984375,608.666015625 875.4879760742188,613.0330200195312 880.3090209960938,613.7340087890625 876.8200073242188,617.1329956054688 877.64501953125,621.9340209960938 873.333984375,619.6669921875 869.0230102539062,621.9340209960938 869.8460083007812,617.1329956054688 866.3590087890625,613.7340087890625 871.177978515625,613.0330200195312 " stroke-miterlimit="10" stroke-width="2" stroke="#C9175F" fill="none"/>
  <rect id="svg_92" height="9" width="9" stroke-miterlimit="10" stroke-width="3" stroke="#1957E0" fill="none" y="610.5" x="836.5"/>
  <circle id="svg_93" r="4.218" cy="585.316" cx="1023.65" fill="#C11A46"/>
  <rect id="svg_94" height="9" width="9" stroke-miterlimit="10" stroke-width="3" stroke="#E2178B" fill="none" y="531.5" x="774.5"/>
  <rect id="svg_95" height="9" width="9" stroke-miterlimit="10" stroke-width="2" stroke="#00DBF2" fill="#FFFFFF" y="602" x="900"/>
  <polygon id="svg_96" points="1201.418,437.5 1216.834,437.5   1209.125,445.207 " stroke-miterlimit="10" stroke-width="3" stroke="#1AD8CF" fill="none"/>
  <circle id="svg_97" r="3.274" cy="583.858" cx="693.192" fill="#004A8C"/>
  <rect id="svg_98" height="9" width="9" stroke-miterlimit="10" stroke-width="2" stroke="#00DBF2" fill="none" y="564" x="956"/>
  <polygon id="svg_99" points="699.585,521.5 711.624,521.5   705.604,527.519 " stroke-miterlimit="10" stroke-width="3" stroke="#1AD8CF" fill="none"/>
  <circle id="svg_100" r="3.274" cy="518.858" cx="676.192" fill="#004A8C"/>
  <rect id="svg_101" height="9" width="9" stroke-miterlimit="10" stroke-width="3" stroke="#1957E0" fill="none" y="535.5" x="962.5"/>
  <g id="svg_102">
   <circle id="svg_3" r="7.27" cy="506.834" cx="875.412" stroke-miterlimit="10" stroke-width="4" stroke="#19E0CD" fill="none"/>
   <path id="svg_51" d="m905.548,415.41c-1.698,-6.569 -6.002,-12.096 -11.735,-15.422c-3.69,-2.138 -7.966,-3.37 -12.527,-3.37c-8.751,0 -16.462,4.512 -20.944,11.324c-2.594,3.946 -4.11,8.664 -4.11,13.729l0,27.198l0,10.385l31.317,0l12.527,0l6.263,0l0,-37.583c0.001,-2.159 -0.276,-4.259 -0.791,-6.261z" fill="#034A89"/>
   <path id="svg_52" d="m887.55,459.255l-31.317,0l0,18.79c0,3.459 2.802,6.264 6.265,6.264l37.58,0c3.463,0 6.263,-2.805 6.263,-6.264l0,-18.79l-6.263,0l-12.528,0z" fill="#003366"/>
   <path id="svg_53" d="m994.031,421.672c0,-5.065 -1.519,-9.783 -4.115,-13.729c-4.479,-6.813 -12.19,-11.324 -20.941,-11.324c-4.562,0 -8.837,1.232 -12.527,3.37c-5.732,3.326 -10.037,8.853 -11.732,15.422c-0.518,2.002 -0.794,4.102 -0.794,6.262l0,37.583l6.264,0l12.528,0l31.318,0l0,-10.386l0,-27.198l-0.001,0z" fill="#034A89"/>
   <path id="svg_54" d="m950.185,459.255l-6.264,0l0,18.79c0,3.459 2.8,6.264 6.264,6.264l37.58,0c3.464,0 6.267,-2.805 6.267,-6.264l0,-18.79l-31.318,0l-12.529,0z" fill="#003366"/>
   <path id="svg_55" d="m835.67,425.42l24.674,3.522c4.482,-6.813 12.193,-11.324 20.942,-11.324l0,-219.223c0,-2.528 0.041,-5.024 0.125,-7.489c-0.064,0.317 -0.105,0.642 -0.119,0.971c-2.296,56.679 -30.989,105.283 -56.379,148.178l0,72.962c0.001,6.235 4.587,11.518 10.757,12.403z" fill="#B6B8BE"/>
   <path id="svg_56" d="m860.344,428.942l-24.674,-3.522c-6.17,-0.883 -10.756,-6.168 -10.756,-12.402l0,-72.962l0,0c-0.052,0.089 -0.106,0.182 -0.158,0.271c-20.082,33.927 -37.422,63.233 -37.422,89.821l0,25.049c0,1.769 0.734,3.379 1.932,4.53c0.933,0.892 2.145,1.502 3.505,1.684l63.461,8.46l0,-27.198c0,-5.067 1.516,-9.784 4.112,-13.731z" fill="#0099CC"/>
   <path id="svg_57" d="m968.975,417.618c8.751,0 16.462,4.512 20.941,11.324l24.678,-3.522c6.17,-0.883 10.754,-6.168 10.754,-12.402l0,-72.962c-25.39,-42.896 -54.083,-91.499 -56.377,-148.178c-0.014,-0.329 -0.055,-0.654 -0.121,-0.971c0.084,2.464 0.125,4.961 0.125,7.489l0,219.222l0,0z" fill="#B6B8BE"/>
   <path id="svg_58" d="m1025.509,340.323c-0.054,-0.088 -0.108,-0.179 -0.161,-0.268l0,0l0,72.962c0,6.234 -4.584,11.518 -10.754,12.402l-24.678,3.522c2.597,3.946 4.115,8.664 4.115,13.729l0,27.198l63.46,-8.462c1.364,-0.182 2.573,-0.79 3.507,-1.685c1.195,-1.148 1.931,-2.759 1.931,-4.527l0,-25.049c0,-26.585 -17.34,-55.892 -37.42,-89.822z" fill="#0099CC"/>
   <path id="svg_59" d="m881.286,417.618c4.562,0 8.839,1.232 12.527,3.37l0,-222.593l0,-10.151c0,-1.516 0.689,-2.982 1.934,-4.121c7.493,-6.852 18.204,-10.782 29.384,-10.782c11.179,0 21.891,3.93 29.383,10.782c1.246,1.142 1.934,2.605 1.934,4.121l0,10.151l0,222.593c3.69,-2.138 7.966,-3.37 12.527,-3.37l0,-219.223c0,-2.528 -0.041,-5.024 -0.125,-7.489c-1.668,-49.794 -19.904,-86.463 -43.719,-86.463c-23.813,0 -42.052,36.668 -43.72,86.463c-0.084,2.464 -0.125,4.961 -0.125,7.489l0,219.223z" fill="#999999"/>
   <path id="svg_60" d="m950.185,204.661l-50.108,0c-4.327,0 -6.263,-2.807 -6.263,-6.266l0,222.593c5.732,3.326 10.04,8.853 11.737,15.422l13.316,0l0,-75.161c0,-3.463 2.801,-6.263 6.264,-6.263s6.264,2.8 6.264,6.263l0,75.161l13.32,0c1.695,-6.569 6,-12.096 11.732,-15.422l0,-222.593c0,3.459 -1.935,6.266 -6.262,6.266z" fill="#666666"/>
   <path id="svg_61" d="m944.715,436.41l-13.32,0l0,43.845l12.526,0l0,-37.583c0,-2.16 0.276,-4.26 0.794,-6.262z" fill="#4D4D4D"/>
   <path id="svg_62" d="m905.549,436.41c0.515,2.002 0.791,4.102 0.791,6.262l0,37.583l12.527,0l0,-43.845l-13.318,0z" fill="#4D4D4D"/>
   <path id="svg_63" d="m931.395,361.249c0,-3.463 -2.801,-6.263 -6.264,-6.263s-6.264,2.8 -6.264,6.263l0,75.161l0,43.845l0,18.79c0,3.459 2.801,6.264 6.264,6.264s6.264,-2.805 6.264,-6.264l0,-18.79l0,-43.845l0,-75.161z" fill="#0071BC"/>
   <path id="svg_64" d="m900.076,204.661l50.108,0c4.327,0 6.263,-2.807 6.263,-6.266l0,-10.151c0,-1.516 -0.688,-2.982 -1.934,-4.121c-7.492,-6.852 -18.204,-10.782 -29.383,-10.782c-11.18,0 -21.891,3.93 -29.384,10.782c-1.244,1.142 -1.934,2.605 -1.934,4.121l0,10.151c0.001,3.459 1.937,6.266 6.264,6.266z" fill="#333333"/>
   <path id="svg_65" d="m890.06,142l70.292,0c0,0 -11.641,-36.802 -35.762,-36.058c-24.123,0.749 -34.53,36.058 -34.53,36.058z"/>
   <path id="svg_66" d="m889.914,141.042l70.369,0.004c0,0 -11.572,-37.352 -35.693,-36.591c-24.123,0.757 -34.676,36.587 -34.676,36.587z"/>
   <path id="svg_67" d="m967.219,129.059"/>
   <polygon id="svg_70" points="969.333984375,498.6659851074219 971.4879760742188,503.0329895019531 976.3090209960938,503.7340087890625 972.8200073242188,507.13299560546875 973.64501953125,511.9339904785156 969.333984375,509.6669921875 965.0230102539062,511.9339904785156 965.8460083007812,507.13299560546875 962.3590087890625,503.7340087890625 967.177978515625,503.0329895019531 " stroke-miterlimit="10" stroke-width="2" stroke="#C9175F" fill="none"/>
  </g>
  <g stroke="null" id="svg_103">
   <path stroke="null" id="svg_14" d="m997.069066,741.654011c3.448493,-7.212 6.56823,-15.385 6.56823,-24.048c0,-29.101 -27.217806,-52.691 -60.658993,-52.691c-21.891034,0 -41.062357,10.099 -51.707855,25.233c-6.791232,-11.534 -20.592102,-19.425 -36.521841,-19.425c-9.767282,0 -18.724168,2.962 -25.763692,7.924c-5.818757,-12.438 -19.858722,-21.2 -36.235616,-21.2c-3.300208,0 -6.495811,0.356 -9.556924,1.021c-2.604762,-4.074 -7.602778,-6.829 -13.344519,-6.829c-4.339354,0 -8.26029,1.576 -11.016786,4.107c-7.134932,-6.613 -17.284997,-10.746 -28.530533,-10.746c-13.506598,0 -25.409646,5.958 -32.439974,15.019c-1.650679,-1.576 -4.045082,-2.571 -6.695824,-2.571c-5.007212,0 -9.06149,3.526 -9.06149,7.883c0,2.107 0.944887,4.023 2.499008,5.435c-14.518156,0.548 -27.070671,7.659 -33.842362,18.007c-10.168457,-16.662 -30.3226,-28.006 -53.520612,-28.006c-33.441187,0 -60.373918,23.591 -60.373918,52.691c0,8.962 2.702469,17.393 7.30046,24.778l452.90324,3.418zm-212.808807,-81.103c-0.210358,-0.523 -0.4575,-1.037 -0.734529,-1.536c0.772462,1.295 1.37365,2.714 1.640333,4.207c-0.181621,-0.938 -0.496583,-1.818 -0.905804,-2.671z" fill="#E2E2E2"/>
   <path stroke="null" id="svg_15" d="m986.723587,741.654011c3.448493,-7.212 6.433739,-15.385 6.433739,-24.048c0,-29.101 -27.352298,-52.691 -60.793484,-52.691c-21.891034,0 -41.062357,10.099 -51.707855,25.233c-6.791232,-11.534 -20.593251,-19.425 -36.521841,-19.425c-9.767282,0 -18.724168,2.962 -25.763692,7.924c-5.818757,-12.438 -19.858722,-21.2 -36.235616,-21.2c-3.300208,0 -6.495811,0.356 -9.556924,1.021c-2.604762,-4.074 -7.602778,-6.829 -13.344519,-6.829c-4.339354,0 -8.26029,1.576 -11.016786,4.107c-7.136082,-6.613 -17.284997,-10.746 -28.530533,-10.746c-13.506598,0 -25.409646,5.958 -32.439974,15.019c-1.650679,-1.576 -4.045082,-2.571 -6.695824,-2.571c-5.007212,0 -9.06149,3.526 -9.06149,7.883c0,2.107 0.944887,4.023 2.499008,5.435c-14.518156,0.548 -27.070671,7.659 -33.842362,18.007c-10.168457,-16.662 -30.3226,-28.006 -53.520612,-28.006c-33.441187,0 -60.239427,23.591 -60.239427,52.691c0,8.962 2.83696,17.393 7.434951,24.778l452.90324,3.418zm-213.078939,-81.103c-0.210358,-0.523 -0.4575,-1.037 -0.734529,-1.536c0.772462,1.295 1.37365,2.714 1.640333,4.207c-0.180471,-0.938 -0.495434,-1.818 -0.905804,-2.671z" fill="#F4F4F4"/>
   <path stroke="null" id="svg_16" d="m822.575317,781.490011c-0.011495,-2.54 -0.195415,-5.03 -0.540264,-7.49c-0.908103,-6.58 -2.931219,-12.84 -5.919913,-18.63c0,-0.03 -0.011495,-0.05 -0.034485,-0.08c-7.839574,-15.24 -22.26577,-27.2 -40.312884,-32.99c-2.26451,-0.72 -4.586496,-1.35 -6.965956,-1.88c-5.667024,-1.25 -11.621422,-1.92 -17.794224,-1.92c-13.299688,0 -25.760243,3.09 -36.496552,8.49c-2.069096,1.04 -4.069222,2.16 -6.000378,3.37c-1.000063,0.62 -1.977136,1.27 -2.931219,1.939c-6.690077,4.62 -12.414575,10.25 -16.886121,16.61c-0.701194,-1.2 -1.471357,-2.36 -2.298995,-3.49c-8.770667,-11.979 -24.173936,-19.92 -41.715271,-19.92c-3.643908,0 -7.195856,0.34 -10.621359,0.99c-0.643719,0.13 -1.298932,0.26 -1.931156,0.399c-6.483167,1.48 -12.437565,4.07 -17.587315,7.551c-0.310364,0.189 -0.609234,0.399 -0.908103,0.609c-0.034485,-0.06 -0.057475,-0.13 -0.09196,-0.189c-7.069411,-14.891 -23.921047,-25.36 -43.577457,-25.36c-3.977262,0 -7.828079,0.43 -11.517967,1.23c-2.793279,-4.37 -7.885554,-7.49 -13.851447,-8.11c-0.735679,-0.08 -1.471357,-0.12 -2.230026,-0.12c-3.540453,0 -6.851006,0.87 -9.644286,2.38c-1.333417,0.72 -2.56338,1.58 -3.632413,2.57c-8.598243,-7.97 -20.828898,-12.95 -34.381476,-12.95c-10.943218,0 -21.001323,3.24 -29.001827,8.7c-3.908292,2.64 -7.3223,5.819 -10.09259,9.399c-0.781658,-0.75 -1.701257,-1.39 -2.735805,-1.88c-1.574812,-0.779 -3.402513,-1.22 -5.333669,-1.22c-4.161182,0 -7.782099,2.02 -9.632791,5c-0.816143,1.34 -1.287437,2.87 -1.287437,4.5c0,2.54 1.138003,4.85 3.011684,6.55c-4.080717,0.15 -8.034989,0.74 -11.793846,1.71c-5.954398,1.521 -11.437502,3.99 -16.219412,7.21c-5.17274,3.48 -9.517841,7.82 -12.770919,12.78c-0.712689,-1.16 -1.459862,-2.3 -2.24152,-3.41c-12.828394,-18.2 -35.910308,-30.34 -62.256795,-30.34c-16.069978,0 -31.162882,4.52 -43.485498,12.2c-17.702264,10.99 -29.714515,28.45 -30.806538,48.3c-0.06897,0.99 -0.09196,1.99 -0.09196,3l329.974807,2.93l223.094512,1.99l9.552326,0.08c0,-0.168 0,-0.338 -0.011495,-0.508zm-262.257898,-66.99c0.20691,0.64 0.390829,1.29 0.505779,1.96c-0.126445,-0.68 -0.321859,-1.33 -0.563254,-1.96c-0.149435,-0.43 -0.333354,-0.85 -0.528769,-1.26c-0.252889,-0.63 -0.551759,-1.25 -0.885113,-1.851c0.586244,0.981 1.092023,2.021 1.471357,3.111z" fill="#D1D3D3"/>
   <path stroke="null" id="svg_17" d="m813.252891,786.490011c0,-1.54 -0.080465,-3.061 -0.218405,-4.57c-0.011495,-0.17 -0.02299,-0.35 -0.04598,-0.52c-0.241395,-2.511 -0.643719,-4.98 -1.195478,-7.4c-1.540327,-6.69 -4.253141,-12.99 -7.954524,-18.73c-0.011495,-0.029 -0.034485,-0.05 -0.04598,-0.079c-7.494725,-11.58 -18.989702,-20.841 -32.967594,-26.29c-1.471357,-0.58 -2.977199,-1.11 -4.506031,-1.601c-7.678645,-2.46 -16.012503,-3.8 -24.76018,-3.8c-9.150002,0 -17.909174,1.46 -25.978648,4.13c-2.42544,0.811 -4.78191,1.72 -7.069411,2.73c-1.172488,0.52 -2.321985,1.06 -3.448493,1.63c-7.057916,3.55 -13.368658,8.1 -18.667843,13.43c-2.643845,2.65 -5.0348,5.49 -7.149876,8.49c-8.184424,-13.9 -24.817655,-23.41 -44.014267,-23.41c-3.414008,0 -6.759046,0.3 -9.97764,0.88c-0.850628,0.14 -1.689762,0.311 -2.5174,0.5c-2.839259,0.65 -5.586559,1.51 -8.195919,2.561c-0.333354,0.13 -0.666709,0.27 -1.000063,0.42c-3.345038,1.42 -6.483167,3.42 -9.356911,5.439c-7.011936,-14.99 -23.932542,-25.3 -43.669417,-25.3l-0.252889,0c-3.885302,0 -7.655655,0.2 -11.265077,0.98c-1.816206,-2.841 -4.597991,-5.275 -7.954524,-6.705c-2.44843,-1.061 -5.207225,-1.713 -8.126949,-1.713c-0.551759,0 -1.092023,-0.012 -1.620792,0.039c-4.586496,0.34 -8.678708,2.134 -11.655907,4.864c-8.598243,-7.97 -20.828898,-12.958 -34.381476,-12.958c-6.977451,0 -13.598558,1.316 -19.552956,3.696c-4.75892,1.87 -9.081032,4.428 -12.828394,7.518c-2.5174,2.07 -4.770415,4.619 -6.713067,7.129c-1.988631,-1.899 -4.87387,-2.851 -8.069474,-2.851l-0.18392,0c-5.954398,0 -10.736308,4.05 -10.736308,9.25c0,1.15 0.2299,2.115 0.666709,3.135c0.505779,1.24 1.310427,2.298 2.344975,3.228c-6.609612,0.25 -12.874374,1.599 -18.564388,3.889c-5.678519,2.28 -10.759298,5.465 -15.01244,9.354c-2.781784,2.53 -5.207225,5.343 -7.207351,8.402c-12.253645,-20.08 -36.542532,-33.754 -64.498315,-33.754c-12.184676,0 -23.783107,2.598 -34.036627,7.198c-21.070293,9.42 -36.473562,27.259 -39.623185,48.299c-0.06897,0.47 -0.13794,0.95 -0.195415,1.429c-0.264384,2.16 -0.402324,4.351 -0.402324,6.57l0.402324,0l562.219321,5c0,-0.169 0,-0.339 -0.011495,-0.509zm-261.878564,-65.03c-0.218405,-1.13 -0.597739,-2.19 -1.092023,-3.22c-0.252889,-0.63 -0.551759,-1.25 -0.885113,-1.851c0.931093,1.561 1.655277,3.271 1.977136,5.071z" fill="#FFFFFF"/>
   <path stroke="null" id="svg_18" d="m1161.447236,779.490011c-0.149435,-1.771 -0.390829,-3.646 -0.712689,-5.365c-5.517589,-30.07 -34.438951,-53.063 -70.623989,-53.063c-15.851573,0 -30.520313,4.369 -42.498079,11.829c-7.943029,4.96 -14.702075,11.254 -19.816191,18.534c-0.701194,-1.2 -1.471357,-2.368 -2.298995,-3.498c-5.242859,-7.16 -12.852534,-12.884 -21.874941,-16.324c-3.356533,-1.279 -6.921126,-2.252 -10.621359,-2.852c-2.988694,-0.49 -6.069348,-0.751 -9.218971,-0.751c-11.357037,0 -21.805971,3.319 -30.139829,8.94c-0.310364,0.189 -0.609234,0.398 -0.908103,0.608c-0.034485,-0.06 -0.057475,-0.13 -0.09196,-0.189c-7.07056,-14.889 -23.922196,-25.359 -43.578607,-25.359c-3.977262,0 -7.828079,0.43 -11.517967,1.23c-3.138129,-4.91 -9.161497,-8.23 -16.081473,-8.23c-0.2299,0 -0.471294,0 -0.701194,0.01c-0.057475,0 -0.11495,0.01 -0.18392,0.01c-4.87387,0.2 -9.253456,2.051 -12.391585,4.931c-8.598243,-7.97 -20.828898,-12.95 -34.381476,-12.95c-10.943218,0 -21.001323,3.24 -29.001827,8.7c-3.908292,2.64 -7.3223,5.819 -10.09259,9.399c-0.781658,-0.75 -1.701257,-1.39 -2.735805,-1.88c-1.574812,-0.779 -3.402513,-1.22 -5.333669,-1.22c-4.161182,0 -7.782099,2.02 -9.632791,5c-0.816143,1.34 -1.287437,2.87 -1.287437,4.5c0,0.27 0.011495,0.54 0.04598,0.8c0.20691,2.22 1.287437,4.23 2.965704,5.75c-2.70132,0.101 -5.333669,0.391 -7.908544,0.851c-1.310427,0.239 -2.60936,0.529 -3.885302,0.859c-5.954398,1.521 -11.437502,3.99 -16.219412,7.21c-5.17274,3.48 -9.517841,7.82 -12.770919,12.78c-0.712689,-1.16 -1.459862,-2.3 -2.24152,-3.41c-5.184235,-7.359 -12.058231,-13.729 -20.127705,-18.71c-0.356344,-0.22 -0.712689,-0.43 -1.069033,-0.64c-11.690392,-6.93 -25.829213,-10.99 -41.060058,-10.99c-15.15038,0 -29.415646,4.02 -41.324442,10.89c-0.735679,0.42 -1.448367,0.86 -2.161056,1.311c-1.620792,1 -3.195604,2.06 -4.712941,3.18c-8.322363,6.07 -15.092905,13.69 -19.667905,22.32c-0.011495,0.02 -0.034485,0.05 -0.04598,0.08c-3.310553,6.27 -5.460114,13.069 -6.184298,20.22c-0.195415,1.81 -0.287374,3.65 -0.287374,5.5l213.92152,1.9l9.586811,0.09c-0.011495,-2.54 -0.195415,-5.03 -0.540264,-7.49l328.216076,0c0.942588,3.37 1.586307,7.11 1.886326,10.67l9.309782,0.329l0.241395,0c0,-2 -0.080465,-3.78 -0.241395,-5.51zm-262.027999,-62.49c0.20691,0.64 0.390829,1.29 0.505779,1.96c-0.126445,-0.68 -0.321859,-1.33 -0.563254,-1.96c-0.149435,-0.43 -0.333354,-0.85 -0.528769,-1.26c-0.252889,-0.63 -0.551759,-1.25 -0.885113,-1.851c0.586244,0.981 1.092023,2.021 1.471357,3.111z" fill="#D1D3D3"/>
   <path stroke="null" id="svg_19" d="m822.575317,781.490011c-0.011495,-2.54 -0.195415,-5.03 -0.540264,-7.49l328.216076,0c-7.66715,-27.58 -35.439014,-48 -69.59059,-48c-11.897301,0 -23.127894,2.47 -33.048059,6.86c-8.459154,3.75 -15.966523,8.88 -22.115186,15.06c-2.644994,2.65 -5.035949,5.49 -7.151025,8.49c-3.678393,-6.24 -9.058042,-11.59 -15.597534,-15.601c-3.024328,-1.85 -6.288902,-3.409 -9.759235,-4.649c-5.758983,-2.03 -12.058231,-3.16 -18.656348,-3.16c-7.39127,0 -14.403206,1.41 -20.690958,3.94c-0.333354,0.13 -0.666709,0.27 -1.000063,0.42c-3.345038,1.42 -6.483167,3.17 -9.356911,5.189c-7.011936,-14.99 -23.932542,-25.55 -43.669417,-25.55l-0.254039,0c-3.885302,0.02 -7.655655,0.45 -11.265077,1.23c-3.138129,-4.91 -9.161497,-8.23 -16.081473,-8.23c-5.230214,0 -9.95465,1.9 -13.276698,4.95c-8.598243,-7.97 -20.828898,-12.95 -34.381476,-12.95c-6.977451,0 -13.598558,1.32 -19.552956,3.7c-4.75892,1.87 -9.081032,4.43 -12.828394,7.52c-2.5174,2.07 -4.770415,4.37 -6.713067,6.88c-1.988631,-1.899 -4.87387,-3.1 -8.069474,-3.1l-0.18392,0c-3.299058,0.05 -6.241772,1.37 -8.207414,3.42c-1.586307,1.65 -2.528895,3.771 -2.528895,6.08c0,0.27 0.011495,0.54 0.04598,0.8c0.080465,0.86 0.287374,1.681 0.620729,2.46c0.505779,1.24 1.310427,2.36 2.344975,3.29c-6.609612,0.25 -12.874374,1.63 -18.564388,3.92c-5.678519,2.28 -10.759298,5.48 -15.01244,9.37c-2.747299,2.5 -5.138255,5.28 -7.126886,8.29c-0.02299,0.03 -0.034485,0.05 -0.04598,0.08c-0.011495,0.01 -0.02299,0.03 -0.034485,0.04c-0.011495,-0.01 -0.011495,-0.03 -0.02299,-0.04c-0.02299,-0.03 -0.034485,-0.05 -0.057475,-0.08c-5.471609,-8.93 -13.334173,-16.59 -22.840519,-22.33c-0.172425,-0.109 -0.344849,-0.21 -0.517274,-0.31c-11.690392,-6.929 -25.829213,-10.989 -41.060058,-10.989c-10.586874,0 -20.736938,1.96 -29.944415,5.49c-1.390892,0.529 -2.747299,1.1 -4.092212,1.71c-2.49441,1.1 -4.908355,2.34 -7.23034,3.68c-9.655781,5.58 -17.748244,13.04 -23.507228,21.771c-0.011495,0.029 -0.034485,0.05 -0.04598,0.08c-4.069222,6.189 -6.965956,13.02 -8.402828,20.27c-0.390829,1.95 -0.666709,3.93 -0.839133,5.93c-0.126445,1.511 -0.195415,3.03 -0.195415,4.57l223.508331,1.99c0,-1.54 -0.080465,-3.061 -0.218405,-4.57l9.552326,0.08c0,-0.171 0,-0.341 -0.011495,-0.511zm67.900829,-57.53c-0.218405,-1.13 -0.597739,-2.19 -1.092023,-3.22c-0.252889,-0.63 -0.551759,-1.25 -0.885113,-1.851c0.931093,1.561 1.655277,3.271 1.977136,5.071z" fill="#FFFFFF"/>
   <path stroke="null" id="svg_40" d="m1540.781474,741.654011c3.448493,-7.212 6.56823,-15.385 6.56823,-24.048c0,-29.101 -27.217806,-52.691 -60.658993,-52.691c-21.891034,0 -41.062357,10.099 -51.707855,25.233c-6.791232,-11.534 -20.592102,-19.425 -36.520691,-19.425c-9.768431,0 -18.724168,2.962 -25.763692,7.924c-5.818757,-12.438 -19.858722,-21.2 -36.235616,-21.2c-3.300208,0 -6.495811,0.356 -9.556924,1.021c-2.604762,-4.074 -7.602778,-6.829 -13.343369,-6.829c-4.339354,0 -8.26144,1.576 -11.016786,4.107c-7.134932,-6.613 -17.284997,-10.746 -28.530533,-10.746c-13.505448,0 -25.408497,5.958 -32.439974,15.019c-1.650679,-1.576 -4.043933,-2.571 -6.694675,-2.571c-5.008361,0 -9.06149,3.526 -9.06149,7.883c0,2.107 0.943738,4.023 2.499008,5.435c-14.518156,0.548 -27.070671,7.659 -33.842362,18.007c-10.168457,-16.662 -30.3226,-28.006 -53.520612,-28.006c-33.441187,0 -60.373918,23.591 -60.373918,52.691c0,8.962 2.703619,17.393 7.301609,24.778l452.898642,3.418zm-212.809956,-81.103c-0.209209,-0.523 -0.456351,-1.037 -0.734529,-1.536c0.772462,1.295 1.37365,2.714 1.641483,4.207c-0.181621,-0.938 -0.495434,-1.818 -0.906954,-2.671z" fill="#E2E2E2"/>
   <path stroke="null" id="svg_41" d="m1530.435995,741.654011c3.448493,-7.212 6.433739,-15.385 6.433739,-24.048c0,-29.101 -27.352298,-52.691 -60.793484,-52.691c-21.891034,0 -41.062357,10.099 -51.707855,25.233c-6.791232,-11.534 -20.592102,-19.425 -36.520691,-19.425c-9.768431,0 -18.724168,2.962 -25.763692,7.924c-5.818757,-12.438 -19.858722,-21.2 -36.235616,-21.2c-3.300208,0 -6.495811,0.356 -9.556924,1.021c-2.604762,-4.074 -7.602778,-6.829 -13.343369,-6.829c-4.339354,0 -8.26144,1.576 -11.016786,4.107c-7.134932,-6.613 -17.284997,-10.746 -28.530533,-10.746c-13.505448,0 -25.408497,5.958 -32.439974,15.019c-1.650679,-1.576 -4.043933,-2.571 -6.694675,-2.571c-5.008361,0 -9.06149,3.526 -9.06149,7.883c0,2.107 0.943738,4.023 2.499008,5.435c-14.518156,0.548 -27.070671,7.659 -33.842362,18.007c-10.168457,-16.662 -30.3226,-28.006 -53.520612,-28.006c-33.441187,0 -60.239427,23.591 -60.239427,52.691c0,8.962 2.83811,17.393 7.436101,24.778l452.898642,3.418zm-213.078939,-81.103c-0.209209,-0.523 -0.456351,-1.037 -0.734529,-1.536c0.772462,1.295 1.37365,2.714 1.641483,4.207c-0.181621,-0.938 -0.496583,-1.818 -0.906954,-2.671z" fill="#F4F4F4"/>
   <path stroke="null" id="svg_42" d="m1366.287725,781.490011c-0.012644,-2.54 -0.196564,-5.03 -0.540264,-7.49c-0.909253,-6.58 -2.932369,-12.84 -5.919913,-18.63c0,-0.03 -0.011495,-0.05 -0.034485,-0.08c-7.838425,-15.24 -22.26577,-27.2 -40.311735,-32.99c-2.26566,-0.72 -4.586496,-1.35 -6.967106,-1.88c-5.667024,-1.25 -11.620272,-1.92 -17.794224,-1.92c-13.298539,0 -25.760243,3.09 -36.496552,8.49c-2.067946,1.04 -4.068072,2.16 -5.999228,3.37c-1.001212,0.62 -1.978286,1.27 -2.932369,1.939c-6.690077,4.62 -12.414575,10.25 -16.884972,16.61c-0.701194,-1.2 -1.471357,-2.36 -2.298995,-3.49c-8.771817,-11.979 -24.173936,-19.92 -41.716421,-19.92c-3.643908,0 -7.195856,0.34 -10.620209,0.99c-0.643719,0.13 -1.298932,0.26 -1.932306,0.399c-6.483167,1.48 -12.436416,4.07 -17.586165,7.551c-0.311514,0.189 -0.610383,0.399 -0.909253,0.609c-0.033335,-0.06 -0.057475,-0.13 -0.09196,-0.189c-7.068261,-14.891 -23.921047,-25.36 -43.577457,-25.36c-3.976113,0 -7.828079,0.43 -11.517967,1.23c-2.793279,-4.37 -7.884405,-7.49 -13.851447,-8.11c-0.735679,-0.08 -1.471357,-0.12 -2.230026,-0.12c-3.540453,0 -6.849857,0.87 -9.644286,2.38c-1.333417,0.72 -2.56223,1.58 -3.632413,2.57c-8.597093,-7.97 -20.828898,-12.95 -34.380326,-12.95c-10.944368,0 -21.002472,3.24 -29.001827,8.7c-3.908292,2.64 -7.3223,5.819 -10.09259,9.399c-0.782808,-0.75 -1.700107,-1.39 -2.735805,-1.88c-1.574812,-0.779 -3.402513,-1.22 -5.334819,-1.22c-4.160032,0 -7.782099,2.02 -9.631641,5c-0.816143,1.34 -1.287437,2.87 -1.287437,4.5c0,2.54 1.138003,4.85 3.012833,6.55c-4.081866,0.15 -8.036138,0.74 -11.794996,1.71c-5.954398,1.521 -11.437502,3.99 -16.219412,7.21c-5.17274,3.48 -9.517841,7.82 -12.770919,12.78c-0.712689,-1.16 -1.459862,-2.3 -2.24152,-3.41c-12.828394,-18.2 -35.910308,-30.34 -62.256795,-30.34c-16.069978,0 -31.162882,4.52 -43.485498,12.2c-17.702264,10.99 -29.714515,28.45 -30.806538,48.3c-0.06897,0.99 -0.09196,1.99 -0.09196,3l329.975957,2.93l223.094512,1.99l9.552326,0.08c-0.002299,-0.168 -0.002299,-0.338 -0.013794,-0.508zm-262.257898,-66.99c0.208059,0.64 0.391979,1.29 0.505779,1.96c-0.126445,-0.68 -0.321859,-1.33 -0.563254,-1.96c-0.149435,-0.43 -0.333354,-0.85 -0.528769,-1.26c-0.252889,-0.63 -0.550609,-1.25 -0.886263,-1.851c0.586244,0.981 1.094322,2.021 1.472507,3.111z" fill="#D1D3D3"/>
   <path stroke="null" id="svg_43" d="m1356.965299,786.490011c0,-1.54 -0.080465,-3.061 -0.217255,-4.57c-0.011495,-0.17 -0.024139,-0.35 -0.047129,-0.52c-0.240245,-2.511 -0.643719,-4.98 -1.194328,-7.4c-1.540327,-6.69 -4.253141,-12.99 -7.954524,-18.73c-0.011495,-0.029 -0.034485,-0.05 -0.047129,-0.079c-7.494725,-11.58 -18.989702,-20.841 -32.967594,-26.29c-1.470208,-0.58 -2.977199,-1.11 -4.506031,-1.601c-7.678645,-2.46 -16.012503,-3.8 -24.759031,-3.8c-9.151151,0 -17.909174,1.46 -25.979797,4.13c-2.42544,0.811 -4.78191,1.72 -7.068261,2.73c-1.173637,0.52 -2.323135,1.06 -3.448493,1.63c-7.059065,3.55 -13.369808,8.1 -18.667843,13.43c-2.644994,2.65 -5.035949,5.49 -7.151025,8.49c-8.183274,-13.9 -24.817655,-23.41 -44.013117,-23.41c-3.415158,0 -6.760196,0.3 -9.978789,0.88c-0.850628,0.14 -1.689762,0.311 -2.5174,0.5c-2.839259,0.65 -5.585409,1.51 -8.194769,2.561c-0.334504,0.13 -0.666709,0.27 -1.001212,0.42c-3.345038,1.42 -6.483167,3.42 -9.356911,5.439c-7.013085,-14.99 -23.931392,-25.3 -43.668268,-25.3l-0.254039,0c-3.885302,0 -7.655655,0.2 -11.265077,0.98c-1.816206,-2.841 -4.597991,-5.275 -7.955674,-6.705c-2.447281,-1.061 -5.206075,-1.713 -8.125799,-1.713c-0.550609,0 -1.092023,-0.012 -1.620792,0.039c-4.585346,0.34 -8.678708,2.134 -11.655907,4.864c-8.598243,-7.97 -20.828898,-12.958 -34.381476,-12.958c-6.977451,0 -13.598558,1.316 -19.552956,3.696c-4.76007,1.87 -9.081032,4.428 -12.828394,7.518c-2.51625,2.07 -4.770415,4.619 -6.713067,7.129c-1.988631,-1.899 -4.87387,-2.851 -8.069474,-2.851l-0.18392,0c-5.954398,0 -10.736308,4.05 -10.736308,9.25c0,1.15 0.2299,2.115 0.666709,3.135c0.505779,1.24 1.310427,2.298 2.344975,3.228c-6.609612,0.25 -12.874374,1.599 -18.564388,3.889c-5.678519,2.28 -10.759298,5.465 -15.01244,9.354c-2.781784,2.53 -5.207225,5.343 -7.207351,8.402c-12.253645,-20.08 -36.542532,-33.754 -64.498315,-33.754c-12.184676,0 -23.783107,2.598 -34.036627,7.198c-21.070293,9.42 -36.473562,27.259 -39.623185,48.299c-0.06897,0.47 -0.13794,0.95 -0.195415,1.429c-0.264384,2.16 -0.402324,4.351 -0.402324,6.57l0.402324,0l562.219321,5c0,-0.169 0,-0.339 -0.011495,-0.509zm-261.878564,-65.03c-0.217255,-1.13 -0.597739,-2.19 -1.090873,-3.22c-0.254039,-0.63 -0.551759,-1.25 -0.886263,-1.851c0.929944,1.561 1.655277,3.271 1.977136,5.071z" fill="#FFFFFF"/>
   <path stroke="null" id="svg_44" d="m1705.159644,779.490011c-0.149435,-1.771 -0.390829,-3.646 -0.712689,-5.365c-5.517589,-30.07 -34.438951,-53.063 -70.623989,-53.063c-15.851573,0 -30.520313,4.369 -42.498079,11.829c-7.943029,4.96 -14.702075,11.254 -19.816191,18.534c-0.701194,-1.2 -1.471357,-2.368 -2.298995,-3.498c-5.242859,-7.16 -12.852534,-12.884 -21.874941,-16.324c-3.356533,-1.279 -6.921126,-2.252 -10.621359,-2.852c-2.988694,-0.49 -6.069348,-0.751 -9.218971,-0.751c-11.357037,0 -21.805971,3.319 -30.139829,8.94c-0.311514,0.189 -0.610383,0.398 -0.909253,0.608c-0.033335,-0.06 -0.057475,-0.13 -0.09196,-0.189c-7.068261,-14.891 -23.921047,-25.36 -43.577457,-25.36c-3.976113,0 -7.828079,0.43 -11.517967,1.23c-3.138129,-4.91 -9.161497,-8.23 -16.081473,-8.23c-0.22875,0 -0.471294,0 -0.700044,0.01c-0.058624,0 -0.11495,0.01 -0.18392,0.01c-4.87387,0.2 -9.254606,2.051 -12.391585,4.931c-8.597093,-7.97 -20.828898,-12.95 -34.380326,-12.95c-10.944368,0 -21.002472,3.24 -29.001827,8.7c-3.908292,2.64 -7.3223,5.819 -10.09259,9.399c-0.782808,-0.75 -1.700107,-1.39 -2.735805,-1.88c-1.574812,-0.779 -3.402513,-1.22 -5.334819,-1.22c-4.160032,0 -7.782099,2.02 -9.631641,5c-0.817293,1.34 -1.288587,2.87 -1.288587,4.5c0,0.27 0.012644,0.54 0.047129,0.8c0.20691,2.22 1.286288,4.23 2.965704,5.75c-2.702469,0.101 -5.334819,0.391 -7.909694,0.851c-1.310427,0.239 -2.60936,0.529 -3.885302,0.859c-5.954398,1.521 -11.437502,3.99 -16.219412,7.21c-5.17274,3.48 -9.516691,7.82 -12.76977,12.78c-0.712689,-1.16 -1.459862,-2.3 -2.24152,-3.41c-5.184235,-7.359 -12.057081,-13.729 -20.127705,-18.71c-0.356344,-0.22 -0.712689,-0.43 -1.070182,-0.64c-11.691541,-6.929 -25.829213,-10.989 -41.060058,-10.989c-15.151529,0 -29.416795,4.02 -41.325591,10.89c-0.735679,0.42 -1.448367,0.86 -2.159906,1.311c-1.620792,1 -3.196753,2.06 -4.71409,3.18c-8.322363,6.07 -15.092905,13.69 -19.667905,22.32c-0.011495,0.02 -0.033335,0.05 -0.04483,0.08c-3.311703,6.27 -5.460114,13.069 -6.185447,20.22c-0.195415,1.81 -0.287374,3.65 -0.287374,5.5l213.92152,1.9l9.58796,0.09c-0.012644,-2.54 -0.196564,-5.03 -0.540264,-7.49l328.214926,0c0.942588,3.37 1.586307,7.11 1.886326,10.67l9.310931,0.33l0.241395,0c-0.001149,-2.001 -0.081614,-3.781 -0.242544,-5.511zm-262.027999,-62.49c0.208059,0.64 0.391979,1.29 0.505779,1.96c-0.126445,-0.68 -0.321859,-1.33 -0.563254,-1.96c-0.149435,-0.43 -0.333354,-0.85 -0.528769,-1.26c-0.252889,-0.63 -0.550609,-1.25 -0.886263,-1.851c0.586244,0.981 1.094322,2.021 1.472507,3.111z" fill="#D1D3D3"/>
   <path stroke="null" id="svg_45" d="m1366.287725,781.490011c-0.012644,-2.54 -0.196564,-5.03 -0.540264,-7.49l328.214926,0c-7.66715,-27.58 -35.439014,-48 -69.59059,-48c-11.897301,0 -23.127894,2.47 -33.048059,6.86c-8.459154,3.75 -15.966523,8.88 -22.115186,15.06c-2.644994,2.65 -5.035949,5.49 -7.151025,8.49c-3.678393,-6.24 -9.058042,-11.59 -15.597534,-15.601c-3.024328,-1.85 -6.288902,-3.409 -9.759235,-4.649c-5.758983,-2.03 -12.058231,-3.16 -18.655198,-3.16c-7.39242,0 -14.404356,1.41 -20.690958,3.94c-0.334504,0.13 -0.666709,0.27 -1.001212,0.42c-3.345038,1.42 -6.483167,3.17 -9.356911,5.189c-7.013085,-14.99 -23.931392,-25.55 -43.668268,-25.55l-0.254039,0c-3.885302,0.02 -7.655655,0.45 -11.265077,1.23c-3.136979,-4.91 -9.161497,-8.23 -16.081473,-8.23c-5.230214,0 -9.95465,1.9 -13.276698,4.95c-8.598243,-7.97 -20.828898,-12.95 -34.381476,-12.95c-6.977451,0 -13.598558,1.32 -19.552956,3.7c-4.76007,1.87 -9.081032,4.43 -12.828394,7.52c-2.51625,2.07 -4.770415,4.37 -6.713067,6.88c-1.988631,-1.899 -4.87387,-3.1 -8.069474,-3.1l-0.18392,0c-3.300208,0.05 -6.242922,1.37 -8.208563,3.42c-1.586307,1.65 -2.527745,3.771 -2.527745,6.08c0,0.27 0.011495,0.54 0.04483,0.8c0.080465,0.86 0.287374,1.681 0.620729,2.46c0.505779,1.24 1.310427,2.36 2.344975,3.29c-6.609612,0.25 -12.873225,1.63 -18.564388,3.92c-5.677369,2.28 -10.758149,5.48 -15.01244,9.37c-2.747299,2.5 -5.138255,5.28 -7.126886,8.29c-0.02299,0.03 -0.033335,0.05 -0.04483,0.08c-0.012644,0.01 -0.024139,0.03 -0.035634,0.04c-0.011495,-0.01 -0.011495,-0.03 -0.02299,-0.04c-0.02299,-0.03 -0.033335,-0.05 -0.057475,-0.08c-5.472759,-8.93 -13.335323,-16.59 -22.840519,-22.33c-0.172425,-0.109 -0.344849,-0.21 -0.516124,-0.31c-11.690392,-6.929 -25.829213,-10.989 -41.060058,-10.989c-10.586874,0 -20.736938,1.96 -29.944415,5.49c-1.390892,0.529 -2.747299,1.1 -4.092212,1.71c-2.49441,1.1 -4.909505,2.34 -7.23149,3.68c-9.654631,5.58 -17.747095,13.04 -23.506078,21.771c-0.011495,0.029 -0.034485,0.05 -0.047129,0.08c-4.068072,6.189 -6.965956,13.02 -8.402828,20.27c-0.390829,1.95 -0.665559,3.93 -0.837984,5.93c-0.126445,1.511 -0.195415,3.03 -0.195415,4.57l223.507182,1.99c0,-1.54 -0.080465,-3.061 -0.217255,-4.57l9.552326,0.08c0,-0.171 0,-0.341 -0.011495,-0.511zm67.900829,-57.53c-0.217255,-1.13 -0.597739,-2.19 -1.090873,-3.22c-0.254039,-0.63 -0.551759,-1.25 -0.886263,-1.851c0.929944,1.561 1.655277,3.271 1.977136,5.071z" fill="#FFFFFF"/>
   <path stroke="null" id="svg_82" d="m1179.958747,705.104011" fill="#D1D3D3"/>
   <path stroke="null" id="svg_87" d="m576.582811,804.490011c-0.012644,-2.54 -0.196564,-5.03 -0.540264,-7.49c-0.909253,-6.58 -2.932369,-12.84 -5.919913,-18.63c0,-0.03 -0.011495,-0.05 -0.034485,-0.08c-7.838425,-15.24 -22.26577,-27.2 -40.311735,-32.99c-2.26566,-0.72 -4.586496,-1.35 -6.967106,-1.88c-5.667024,-1.25 -11.620272,-1.92 -17.794224,-1.92c-13.298539,0 -25.760243,3.09 -36.496552,8.49c-2.067946,1.04 -4.068072,2.16 -5.999228,3.37c-1.001212,0.62 -1.978286,1.27 -2.932369,1.939c-6.690077,4.62 -12.414575,10.25 -16.884972,16.61c-0.701194,-1.2 -1.471357,-2.36 -2.298995,-3.49c-8.771817,-11.979 -24.173936,-19.92 -41.716421,-19.92c-3.643908,0 -7.195856,0.34 -10.620209,0.99c-0.643719,0.13 -1.298932,0.26 -1.932306,0.399c-6.483167,1.48 -12.436416,4.07 -17.586165,7.551c-0.311514,0.189 -0.610383,0.399 -0.909253,0.609c-0.033335,-0.06 -0.057475,-0.13 -0.09196,-0.189c-7.069411,-14.889 -23.921047,-25.359 -43.578607,-25.359c-3.976113,0 -7.828079,0.43 -11.517967,1.23c-2.793279,-4.37 -7.884405,-7.49 -13.851447,-8.11c-0.735679,-0.08 -1.471357,-0.12 -2.230026,-0.12c-3.540453,0 -6.849857,0.87 -9.644286,2.38c-1.333417,0.72 -2.56223,1.58 -3.632413,2.57c-8.597093,-7.97 -20.827749,-12.95 -34.379177,-12.95c-10.944368,0 -21.002472,3.24 -29.001827,8.7c-3.908292,2.64 -7.3223,5.819 -10.09259,9.399c-0.782808,-0.75 -1.700107,-1.39 -2.735805,-1.88c-1.574812,-0.779 -3.402513,-1.22 -5.334819,-1.22c-4.160032,0 -7.782099,2.02 -9.631641,5c-0.817293,1.34 -1.288587,2.87 -1.288587,4.5c0,2.54 1.138003,4.85 3.012833,6.55c-4.081866,0.15 -8.034989,0.74 -11.794996,1.71c-5.954398,1.521 -11.437502,3.99 -16.219412,7.21c-5.17274,3.48 -9.517841,7.82 -12.770919,12.78c-0.712689,-1.16 -1.459862,-2.3 -2.24152,-3.41c-12.828394,-18.2 -35.910308,-30.34 -62.256795,-30.34c-16.069978,0 -31.162882,4.52 -43.485498,12.2c-17.702264,10.99 -29.714515,28.45 -30.806538,48.3c-0.06897,0.99 -0.09196,1.99 -0.09196,3l329.975957,2.93l223.094512,1.99l9.552326,0.08c-0.001149,-0.169 -0.001149,-0.339 -0.012644,-0.509zm-262.257898,-66.99c0.208059,0.64 0.391979,1.29 0.505779,1.96c-0.126445,-0.68 -0.321859,-1.33 -0.563254,-1.96c-0.149435,-0.43 -0.333354,-0.85 -0.528769,-1.26c-0.252889,-0.63 -0.550609,-1.25 -0.886263,-1.851c0.586244,0.981 1.094322,2.021 1.472507,3.111z" fill="#D1D3D3"/>
   <path stroke="null" id="svg_88" d="m567.260385,809.490011c0,-1.54 -0.080465,-3.061 -0.217255,-4.57c-0.011495,-0.17 -0.024139,-0.35 -0.047129,-0.52c-0.240245,-2.511 -0.643719,-4.98 -1.194328,-7.4c-1.540327,-6.69 -4.253141,-12.99 -7.954524,-18.73c-0.011495,-0.029 -0.034485,-0.05 -0.047129,-0.079c-7.494725,-11.58 -18.989702,-20.841 -32.967594,-26.29c-1.470208,-0.58 -2.977199,-1.11 -4.506031,-1.601c-7.678645,-2.46 -16.012503,-3.8 -24.759031,-3.8c-9.151151,0 -17.909174,1.46 -25.979797,4.13c-2.42544,0.811 -4.78191,1.72 -7.068261,2.73c-1.173637,0.52 -2.323135,1.06 -3.448493,1.63c-7.059065,3.55 -13.369808,8.1 -18.667843,13.43c-2.644994,2.65 -5.035949,5.49 -7.151025,8.49c-8.183274,-13.9 -24.817655,-23.41 -44.013117,-23.41c-3.415158,0 -6.760196,0.3 -9.978789,0.88c-0.850628,0.14 -1.689762,0.311 -2.5174,0.5c-2.839259,0.65 -5.585409,1.51 -8.194769,2.561c-0.334504,0.13 -0.666709,0.27 -1.001212,0.42c-3.345038,1.42 -6.483167,3.42 -9.356911,5.439c-7.013085,-14.99 -23.931392,-25.3 -43.668268,-25.3l-0.254039,0c-3.885302,0 -7.655655,0.2 -11.265077,0.98c-1.816206,-2.841 -4.597991,-5.275 -7.955674,-6.705c-2.447281,-1.061 -5.206075,-1.713 -8.125799,-1.713c-0.550609,0 -1.092023,-0.012 -1.620792,0.039c-4.585346,0.34 -8.678708,2.134 -11.655907,4.864c-8.598243,-7.97 -20.828898,-12.958 -34.381476,-12.958c-6.977451,0 -13.598558,1.316 -19.552956,3.696c-4.76007,1.87 -9.081032,4.428 -12.828394,7.518c-2.51625,2.07 -4.770415,4.619 -6.713067,7.129c-1.988631,-1.899 -4.87387,-2.851 -8.069474,-2.851l-0.18392,0c-5.955548,0 -10.736308,4.05 -10.736308,9.25c0,1.15 0.22875,2.115 0.665559,3.135c0.505779,1.24 1.310427,2.298 2.344975,3.228c-6.609612,0.25 -12.873225,1.599 -18.564388,3.889c-5.678519,2.28 -10.759298,5.465 -15.01244,9.354c-2.781784,2.53 -5.207225,5.343 -7.207351,8.402c-12.253645,-20.08 -36.542532,-33.754 -64.498315,-33.754c-12.184676,0 -23.783107,2.598 -34.036627,7.198c-21.070293,9.42 -36.473562,27.259 -39.623185,48.299c-0.06897,0.47 -0.13794,0.95 -0.195415,1.429c-0.264384,2.16 -0.402324,4.351 -0.402324,6.57l0.402324,0l562.219321,5c0.001149,-0.169 0.001149,-0.339 -0.010345,-0.509zm-261.878564,-65.03c-0.217255,-1.13 -0.597739,-2.19 -1.090873,-3.22c-0.254039,-0.63 -0.551759,-1.25 -0.886263,-1.851c0.929944,1.561 1.655277,3.271 1.977136,5.071z" fill="#FFFFFF"/>
   <path stroke="null" id="svg_89" d="m1873.077117,814.740011c-0.012644,-2.54 -0.196564,-5.03 -0.540264,-7.49c-0.909253,-6.58 -2.932369,-12.84 -5.919913,-18.63c0,-0.03 -0.011495,-0.05 -0.034485,-0.08c-7.838425,-15.24 -22.26577,-27.2 -40.311735,-32.99c-2.26566,-0.72 -4.586496,-1.35 -6.967106,-1.88c-5.667024,-1.25 -11.620272,-1.92 -17.794224,-1.92c-13.298539,0 -25.760243,3.09 -36.496552,8.49c-2.067946,1.04 -4.068072,2.16 -5.999228,3.37c-1.001212,0.62 -1.978286,1.27 -2.932369,1.939c-6.690077,4.62 -12.414575,10.25 -16.884972,16.61c-0.701194,-1.2 -1.471357,-2.36 -2.298995,-3.49c-8.771817,-11.979 -24.173936,-19.92 -41.716421,-19.92c-3.643908,0 -7.195856,0.34 -10.620209,0.99c-0.643719,0.13 -1.298932,0.26 -1.932306,0.399c-6.483167,1.48 -12.436416,4.07 -17.586165,7.551c-0.311514,0.189 -0.610383,0.399 -0.909253,0.609c-0.033335,-0.06 -0.057475,-0.13 -0.09196,-0.189c-7.068261,-14.891 -23.921047,-25.36 -43.577457,-25.36c-3.976113,0 -7.828079,0.43 -11.517967,1.23c-2.793279,-4.37 -7.884405,-7.49 -13.851447,-8.11c-0.735679,-0.08 -1.471357,-0.12 -2.230026,-0.12c-3.540453,0 -6.849857,0.87 -9.644286,2.38c-1.333417,0.72 -2.56223,1.58 -3.632413,2.57c-8.597093,-7.97 -20.828898,-12.95 -34.380326,-12.95c-10.944368,0 -21.002472,3.24 -29.001827,8.7c-3.908292,2.64 -7.3223,5.819 -10.09259,9.399c-0.782808,-0.75 -1.700107,-1.39 -2.735805,-1.88c-1.574812,-0.779 -3.402513,-1.22 -5.334819,-1.22c-4.160032,0 -7.782099,2.02 -9.631641,5c-0.817293,1.34 -1.288587,2.87 -1.288587,4.5c0,2.54 1.138003,4.85 3.012833,6.55c-4.081866,0.15 -8.034989,0.74 -11.794996,1.71c-5.954398,1.521 -11.437502,3.99 -16.219412,7.21c-5.17274,3.48 -9.516691,7.82 -12.76977,12.78c-0.712689,-1.16 -1.459862,-2.3 -2.24152,-3.41c-12.827245,-18.2 -35.909158,-30.34 -62.255645,-30.34c-16.069978,0 -31.164032,4.52 -43.485498,12.2c-17.702264,10.99 -29.715665,28.45 -30.807688,48.3c-0.070119,0.99 -0.09196,1.99 -0.09196,3l329.975957,2.93l223.094512,1.99l9.552326,0.08c-0.002299,-0.168 -0.002299,-0.338 -0.013794,-0.508zm-262.257898,-66.99c0.208059,0.64 0.391979,1.29 0.505779,1.96c-0.126445,-0.68 -0.321859,-1.33 -0.563254,-1.96c-0.149435,-0.43 -0.333354,-0.85 -0.528769,-1.26c-0.252889,-0.63 -0.550609,-1.25 -0.886263,-1.851c0.586244,0.981 1.094322,2.021 1.472507,3.111z" fill="#D1D3D3"/>
  </g>
 </g>
</svg>