<?xml version="1.0" encoding="utf-8"?>
<!-- Generator: Adobe Illustrator 16.0.2, SVG Export Plug-In . SVG Version: 6.00 Build 0)  -->
<!DOCTYPE svg PUBLIC "-//W3C//DTD SVG 1.1//EN" "http://www.w3.org/Graphics/SVG/1.1/DTD/svg11.dtd">
<svg version="1.1" id="Layer_1" xmlns="http://www.w3.org/2000/svg" xmlns:xlink="http://www.w3.org/1999/xlink" x="0px" y="0px"
	 width="1280px" height="800px" viewBox="0 0 1280 800" enable-background="new 0 0 1280 800" xml:space="preserve">
<circle fill="none" stroke="#19E0CD" stroke-width="4" stroke-miterlimit="10" cx="336.695" cy="615.361" r="9.362"/>
<circle fill="none" stroke="#19E0CD" stroke-width="4" stroke-miterlimit="10" cx="926.018" cy="499.684" r="7.684"/>
<circle fill="none" stroke="#19E0CD" stroke-width="4" stroke-miterlimit="10" cx="591.412" cy="502.834" r="7.27"/>
<circle fill="none" stroke="#19E0CD" stroke-width="4" stroke-miterlimit="10" cx="634.412" cy="641.834" r="7.27"/>
<circle fill="none" stroke="#2F7296" stroke-width="4" stroke-miterlimit="10" cx="617.623" cy="42.905" r="6.905"/>
<circle fill="none" stroke="#2F7296" stroke-width="4" stroke-miterlimit="10" cx="293.623" cy="216.905" r="6.905"/>
<circle fill="none" stroke="#2F7296" stroke-width="4" stroke-miterlimit="10" cx="1201.624" cy="642.905" r="6.905"/>
<circle fill="none" stroke="#C11846" stroke-width="4" stroke-miterlimit="10" cx="711.851" cy="558.518" r="6.517"/>
<circle fill="#008E8A" cx="51.192" cy="385.858" r="3.274"/>
<circle fill="#008E8A" cx="116.192" cy="108.858" r="3.274"/>
<circle fill="#C11A46" cx="1058.65" cy="347.316" r="4.218"/>
<circle fill="#C11A46" cx="707.65" cy="665.316" r="4.218"/>
<circle fill="#004A8C" cx="484.192" cy="145.858" r="3.274"/>
<path fill="#E2E2E2" d="M653,738.654c3-7.212,5.714-15.385,5.714-24.048c0-29.101-23.678-52.691-52.77-52.691
	c-19.044,0-35.722,10.099-44.983,25.233c-5.908-11.534-17.914-19.425-31.772-19.425c-8.497,0-16.289,2.962-22.413,7.924
	c-5.062-12.438-17.276-21.2-31.523-21.2c-2.871,0-5.651,0.356-8.314,1.021c-2.266-4.074-6.614-6.829-11.609-6.829
	c-3.775,0-7.186,1.576-9.584,4.107C439.539,646.133,430.709,642,420.926,642c-11.75,0-22.105,5.958-28.221,15.019
	c-1.436-1.576-3.519-2.571-5.825-2.571c-4.356,0-7.883,3.526-7.883,7.883c0,2.107,0.822,4.023,2.174,5.435
	c-12.63,0.548-23.55,7.659-29.441,18.007c-8.846-16.662-26.379-28.006-46.56-28.006c-29.092,0-52.522,23.591-52.522,52.691
	c0,8.962,2.351,17.393,6.351,24.778L653,738.654z M467.868,657.551c-0.183-0.523-0.398-1.037-0.639-1.536
	c0.672,1.295,1.195,2.714,1.427,4.207C468.498,659.284,468.224,658.404,467.868,657.551z"/>
<path fill="#F4F4F4" d="M644,738.654c3-7.212,5.597-15.385,5.597-24.048c0-29.101-23.795-52.691-52.887-52.691
	c-19.044,0-35.722,10.099-44.983,25.233c-5.908-11.534-17.915-19.425-31.772-19.425c-8.497,0-16.289,2.962-22.413,7.924
	c-5.062-12.438-17.276-21.2-31.523-21.2c-2.871,0-5.651,0.356-8.314,1.021c-2.266-4.074-6.614-6.829-11.609-6.829
	c-3.775,0-7.186,1.576-9.584,4.107C430.304,646.133,421.475,642,411.692,642c-11.75,0-22.105,5.958-28.221,15.019
	c-1.436-1.576-3.519-2.571-5.825-2.571c-4.356,0-7.883,3.526-7.883,7.883c0,2.107,0.822,4.023,2.174,5.435
	c-12.63,0.548-23.55,7.659-29.441,18.007c-8.846-16.662-26.379-28.006-46.56-28.006c-29.092,0-52.405,23.591-52.405,52.691
	c0,8.962,2.468,17.393,6.468,24.778L644,738.654z M458.633,657.551c-0.183-0.523-0.398-1.037-0.639-1.536
	c0.672,1.295,1.195,2.714,1.427,4.207C459.264,659.284,458.99,658.404,458.633,657.551z"/>
<path fill="#D1D3D3" d="M501.2,778.49c-0.01-2.54-0.17-5.03-0.47-7.49c-0.79-6.58-2.55-12.84-5.15-18.63c0-0.03-0.01-0.05-0.03-0.08
	c-6.82-15.24-19.37-27.2-35.07-32.99c-1.97-0.72-3.99-1.35-6.06-1.88c-4.93-1.25-10.11-1.92-15.48-1.92
	c-11.57,0-22.41,3.09-31.75,8.49c-1.8,1.04-3.54,2.16-5.22,3.37c-0.87,0.62-1.72,1.27-2.55,1.939c-5.82,4.62-10.8,10.25-14.69,16.61
	c-0.61-1.2-1.28-2.36-2-3.49c-7.63-11.979-21.03-19.92-36.29-19.92c-3.17,0-6.26,0.34-9.24,0.99c-0.56,0.13-1.13,0.26-1.68,0.399
	c-5.64,1.48-10.82,4.07-15.3,7.551c-0.27,0.189-0.53,0.399-0.79,0.609c-0.03-0.06-0.05-0.13-0.08-0.189
	c-6.15-14.891-20.81-25.36-37.91-25.36c-3.46,0-6.81,0.43-10.02,1.23c-2.43-4.37-6.86-7.49-12.05-8.11
	c-0.64-0.08-1.28-0.12-1.94-0.12c-3.08,0-5.96,0.87-8.39,2.38c-1.16,0.72-2.23,1.58-3.16,2.57c-7.48-7.97-18.12-12.95-29.91-12.95
	c-9.52,0-18.27,3.24-25.23,8.7c-3.4,2.64-6.37,5.819-8.78,9.399c-0.68-0.75-1.48-1.39-2.38-1.88c-1.37-0.779-2.96-1.22-4.64-1.22
	c-3.62,0-6.77,2.02-8.38,5c-0.71,1.34-1.12,2.87-1.12,4.5c0,2.54,0.99,4.85,2.62,6.55c-3.55,0.15-6.99,0.74-10.26,1.71
	c-5.18,1.521-9.95,3.99-14.11,7.21c-4.5,3.48-8.28,7.82-11.11,12.78c-0.62-1.16-1.27-2.3-1.95-3.41
	c-11.16-18.2-31.24-30.34-54.16-30.34c-13.98,0-27.11,4.52-37.83,12.2c-15.4,10.99-25.85,28.45-26.8,48.3
	c-0.06,0.99-0.08,1.99-0.08,3l287.06,2.93l194.08,1.99l8.31,0.08C501.21,778.83,501.21,778.66,501.2,778.49z M273.05,711.5
	c0.18,0.64,0.34,1.29,0.44,1.96c-0.11-0.68-0.28-1.33-0.49-1.96c-0.13-0.43-0.29-0.85-0.46-1.26c-0.22-0.63-0.48-1.25-0.77-1.851
	C272.28,709.37,272.72,710.41,273.05,711.5z"/>
<path fill="#FFFFFF" d="M493.09,783.49c0-1.54-0.07-3.061-0.19-4.57c-0.01-0.17-0.02-0.35-0.04-0.52c-0.21-2.511-0.56-4.98-1.04-7.4
	c-1.34-6.69-3.7-12.99-6.92-18.73c-0.01-0.029-0.03-0.05-0.04-0.079c-6.52-11.58-16.52-20.841-28.68-26.29
	c-1.28-0.58-2.59-1.11-3.92-1.601c-6.68-2.46-13.93-3.8-21.54-3.8c-7.96,0-15.58,1.46-22.6,4.13c-2.11,0.811-4.16,1.72-6.15,2.73
	c-1.02,0.52-2.02,1.06-3,1.63c-6.14,3.55-11.63,8.1-16.24,13.43c-2.3,2.65-4.38,5.49-6.22,8.49c-7.12-13.9-21.59-23.41-38.29-23.41
	c-2.97,0-5.88,0.3-8.68,0.88c-0.74,0.14-1.47,0.311-2.19,0.5c-2.47,0.65-4.86,1.51-7.13,2.561c-0.29,0.13-0.58,0.27-0.87,0.42
	c-2.91,1.42-5.64,3.42-8.14,5.439c-6.1-14.99-20.82-25.3-37.99-25.3H273c-3.38,0-6.66,0.2-9.8,0.98c-1.58-2.841-4-5.275-6.92-6.705
	c-2.13-1.061-4.53-1.713-7.07-1.713c-0.48,0-0.95-0.012-1.41,0.039c-3.99,0.34-7.55,2.134-10.14,4.864
	c-7.48-7.97-18.12-12.958-29.91-12.958c-6.07,0-11.83,1.316-17.01,3.696c-4.14,1.87-7.9,4.428-11.16,7.518
	c-2.19,2.07-4.15,4.619-5.84,7.129c-1.73-1.899-4.24-2.851-7.02-2.851h-0.16c-5.18,0-9.34,4.05-9.34,9.25
	c0,1.15,0.2,2.115,0.58,3.135c0.44,1.24,1.14,2.298,2.04,3.228c-5.75,0.25-11.2,1.599-16.15,3.889
	c-4.94,2.28-9.36,5.465-13.06,9.354c-2.42,2.53-4.53,5.343-6.27,8.402c-10.66-20.08-31.79-33.754-56.11-33.754
	c-10.6,0-20.69,2.598-29.61,7.198c-18.33,9.42-31.73,27.259-34.47,48.299c-0.06,0.47-0.12,0.95-0.17,1.429
	c-0.23,2.16-0.35,4.351-0.35,6.57H4l489.1,5C493.1,783.83,493.1,783.66,493.09,783.49z M265.27,718.46
	c-0.19-1.13-0.52-2.19-0.95-3.22c-0.22-0.63-0.48-1.25-0.77-1.851C264.36,714.95,264.99,716.66,265.27,718.46z"/>
<path fill="#D1D3D3" d="M796,776.49c-0.13-1.771-0.34-3.646-0.62-5.365c-4.8-30.07-29.96-53.063-61.439-53.063
	c-13.79,0-26.551,4.369-36.971,11.829c-6.91,4.96-12.79,11.254-17.239,18.534c-0.61-1.2-1.28-2.368-2-3.498
	c-4.561-7.16-11.181-12.884-19.03-16.324c-2.92-1.279-6.021-2.252-9.24-2.852c-2.6-0.49-5.28-0.751-8.02-0.751
	c-9.88,0-18.97,3.319-26.22,8.94c-0.27,0.189-0.53,0.398-0.79,0.608c-0.03-0.06-0.05-0.13-0.08-0.189
	C608.2,719.47,593.54,709,576.44,709c-3.46,0-6.81,0.43-10.02,1.23c-2.73-4.91-7.97-8.23-13.99-8.23c-0.2,0-0.41,0-0.61,0.01
	c-0.05,0-0.1,0.01-0.16,0.01c-4.24,0.2-8.05,2.051-10.78,4.931c-7.48-7.97-18.12-12.95-29.91-12.95c-9.52,0-18.27,3.24-25.23,8.7
	c-3.4,2.64-6.37,5.819-8.78,9.399c-0.68-0.75-1.48-1.39-2.38-1.88c-1.37-0.779-2.96-1.22-4.64-1.22c-3.62,0-6.77,2.02-8.38,5
	c-0.71,1.34-1.12,2.87-1.12,4.5c0,0.27,0.01,0.54,0.04,0.8c0.18,2.22,1.12,4.23,2.58,5.75c-2.35,0.101-4.64,0.391-6.88,0.851
	c-1.14,0.239-2.27,0.529-3.38,0.859c-5.18,1.521-9.95,3.99-14.11,7.21c-4.5,3.48-8.28,7.82-11.11,12.78
	c-0.62-1.16-1.27-2.3-1.95-3.41c-4.51-7.359-10.49-13.729-17.51-18.71c-0.31-0.22-0.62-0.43-0.93-0.64
	C397.02,717.06,384.72,713,371.47,713c-13.18,0-25.59,4.02-35.95,10.89c-0.64,0.42-1.26,0.86-1.88,1.311c-1.41,1-2.78,2.06-4.1,3.18
	c-7.24,6.07-13.13,13.69-17.11,22.32c-0.01,0.02-0.03,0.05-0.04,0.08c-2.88,6.27-4.75,13.069-5.38,20.22
	c-0.17,1.81-0.25,3.65-0.25,5.5l186.1,1.9l8.34,0.09c-0.01-2.54-0.17-5.03-0.47-7.49h285.53c0.82,3.37,1.38,7.11,1.641,10.67
	L796,782h0.21C796.21,780,796.14,778.22,796,776.49z M568.05,714c0.18,0.64,0.34,1.29,0.44,1.96c-0.11-0.68-0.28-1.33-0.49-1.96
	c-0.13-0.43-0.29-0.85-0.46-1.26c-0.22-0.63-0.48-1.25-0.77-1.851C567.28,711.87,567.72,712.91,568.05,714z"/>
<path fill="#FFFFFF" d="M501.2,778.49c-0.01-2.54-0.17-5.03-0.47-7.49h285.53c-6.67-27.58-30.83-48-60.54-48
	c-10.35,0-20.12,2.47-28.75,6.86c-7.359,3.75-13.89,8.88-19.239,15.06c-2.301,2.65-4.381,5.49-6.221,8.49
	c-3.2-6.24-7.88-11.59-13.569-15.601c-2.631-1.85-5.471-3.409-8.49-4.649c-5.01-2.03-10.49-3.16-16.23-3.16
	c-6.43,0-12.53,1.41-18,3.94c-0.29,0.13-0.58,0.27-0.87,0.42c-2.91,1.42-5.64,3.17-8.14,5.189c-6.1-14.99-20.82-25.55-37.99-25.55
	H568c-3.38,0.02-6.66,0.45-9.8,1.23c-2.73-4.91-7.97-8.23-13.99-8.23c-4.55,0-8.66,1.9-11.55,4.95
	c-7.48-7.97-18.12-12.95-29.91-12.95c-6.07,0-11.83,1.32-17.01,3.7c-4.14,1.87-7.9,4.43-11.16,7.52c-2.19,2.07-4.15,4.37-5.84,6.88
	c-1.73-1.899-4.24-3.1-7.02-3.1h-0.16c-2.87,0.05-5.43,1.37-7.14,3.42c-1.38,1.65-2.2,3.771-2.2,6.08c0,0.27,0.01,0.54,0.04,0.8
	c0.07,0.86,0.25,1.681,0.54,2.46c0.44,1.24,1.14,2.36,2.04,3.29c-5.75,0.25-11.2,1.63-16.15,3.92c-4.94,2.28-9.36,5.48-13.06,9.37
	c-2.39,2.5-4.47,5.28-6.2,8.29c-0.02,0.03-0.03,0.05-0.04,0.08c-0.01,0.01-0.02,0.03-0.03,0.04c-0.01-0.01-0.01-0.03-0.02-0.04
	c-0.02-0.03-0.03-0.05-0.05-0.08c-4.76-8.93-11.6-16.59-19.87-22.33c-0.15-0.109-0.3-0.21-0.45-0.31
	C388.8,722.06,376.5,718,363.25,718c-9.21,0-18.04,1.96-26.05,5.49c-1.21,0.529-2.39,1.1-3.56,1.71c-2.17,1.1-4.27,2.34-6.29,3.68
	c-8.4,5.58-15.44,13.04-20.45,21.771c-0.01,0.029-0.03,0.05-0.04,0.08c-3.54,6.189-6.06,13.02-7.31,20.27
	c-0.34,1.95-0.58,3.93-0.73,5.93c-0.11,1.511-0.17,3.03-0.17,4.57l194.44,1.99c0-1.54-0.07-3.061-0.19-4.57l8.31,0.08
	C501.21,778.83,501.21,778.66,501.2,778.49z M560.27,720.96c-0.19-1.13-0.52-2.19-0.95-3.22c-0.22-0.63-0.48-1.25-0.77-1.851
	C559.36,717.45,559.99,719.16,560.27,720.96z"/>
<line fill="none" x1="85.276" y1="326.036" x2="80.667" y2="322"/>
<path fill="#D1D3D3" d="M432.104,146.104"/>
<polygon fill="none" stroke="#C9175F" stroke-width="2" stroke-miterlimit="10" points="287.333,43.667 289.489,48.034 
	294.308,48.734 290.821,52.133 291.644,56.933 287.333,54.667 283.023,56.933 283.846,52.133 280.359,48.734 285.178,48.034 "/>
<polygon fill="none" stroke="#18B6C6" stroke-width="2" stroke-miterlimit="10" points="1070.334,487.666 1072.488,492.033 
	1077.309,492.734 1073.82,496.133 1074.645,500.934 1070.334,498.667 1066.023,500.934 1066.846,496.133 1063.359,492.734 
	1068.178,492.033 "/>
<polygon fill="none" stroke="#C9175F" stroke-width="2" stroke-miterlimit="10" points="90.333,601.666 92.489,606.033 
	97.308,606.734 93.821,610.133 94.644,614.934 90.333,612.667 86.023,614.934 86.846,610.133 83.359,606.734 88.178,606.033 "/>
<rect x="343.5" y="432.5" fill="none" stroke="#1957E0" stroke-width="3" stroke-miterlimit="10" width="9" height="9"/>
<rect x="1050" y="235" fill="none" stroke="#E2178B" stroke-width="2" stroke-miterlimit="10" width="9" height="9"/>
<rect x="1087.5" y="588.5" fill="none" stroke="#E2178B" stroke-width="3" stroke-miterlimit="10" width="9" height="9"/>
<rect x="239" y="366" transform="matrix(0.7071 0.7071 -0.7071 0.7071 333.2859 -63.667)" fill="none" stroke="#F75200" stroke-width="2" stroke-miterlimit="10" width="9" height="9"/>
<rect x="840" y="213" transform="matrix(0.7071 0.7071 -0.7071 0.7071 401.1153 -533.4304)" fill="none" stroke="#F75200" stroke-width="2" stroke-miterlimit="10" width="9" height="9"/>
<rect x="411" y="290" transform="matrix(0.7071 0.7071 -0.7071 0.7071 329.9208 -207.5425)" fill="none" stroke="#F75200" stroke-width="2" stroke-miterlimit="10" width="9" height="9"/>
<rect x="1155" y="85" transform="matrix(0.7071 0.7071 -0.7071 0.7071 402.8619 -793.6473)" fill="none" stroke="#00E3F4" stroke-width="4" stroke-miterlimit="10" width="9" height="9"/>
<rect x="1191" y="300" transform="matrix(0.7072 0.7071 -0.7071 0.7072 565.3864 -756.1118)" fill="none" stroke="#00DBF2" stroke-width="2" stroke-miterlimit="10" width="9" height="9"/>
<rect x="720" y="623" transform="matrix(0.7072 0.7071 -0.7071 0.7072 655.8373 -328.5032)" fill="none" stroke="#00DBF2" stroke-width="2" stroke-miterlimit="10" width="9" height="9"/>
<polygon fill="none" stroke="#004A8C" stroke-width="3" stroke-miterlimit="10" points="175.417,515.5 190.833,515.5 
	183.125,523.207 "/>
<polygon fill="none" stroke="#1AD8CF" stroke-width="3" stroke-miterlimit="10" points="885.418,347.5 900.834,347.5 
	893.125,355.207 "/>
<polygon fill="none" stroke="#1AD8CF" stroke-width="3" stroke-miterlimit="10" points="678.585,627.5 690.624,627.5 
	684.604,633.519 "/>
<path fill="#FFFFFF" d="M796,781.5V800H4v-21l489.1,5c0-0.17,0-0.34-0.01-0.51c0-1.54-0.07-3.061-0.19-4.57l8.31,0.08
	c0-0.17,0-0.34-0.01-0.51c-0.01-2.54-0.17-5.03-0.47-7.49h285.53c0.82,3.37,1.38,6.86,1.641,10.42L796,781.5z"/>
<path fill="#FFFFFF" d="M501.21,779l-8.31-0.08c0.12,1.51,0.19,3.03,0.19,4.57c0.01,0.17,0.01,0.34,0.01,0.51L4,779v-8h496.73
	c0.3,2.46,0.46,4.95,0.47,7.49C501.21,778.66,501.21,778.83,501.21,779z"/>
<path fill="#FFFFFF" d="M796,771v10.5l-8.1-0.08c-0.261-3.56-0.82-7.05-1.641-10.42H796z"/>
<path fill="#E2E2E2" d="M1126,738.654c3-7.212,5.714-15.385,5.714-24.048c0-29.101-23.678-52.691-52.77-52.691
	c-19.044,0-35.722,10.099-44.983,25.233c-5.908-11.534-17.914-19.425-31.771-19.425c-8.498,0-16.289,2.962-22.413,7.924
	c-5.062-12.438-17.276-21.2-31.523-21.2c-2.871,0-5.651,0.356-8.314,1.021c-2.266-4.074-6.614-6.829-11.608-6.829
	c-3.775,0-7.187,1.576-9.584,4.107c-6.207-6.613-15.037-10.746-24.82-10.746c-11.749,0-22.104,5.958-28.221,15.019
	c-1.436-1.576-3.518-2.571-5.824-2.571c-4.357,0-7.883,3.526-7.883,7.883c0,2.107,0.821,4.023,2.174,5.435
	c-12.63,0.548-23.55,7.659-29.441,18.007c-8.846-16.662-26.379-28.006-46.56-28.006c-29.092,0-52.522,23.591-52.522,52.691
	c0,8.962,2.352,17.393,6.352,24.778L1126,738.654z M940.867,657.551c-0.182-0.523-0.397-1.037-0.639-1.536
	c0.672,1.295,1.195,2.714,1.428,4.207C941.498,659.284,941.225,658.404,940.867,657.551z"/>
<path fill="#F4F4F4" d="M1117,738.654c3-7.212,5.597-15.385,5.597-24.048c0-29.101-23.795-52.691-52.887-52.691
	c-19.044,0-35.722,10.099-44.983,25.233c-5.908-11.534-17.914-19.425-31.771-19.425c-8.498,0-16.289,2.962-22.413,7.924
	c-5.062-12.438-17.276-21.2-31.523-21.2c-2.871,0-5.651,0.356-8.314,1.021c-2.266-4.074-6.614-6.829-11.608-6.829
	c-3.775,0-7.187,1.576-9.584,4.107c-6.207-6.613-15.037-10.746-24.82-10.746c-11.749,0-22.104,5.958-28.221,15.019
	c-1.436-1.576-3.518-2.571-5.824-2.571c-4.357,0-7.883,3.526-7.883,7.883c0,2.107,0.821,4.023,2.174,5.435
	c-12.63,0.548-23.55,7.659-29.441,18.007c-8.846-16.662-26.379-28.006-46.56-28.006c-29.092,0-52.405,23.591-52.405,52.691
	c0,8.962,2.469,17.393,6.469,24.778L1117,738.654z M931.633,657.551c-0.182-0.523-0.397-1.037-0.639-1.536
	c0.672,1.295,1.195,2.714,1.428,4.207C932.264,659.284,931.99,658.404,931.633,657.551z"/>
<path fill="#D1D3D3" d="M974.2,778.49c-0.011-2.54-0.171-5.03-0.47-7.49c-0.791-6.58-2.551-12.84-5.15-18.63
	c0-0.03-0.01-0.05-0.03-0.08c-6.819-15.24-19.37-27.2-35.069-32.99c-1.971-0.72-3.99-1.35-6.061-1.88
	c-4.93-1.25-10.109-1.92-15.48-1.92c-11.569,0-22.41,3.09-31.75,8.49c-1.799,1.04-3.539,2.16-5.219,3.37
	c-0.871,0.62-1.721,1.27-2.551,1.939c-5.82,4.62-10.8,10.25-14.689,16.61c-0.61-1.2-1.28-2.36-2-3.49
	c-7.631-11.979-21.03-19.92-36.291-19.92c-3.17,0-6.26,0.34-9.239,0.99c-0.56,0.13-1.13,0.26-1.681,0.399
	c-5.64,1.48-10.819,4.07-15.299,7.551c-0.271,0.189-0.531,0.399-0.791,0.609c-0.029-0.06-0.05-0.13-0.08-0.189
	c-6.149-14.891-20.81-25.36-37.91-25.36c-3.459,0-6.81,0.43-10.02,1.23c-2.43-4.37-6.859-7.49-12.05-8.11
	c-0.64-0.08-1.28-0.12-1.94-0.12c-3.08,0-5.959,0.87-8.39,2.38c-1.16,0.72-2.229,1.58-3.16,2.57
	c-7.479-7.97-18.12-12.95-29.909-12.95c-9.521,0-18.271,3.24-25.23,8.7c-3.4,2.64-6.37,5.819-8.78,9.399
	c-0.681-0.75-1.479-1.39-2.38-1.88c-1.37-0.779-2.96-1.22-4.641-1.22c-3.619,0-6.77,2.02-8.379,5c-0.71,1.34-1.12,2.87-1.12,4.5
	c0,2.54,0.99,4.85,2.621,6.55c-3.551,0.15-6.991,0.74-10.261,1.71c-5.18,1.521-9.95,3.99-14.11,7.21
	c-4.5,3.48-8.28,7.82-11.11,12.78c-0.62-1.16-1.27-2.3-1.95-3.41c-11.16-18.2-31.24-30.34-54.16-30.34
	c-13.98,0-27.11,4.52-37.83,12.2c-15.4,10.99-25.85,28.45-26.8,48.3c-0.06,0.99-0.08,1.99-0.08,3l287.061,2.93l194.08,1.99
	l8.31,0.08C974.21,778.83,974.21,778.66,974.2,778.49z M746.05,711.5c0.181,0.64,0.341,1.29,0.44,1.96
	c-0.11-0.68-0.28-1.33-0.49-1.96c-0.13-0.43-0.29-0.85-0.46-1.26c-0.22-0.63-0.479-1.25-0.771-1.851
	C745.279,709.37,745.721,710.41,746.05,711.5z"/>
<path fill="#FFFFFF" d="M966.09,783.49c0-1.54-0.07-3.061-0.189-4.57c-0.01-0.17-0.021-0.35-0.041-0.52
	c-0.209-2.511-0.56-4.98-1.039-7.4c-1.34-6.69-3.7-12.99-6.92-18.73c-0.01-0.029-0.03-0.05-0.041-0.079
	c-6.52-11.58-16.52-20.841-28.68-26.29c-1.279-0.58-2.59-1.11-3.92-1.601c-6.68-2.46-13.93-3.8-21.539-3.8
	c-7.961,0-15.58,1.46-22.601,4.13c-2.11,0.811-4.16,1.72-6.149,2.73c-1.021,0.52-2.021,1.06-3,1.63
	c-6.141,3.55-11.631,8.1-16.24,13.43c-2.301,2.65-4.381,5.49-6.221,8.49c-7.119-13.9-21.59-23.41-38.289-23.41
	c-2.971,0-5.881,0.3-8.681,0.88c-0.74,0.14-1.47,0.311-2.19,0.5c-2.47,0.65-4.859,1.51-7.129,2.561
	c-0.291,0.13-0.58,0.27-0.871,0.42c-2.91,1.42-5.64,3.42-8.14,5.439c-6.101-14.99-20.819-25.3-37.989-25.3H746
	c-3.38,0-6.66,0.2-9.8,0.98c-1.58-2.841-4-5.275-6.921-6.705c-2.129-1.061-4.529-1.713-7.069-1.713c-0.479,0-0.95-0.012-1.41,0.039
	c-3.989,0.34-7.55,2.134-10.14,4.864c-7.48-7.97-18.12-12.958-29.91-12.958c-6.07,0-11.83,1.316-17.01,3.696
	c-4.141,1.87-7.9,4.428-11.16,7.518c-2.189,2.07-4.15,4.619-5.84,7.129c-1.73-1.899-4.24-2.851-7.02-2.851h-0.16
	c-5.18,0-9.34,4.05-9.34,9.25c0,1.15,0.2,2.115,0.58,3.135c0.44,1.24,1.14,2.298,2.04,3.228c-5.75,0.25-11.2,1.599-16.15,3.889
	c-4.94,2.28-9.36,5.465-13.06,9.354c-2.42,2.53-4.53,5.343-6.27,8.402c-10.66-20.08-31.79-33.754-56.11-33.754
	c-10.6,0-20.69,2.598-29.61,7.198c-18.33,9.42-31.73,27.259-34.47,48.299c-0.06,0.47-0.12,0.95-0.17,1.429
	c-0.23,2.16-0.35,4.351-0.35,6.57H477l489.1,5C966.1,783.83,966.1,783.66,966.09,783.49z M738.27,718.46
	c-0.189-1.13-0.52-2.19-0.949-3.22c-0.221-0.63-0.48-1.25-0.771-1.851C737.359,714.95,737.99,716.66,738.27,718.46z"/>
<path fill="#D1D3D3" d="M1269,776.49c-0.13-1.771-0.34-3.646-0.62-5.365c-4.8-30.07-29.96-53.063-61.439-53.063
	c-13.79,0-26.551,4.369-36.971,11.829c-6.91,4.96-12.79,11.254-17.239,18.534c-0.61-1.2-1.28-2.368-2-3.498
	c-4.561-7.16-11.181-12.884-19.03-16.324c-2.92-1.279-6.021-2.252-9.24-2.852c-2.6-0.49-5.28-0.751-8.02-0.751
	c-9.88,0-18.97,3.319-26.22,8.94c-0.271,0.189-0.531,0.398-0.791,0.608c-0.029-0.06-0.05-0.13-0.08-0.189
	c-6.149-14.891-20.81-25.36-37.91-25.36c-3.459,0-6.81,0.43-10.02,1.23c-2.73-4.91-7.97-8.23-13.99-8.23c-0.199,0-0.41,0-0.609,0.01
	c-0.051,0-0.1,0.01-0.16,0.01c-4.24,0.2-8.051,2.051-10.78,4.931c-7.479-7.97-18.12-12.95-29.909-12.95
	c-9.521,0-18.271,3.24-25.23,8.7c-3.4,2.64-6.37,5.819-8.78,9.399c-0.681-0.75-1.479-1.39-2.38-1.88
	c-1.37-0.779-2.96-1.22-4.641-1.22c-3.619,0-6.77,2.02-8.379,5c-0.711,1.34-1.121,2.87-1.121,4.5c0,0.27,0.011,0.54,0.041,0.8
	c0.18,2.22,1.119,4.23,2.58,5.75c-2.351,0.101-4.641,0.391-6.881,0.851c-1.14,0.239-2.27,0.529-3.38,0.859
	c-5.18,1.521-9.95,3.99-14.11,7.21c-4.5,3.48-8.279,7.82-11.109,12.78c-0.62-1.16-1.27-2.3-1.95-3.41
	c-4.51-7.359-10.489-13.729-17.51-18.71c-0.31-0.22-0.62-0.43-0.931-0.64C870.02,717.06,857.721,713,844.471,713
	c-13.181,0-25.591,4.02-35.951,10.89c-0.64,0.42-1.26,0.86-1.879,1.311c-1.41,1-2.781,2.06-4.101,3.18
	c-7.24,6.07-13.13,13.69-17.11,22.32c-0.01,0.02-0.029,0.05-0.039,0.08c-2.881,6.27-4.75,13.069-5.381,20.22
	c-0.17,1.81-0.25,3.65-0.25,5.5l186.1,1.9l8.341,0.09c-0.011-2.54-0.171-5.03-0.47-7.49h285.529c0.82,3.37,1.38,7.11,1.641,10.67
	l8.1,0.33h0.21C1269.21,780,1269.14,778.22,1269,776.49z M1041.05,714c0.181,0.64,0.341,1.29,0.44,1.96
	c-0.11-0.68-0.28-1.33-0.49-1.96c-0.13-0.43-0.29-0.85-0.46-1.26c-0.22-0.63-0.479-1.25-0.771-1.851
	C1040.279,711.87,1040.721,712.91,1041.05,714z"/>
<path fill="#FFFFFF" d="M974.2,778.49c-0.011-2.54-0.171-5.03-0.47-7.49h285.529c-6.67-27.58-30.83-48-60.54-48
	c-10.35,0-20.12,2.47-28.75,6.86c-7.359,3.75-13.89,8.88-19.239,15.06c-2.301,2.65-4.381,5.49-6.221,8.49
	c-3.2-6.24-7.88-11.59-13.569-15.601c-2.631-1.85-5.471-3.409-8.49-4.649c-5.01-2.03-10.49-3.16-16.229-3.16
	c-6.431,0-12.531,1.41-18,3.94c-0.291,0.13-0.58,0.27-0.871,0.42c-2.91,1.42-5.64,3.17-8.14,5.189
	c-6.101-14.99-20.819-25.55-37.989-25.55H1041c-3.38,0.02-6.66,0.45-9.8,1.23c-2.729-4.91-7.97-8.23-13.99-8.23
	c-4.55,0-8.66,1.9-11.55,4.95c-7.48-7.97-18.12-12.95-29.91-12.95c-6.07,0-11.83,1.32-17.01,3.7c-4.141,1.87-7.9,4.43-11.16,7.52
	c-2.189,2.07-4.15,4.37-5.84,6.88c-1.73-1.899-4.24-3.1-7.02-3.1h-0.16c-2.871,0.05-5.431,1.37-7.141,3.42
	c-1.38,1.65-2.199,3.771-2.199,6.08c0,0.27,0.01,0.54,0.039,0.8c0.07,0.86,0.25,1.681,0.54,2.46c0.44,1.24,1.14,2.36,2.04,3.29
	c-5.75,0.25-11.199,1.63-16.15,3.92c-4.939,2.28-9.359,5.48-13.06,9.37c-2.39,2.5-4.47,5.28-6.2,8.29
	c-0.02,0.03-0.029,0.05-0.039,0.08c-0.011,0.01-0.021,0.03-0.031,0.04c-0.01-0.01-0.01-0.03-0.02-0.04
	c-0.02-0.03-0.029-0.05-0.05-0.08c-4.761-8.93-11.601-16.59-19.87-22.33c-0.15-0.109-0.3-0.21-0.449-0.31
	C861.8,722.06,849.5,718,836.25,718c-9.21,0-18.04,1.96-26.05,5.49c-1.21,0.529-2.39,1.1-3.56,1.71c-2.17,1.1-4.271,2.34-6.291,3.68
	c-8.399,5.58-15.439,13.04-20.449,21.771c-0.01,0.029-0.03,0.05-0.041,0.08c-3.539,6.189-6.06,13.02-7.31,20.27
	c-0.34,1.95-0.579,3.93-0.729,5.93c-0.11,1.511-0.17,3.03-0.17,4.57l194.439,1.99c0-1.54-0.07-3.061-0.189-4.57l8.31,0.08
	C974.21,778.83,974.21,778.66,974.2,778.49z M1033.27,720.96c-0.189-1.13-0.52-2.19-0.949-3.22c-0.221-0.63-0.48-1.25-0.771-1.851
	C1032.359,717.45,1032.99,719.16,1033.27,720.96z"/>
<path fill="#FFFFFF" d="M1269,781.5V800H477v-21l489.1,5c0-0.17,0-0.34-0.01-0.51c0-1.54-0.07-3.061-0.189-4.57l8.31,0.08
	c0-0.17,0-0.34-0.01-0.51c-0.011-2.54-0.171-5.03-0.47-7.49h285.529c0.82,3.37,1.38,6.86,1.641,10.42L1269,781.5z"/>
<path fill="#FFFFFF" d="M974.21,779l-8.31-0.08c0.119,1.51,0.189,3.03,0.189,4.57c0.01,0.17,0.01,0.34,0.01,0.51L477,779v-8h496.73
	c0.299,2.46,0.459,4.95,0.47,7.49C974.21,778.66,974.21,778.83,974.21,779z"/>
<path fill="#FFFFFF" d="M1269,771v10.5l-8.1-0.08c-0.261-3.56-0.82-7.05-1.641-10.42H1269z"/>
<path fill="#B6B8BE" d="M502.333,637.199c0,1.766,0.734,3.376,1.932,4.524c-1.198-1.148-1.932-2.759-1.932-4.527V637.199z"/>
<path fill="#B6B8BE" d="M777.929,637.199v-0.003c0,1.769-0.735,3.379-1.931,4.53C777.191,640.575,777.929,638.965,777.929,637.199z"
	/>
<path fill="#034A89" d="M621.548,411.41c-1.698-6.569-6.002-12.096-11.735-15.422c-3.69-2.138-7.966-3.37-12.527-3.37
	c-8.751,0-16.462,4.512-20.944,11.324c-2.594,3.946-4.11,8.664-4.11,13.729v27.198v10.385h31.317h12.527h6.263v-37.583
	C622.34,415.512,622.063,413.412,621.548,411.41z"/>
<path fill="#003366" d="M603.55,455.255h-31.317v18.79c0,3.459,2.802,6.264,6.265,6.264h37.58c3.463,0,6.263-2.805,6.263-6.264
	v-18.79h-6.263H603.55z"/>
<path fill="#034A89" d="M710.031,417.672c0-5.065-1.519-9.783-4.115-13.729c-4.479-6.813-12.19-11.324-20.941-11.324
	c-4.562,0-8.837,1.232-12.527,3.37c-5.732,3.326-10.037,8.853-11.732,15.422c-0.518,2.002-0.794,4.102-0.794,6.262v37.583h6.264
	h12.528h31.318V444.87V417.672z"/>
<path fill="#003366" d="M666.185,455.255h-6.264v18.79c0,3.459,2.8,6.264,6.264,6.264h37.58c3.464,0,6.267-2.805,6.267-6.264v-18.79
	h-31.318H666.185z"/>
<path fill="#B6B8BE" d="M551.67,421.42l24.674,3.522c4.482-6.813,12.193-11.324,20.942-11.324V194.395
	c0-2.528,0.041-5.024,0.125-7.489c-0.064,0.317-0.105,0.642-0.119,0.971c-2.296,56.679-30.989,105.283-56.379,148.178v72.962
	C540.914,415.252,545.5,420.535,551.67,421.42z"/>
<path fill="#0099CC" d="M576.344,424.942l-24.674-3.522c-6.17-0.883-10.756-6.168-10.756-12.402v-72.962l0,0
	c-0.052,0.089-0.106,0.182-0.158,0.271c-20.082,33.927-37.422,63.233-37.422,89.821v25.049c0,1.769,0.734,3.379,1.932,4.53
	c0.933,0.892,2.145,1.502,3.505,1.684l63.461,8.46v-27.198C572.232,433.606,573.748,428.889,576.344,424.942z"/>
<path fill="#B6B8BE" d="M684.975,413.618c8.751,0,16.462,4.512,20.941,11.324l24.678-3.522c6.17-0.883,10.754-6.168,10.754-12.402
	v-72.962c-25.39-42.896-54.083-91.499-56.377-148.178c-0.014-0.329-0.055-0.654-0.121-0.971c0.084,2.464,0.125,4.961,0.125,7.489
	V413.618L684.975,413.618z"/>
<path fill="#0099CC" d="M741.509,336.323c-0.054-0.088-0.108-0.179-0.161-0.268l0,0v72.962c0,6.234-4.584,11.518-10.754,12.402
	l-24.678,3.522c2.597,3.946,4.115,8.664,4.115,13.729v27.198l63.46-8.462c1.364-0.182,2.573-0.79,3.507-1.685
	c1.195-1.148,1.931-2.759,1.931-4.527v-25.049C778.929,399.56,761.589,370.253,741.509,336.323z"/>
<path fill="#999999" d="M597.286,413.618c4.562,0,8.839,1.232,12.527,3.37V194.395v-10.151c0-1.516,0.689-2.982,1.934-4.121
	c7.493-6.852,18.204-10.782,29.384-10.782c11.179,0,21.891,3.93,29.383,10.782c1.246,1.142,1.934,2.605,1.934,4.121v10.151v222.593
	c3.69-2.138,7.966-3.37,12.527-3.37V194.395c0-2.528-0.041-5.024-0.125-7.489c-1.668-49.794-19.904-86.463-43.719-86.463
	c-23.813,0-42.052,36.668-43.72,86.463c-0.084,2.464-0.125,4.961-0.125,7.489V413.618z"/>
<path fill="#666666" d="M666.185,200.661h-50.108c-4.327,0-6.263-2.807-6.263-6.266v222.593c5.732,3.326,10.04,8.853,11.737,15.422
	h13.316v-75.161c0-3.463,2.801-6.263,6.264-6.263s6.264,2.8,6.264,6.263v75.161h13.32c1.695-6.569,6-12.096,11.732-15.422V194.395
	C672.447,197.854,670.512,200.661,666.185,200.661z"/>
<path fill="#4D4D4D" d="M660.715,432.41h-13.32v43.845h12.526v-37.583C659.921,436.512,660.197,434.412,660.715,432.41z"/>
<path fill="#4D4D4D" d="M621.549,432.41c0.515,2.002,0.791,4.102,0.791,6.262v37.583h12.527V432.41H621.549z"/>
<path fill="#0071BC" d="M647.395,357.249c0-3.463-2.801-6.263-6.264-6.263s-6.264,2.8-6.264,6.263v75.161v43.845v18.79
	c0,3.459,2.801,6.264,6.264,6.264s6.264-2.805,6.264-6.264v-18.79V432.41V357.249z"/>
<path fill="#333333" d="M616.076,200.661h50.108c4.327,0,6.263-2.807,6.263-6.266v-10.151c0-1.516-0.688-2.982-1.934-4.121
	c-7.492-6.852-18.204-10.782-29.383-10.782c-11.18,0-21.891,3.93-29.384,10.782c-1.244,1.142-1.934,2.605-1.934,4.121v10.151
	C609.813,197.854,611.749,200.661,616.076,200.661z"/>
<path d="M606.06,138h70.292c0,0-11.641-36.802-35.762-36.058C616.467,102.691,606.06,138,606.06,138z"/>
<path d="M605.914,137.042l70.369,0.004c0,0-11.572-37.352-35.693-36.591C616.467,101.212,605.914,137.042,605.914,137.042z"/>
<path d="M683.219,125.059"/>
<circle fill="#004A8C" cx="610.192" cy="511.858" r="3.274"/>
<path fill="#D1D3D3" d="M680.104,591.104"/>
<polygon fill="none" stroke="#C9175F" stroke-width="2" stroke-miterlimit="10" points="685.334,494.666 687.488,499.033 
	692.309,499.734 688.82,503.133 689.645,507.934 685.334,505.667 681.023,507.934 681.846,503.133 678.359,499.734 683.178,499.033 
	"/>
<rect x="674.5" y="660.5" fill="none" stroke="#1957E0" stroke-width="3" stroke-miterlimit="10" width="9" height="9"/>
<circle fill="#C11A46" cx="620.65" cy="561.316" r="4.218"/>
<polygon fill="none" stroke="#18B6C6" stroke-width="2" stroke-miterlimit="10" points="689.334,593.666 691.488,598.033 
	696.309,598.734 692.82,602.133 693.645,606.934 689.334,604.667 685.023,606.934 685.846,602.133 682.359,598.734 687.178,598.033 
	"/>
<rect x="586.5" y="580.5" fill="none" stroke="#E2178B" stroke-width="3" stroke-miterlimit="10" width="9" height="9"/>
<rect x="584" y="558" transform="matrix(0.7072 0.7071 -0.7071 0.7072 570.0527 -251.3785)" fill="#FFFFFF" stroke="#00DBF2" stroke-width="2" stroke-miterlimit="10" width="9" height="9"/>
<polygon fill="none" stroke="#F24A00" stroke-width="3" stroke-miterlimit="10" points="594.418,528.5 609.834,528.5 
	602.125,536.207 "/>
<circle fill="#004A8C" cx="569.192" cy="589.858" r="3.274"/>
<rect x="571.5" y="535.5" fill="none" stroke="#1957E0" stroke-width="3" stroke-miterlimit="10" width="9" height="9"/>
<circle fill="#C11A46" cx="554.65" cy="646.316" r="4.218"/>
<rect x="745.5" y="603.5" fill="none" stroke="#E2178B" stroke-width="3" stroke-miterlimit="10" width="9" height="9"/>
<circle fill="#004A8C" cx="746.192" cy="642.858" r="3.274"/>
<path fill="#D1D3D3" d="M812.104,702.104"/>
<polygon fill="none" stroke="#C9175F" stroke-width="2" stroke-miterlimit="10" points="69.334,210.666 71.488,215.033 
	76.309,215.734 72.82,219.133 73.645,223.934 69.334,221.667 65.023,223.934 65.846,219.133 62.359,215.734 67.178,215.033 "/>
<polygon fill="none" stroke="#C9175F" stroke-width="2" stroke-miterlimit="10" points="958.334,56.666 960.488,61.033 
	965.309,61.734 961.82,65.133 962.645,69.934 958.334,67.667 954.023,69.934 954.846,65.133 951.359,61.734 956.178,61.033 "/>
<rect x="712.5" y="589.5" fill="none" stroke="#1957E0" stroke-width="3" stroke-miterlimit="10" width="9" height="9"/>
<rect x="967" y="632" transform="matrix(0.7072 0.7071 -0.7071 0.7072 734.532 -500.5095)" fill="none" stroke="#F75200" stroke-width="2" stroke-miterlimit="10" width="9" height="9"/>
<path fill="#D1D3D3" d="M287.2,801.49c-0.011-2.54-0.171-5.03-0.47-7.49c-0.791-6.58-2.551-12.84-5.15-18.63
	c0-0.03-0.01-0.05-0.03-0.08c-6.819-15.24-19.37-27.2-35.069-32.99c-1.971-0.72-3.99-1.35-6.061-1.88
	c-4.93-1.25-10.109-1.92-15.48-1.92c-11.569,0-22.41,3.09-31.75,8.49c-1.799,1.04-3.539,2.16-5.219,3.37
	c-0.871,0.62-1.721,1.27-2.551,1.939c-5.82,4.62-10.8,10.25-14.689,16.61c-0.61-1.2-1.28-2.36-2-3.49
	c-7.631-11.979-21.03-19.92-36.291-19.92c-3.17,0-6.26,0.34-9.239,0.99c-0.56,0.13-1.13,0.26-1.681,0.399
	c-5.64,1.48-10.819,4.07-15.299,7.551c-0.271,0.189-0.531,0.399-0.791,0.609c-0.029-0.06-0.05-0.13-0.08-0.189
	C99.2,739.97,84.54,729.5,67.439,729.5c-3.459,0-6.81,0.43-10.02,1.23c-2.43-4.37-6.859-7.49-12.05-8.11
	c-0.64-0.08-1.28-0.12-1.94-0.12c-3.08,0-5.959,0.87-8.39,2.38c-1.16,0.72-2.229,1.58-3.16,2.57
	C24.4,719.48,13.76,714.5,1.971,714.5c-9.521,0-18.271,3.24-25.23,8.7c-3.4,2.64-6.37,5.819-8.78,9.399
	c-0.681-0.75-1.479-1.39-2.38-1.88c-1.37-0.779-2.96-1.22-4.641-1.22c-3.619,0-6.77,2.02-8.379,5c-0.711,1.34-1.121,2.87-1.121,4.5
	c0,2.54,0.99,4.85,2.621,6.55c-3.551,0.15-6.99,0.74-10.261,1.71c-5.18,1.521-9.95,3.99-14.11,7.21c-4.5,3.48-8.28,7.82-11.11,12.78
	c-0.62-1.16-1.27-2.3-1.95-3.41c-11.16-18.2-31.24-30.34-54.16-30.34c-13.98,0-27.11,4.52-37.83,12.2
	c-15.4,10.99-25.85,28.45-26.8,48.3c-0.06,0.99-0.08,1.99-0.08,3l287.061,2.93l194.08,1.99l8.31,0.08
	C287.21,801.83,287.21,801.66,287.2,801.49z M59.05,734.5c0.181,0.64,0.341,1.29,0.44,1.96c-0.11-0.68-0.28-1.33-0.49-1.96
	c-0.13-0.43-0.29-0.85-0.46-1.26c-0.22-0.63-0.479-1.25-0.771-1.851C58.279,732.37,58.721,733.41,59.05,734.5z"/>
<path fill="#FFFFFF" d="M279.09,806.49c0-1.54-0.07-3.061-0.189-4.57c-0.01-0.17-0.021-0.35-0.041-0.52
	c-0.209-2.511-0.56-4.98-1.039-7.4c-1.34-6.69-3.7-12.99-6.92-18.73c-0.01-0.029-0.03-0.05-0.041-0.079
	c-6.52-11.58-16.52-20.841-28.68-26.29c-1.279-0.58-2.59-1.11-3.92-1.601c-6.68-2.46-13.93-3.8-21.539-3.8
	c-7.961,0-15.58,1.46-22.601,4.13c-2.11,0.811-4.16,1.72-6.149,2.73c-1.021,0.52-2.021,1.06-3,1.63
	c-6.141,3.55-11.631,8.1-16.24,13.43c-2.301,2.65-4.381,5.49-6.221,8.49c-7.119-13.9-21.59-23.41-38.289-23.41
	c-2.971,0-5.881,0.3-8.681,0.88c-0.74,0.14-1.47,0.311-2.19,0.5c-2.47,0.65-4.859,1.51-7.129,2.561
	c-0.291,0.13-0.58,0.27-0.871,0.42c-2.91,1.42-5.64,3.42-8.14,5.439C91.109,745.31,76.391,735,59.221,735H59
	c-3.38,0-6.66,0.2-9.8,0.98c-1.58-2.841-4-5.275-6.921-6.705c-2.129-1.061-4.529-1.713-7.069-1.713c-0.479,0-0.95-0.012-1.41,0.039
	c-3.989,0.34-7.55,2.134-10.14,4.864c-7.48-7.97-18.12-12.958-29.91-12.958c-6.07,0-11.83,1.316-17.01,3.696
	c-4.141,1.87-7.9,4.428-11.16,7.518c-2.189,2.07-4.15,4.619-5.84,7.129c-1.73-1.899-4.24-2.851-7.02-2.851h-0.16
	c-5.181,0-9.34,4.05-9.34,9.25c0,1.15,0.199,2.115,0.579,3.135c0.44,1.24,1.14,2.298,2.04,3.228
	c-5.75,0.25-11.199,1.599-16.15,3.889c-4.94,2.28-9.36,5.465-13.06,9.354c-2.42,2.53-4.53,5.343-6.27,8.402
	c-10.66-20.08-31.79-33.754-56.11-33.754c-10.6,0-20.69,2.598-29.61,7.198c-18.33,9.42-31.73,27.259-34.47,48.299
	c-0.06,0.47-0.12,0.95-0.17,1.429c-0.23,2.16-0.35,4.351-0.35,6.57h0.35l489.1,5C279.1,806.83,279.1,806.66,279.09,806.49z
	 M51.27,741.46c-0.189-1.13-0.52-2.19-0.949-3.22c-0.221-0.63-0.48-1.25-0.771-1.851C50.359,737.95,50.99,739.66,51.27,741.46z"/>
<path fill="#D1D3D3" d="M1415.079,811.74c-0.011-2.54-0.171-5.03-0.47-7.49c-0.791-6.58-2.551-12.84-5.15-18.63
	c0-0.03-0.01-0.05-0.03-0.08c-6.819-15.24-19.37-27.2-35.069-32.99c-1.971-0.72-3.99-1.35-6.061-1.88
	c-4.93-1.25-10.109-1.92-15.48-1.92c-11.569,0-22.41,3.09-31.75,8.49c-1.799,1.04-3.539,2.16-5.219,3.37
	c-0.871,0.62-1.721,1.27-2.551,1.939c-5.82,4.62-10.8,10.25-14.689,16.61c-0.61-1.2-1.28-2.36-2-3.49
	c-7.631-11.979-21.03-19.92-36.291-19.92c-3.17,0-6.26,0.34-9.239,0.99c-0.56,0.13-1.13,0.26-1.681,0.399
	c-5.64,1.48-10.819,4.07-15.299,7.551c-0.271,0.189-0.531,0.399-0.791,0.609c-0.029-0.06-0.05-0.13-0.08-0.189
	c-6.149-14.891-20.81-25.36-37.91-25.36c-3.459,0-6.81,0.43-10.02,1.23c-2.43-4.37-6.859-7.49-12.05-8.11
	c-0.64-0.08-1.28-0.12-1.94-0.12c-3.08,0-5.959,0.87-8.39,2.38c-1.16,0.72-2.229,1.58-3.16,2.57
	c-7.479-7.97-18.12-12.95-29.909-12.95c-9.521,0-18.271,3.24-25.23,8.7c-3.4,2.64-6.37,5.819-8.78,9.399
	c-0.681-0.75-1.479-1.39-2.38-1.88c-1.37-0.779-2.96-1.22-4.641-1.22c-3.619,0-6.77,2.02-8.379,5c-0.711,1.34-1.121,2.87-1.121,4.5
	c0,2.54,0.99,4.85,2.621,6.55c-3.551,0.15-6.99,0.74-10.261,1.71c-5.18,1.521-9.95,3.99-14.11,7.21
	c-4.5,3.48-8.279,7.82-11.109,12.78c-0.62-1.16-1.27-2.3-1.95-3.41c-11.159-18.2-31.239-30.34-54.159-30.34
	c-13.98,0-27.111,4.52-37.83,12.2c-15.4,10.99-25.851,28.45-26.801,48.3c-0.061,0.99-0.08,1.99-0.08,3l287.061,2.93l194.08,1.99
	l8.31,0.08C1415.089,812.08,1415.089,811.91,1415.079,811.74z M1186.929,744.75c0.181,0.64,0.341,1.29,0.44,1.96
	c-0.11-0.68-0.28-1.33-0.49-1.96c-0.13-0.43-0.29-0.85-0.46-1.26c-0.22-0.63-0.479-1.25-0.771-1.851
	C1186.158,742.62,1186.6,743.66,1186.929,744.75z"/>
<path fill="#FFFFFF" d="M1406.969,816.74c0-1.54-0.07-3.061-0.189-4.57c-0.01-0.17-0.021-0.35-0.041-0.52
	c-0.209-2.511-0.56-4.98-1.039-7.4c-1.34-6.69-3.7-12.99-6.92-18.73c-0.01-0.029-0.03-0.05-0.041-0.079
	c-6.52-11.58-16.52-20.841-28.68-26.29c-1.279-0.58-2.59-1.11-3.92-1.601c-6.68-2.46-13.93-3.8-21.539-3.8
	c-7.961,0-15.58,1.46-22.601,4.13c-2.11,0.811-4.16,1.72-6.149,2.73c-1.021,0.52-2.021,1.06-3,1.63
	c-6.141,3.55-11.631,8.1-16.24,13.43c-2.301,2.65-4.381,5.49-6.221,8.49c-7.119-13.9-21.59-23.41-38.289-23.41
	c-2.971,0-5.881,0.3-8.681,0.88c-0.74,0.14-1.47,0.311-2.19,0.5c-2.47,0.65-4.859,1.51-7.129,2.561
	c-0.291,0.13-0.58,0.27-0.871,0.42c-2.91,1.42-5.64,3.295-8.14,5.314C1218.988,755.435,1204.27,745,1187.1,745h-0.221
	c-3.38,0-6.66,0.325-9.8,1.105c-1.58-2.841-4-5.213-6.921-6.643c-2.129-1.061-4.529-1.682-7.069-1.682
	c-0.479,0-0.95,0.004-1.41,0.055c-3.989,0.34-7.55,2.142-10.14,4.872c-7.48-7.97-18.12-12.954-29.91-12.954
	c-6.07,0-11.83,1.318-17.01,3.698c-4.141,1.87-7.9,4.429-11.16,7.519c-2.189,2.07-4.15,4.494-5.84,7.004
	c-1.73-1.898-4.24-2.975-7.02-2.975h-0.16c-5.181,0-9.34,4.175-9.34,9.375c0,1.15,0.199,2.178,0.579,3.197
	c0.44,1.24,1.14,2.329,2.04,3.259c-5.75,0.25-11.199,1.614-16.15,3.904c-4.939,2.28-9.359,5.473-13.06,9.362
	c-2.42,2.53-4.53,5.347-6.271,8.406c-10.659-20.08-31.789-33.752-56.109-33.752c-10.6,0-20.689,2.599-29.609,7.199
	c-18.33,9.42-31.73,27.26-34.471,48.299c-0.061,0.471-0.12,0.826-0.17,1.305c-0.23,2.16-0.35,4.445-0.35,6.445h0.35l489.1,5.125
	C1406.979,816.955,1406.979,816.91,1406.969,816.74z M1179.148,751.71c-0.189-1.13-0.52-2.19-0.949-3.22
	c-0.221-0.63-0.48-1.25-0.771-1.851C1178.238,748.2,1178.869,749.91,1179.148,751.71z"/>
<polygon fill="none" stroke="#C9175F" stroke-width="2" stroke-miterlimit="10" points="591.334,608.666 593.488,613.033 
	598.309,613.734 594.82,617.133 595.645,621.934 591.334,619.667 587.023,621.934 587.846,617.133 584.359,613.734 589.178,613.033 
	"/>
<rect x="554.5" y="610.5" fill="none" stroke="#1957E0" stroke-width="3" stroke-miterlimit="10" width="9" height="9"/>
<circle fill="#C11A46" cx="741.65" cy="585.316" r="4.218"/>
<rect x="590.5" y="641.5" fill="none" stroke="#E2178B" stroke-width="3" stroke-miterlimit="10" width="9" height="9"/>
<rect x="618" y="602" transform="matrix(0.7072 0.7071 -0.7071 0.7072 611.1196 -262.5334)" fill="#FFFFFF" stroke="#00DBF2" stroke-width="2" stroke-miterlimit="10" width="9" height="9"/>
<polygon fill="none" stroke="#1AD8CF" stroke-width="3" stroke-miterlimit="10" points="1201.418,437.5 1216.834,437.5 
	1209.125,445.207 "/>
<circle fill="#004A8C" cx="524.192" cy="645.858" r="3.274"/>
<rect x="674" y="564" transform="matrix(0.7072 0.7071 -0.7071 0.7072 600.6506 -313.2562)" fill="none" stroke="#00DBF2" stroke-width="2" stroke-miterlimit="10" width="9" height="9"/>
<polygon fill="none" stroke="#1AD8CF" stroke-width="3" stroke-miterlimit="10" points="699.585,521.5 711.624,521.5 
	705.604,527.519 "/>
<circle fill="#004A8C" cx="676.192" cy="518.858" r="3.274"/>
<rect x="680.5" y="535.5" fill="none" stroke="#1957E0" stroke-width="3" stroke-miterlimit="10" width="9" height="9"/>
</svg>
