<svg width="496" height="496" xmlns="http://www.w3.org/2000/svg">
 <g>
  <title>background</title>
  <rect x="-1" y="-1" width="498" height="498" id="canvas_background" fill="none"/>
 </g>

 <g>
  <title>Layer 1</title>
  <ellipse fill="#3399cc" stroke="#2F7296" stroke-width="null" stroke-opacity="null" cx="137.5" cy="358.5" id="svg_25" rx="78" ry="75.5"/>
  <path fill="#3399cc" stroke="#2F7296" stroke-width="null" stroke-opacity="null" fill-opacity="null" d="m16.5,115c0,0 99,-97 99,-97c0,0 2,98 2,98c0,0 -101,-1 -101,-1z" id="svg_27"/>
  <rect fill="#3399cc" stroke-width="null" stroke-opacity="null" fill-opacity="null" x="395.5" y="149" width="91" height="242" id="svg_28" stroke="#2F7296"/>
  <path fill="#3399cc" stroke="#2F7296" stroke-width="null" stroke-opacity="null" fill-opacity="null" d="m393.5,109c0,0 92,1 92,1c0,0 -4,-50 -4,-50c0,0 -26,-18 -26,-18c0,0 -29,1 -29,1c0,0 -27,16 -27,16c0,0 -6,50 -6,50z" id="svg_29"/>
  <path id="svg_31" d="m10.5,124c0,0 -2,366 -2,366c0,0 397,0 397,0c0,0 0,-79 0,-79c0,0 -14,-23 -14,-23c0,0 1,-306 1,-306c0,0 17,-40 17,-40c0,0 -1,-31 -1,-31c0,0 -283,-1 -283,-1c0,0 -11,111 -11,111c0,0 -104,3 -104,3z" fill-opacity="null" stroke-opacity="null" stroke-width="null" stroke="null" fill="#ffffff"/>
  <rect id="svg_32" height="23" width="89" y="116" x="397.5" fill-opacity="null" stroke-opacity="null" stroke-width="null" stroke="null" fill="#ffffff"/>
  <path id="svg_33" d="m440.5,470c0,0 -45,-76 -45,-76c0,0 88,-1 88,-1c0,0 -43,77 -43,77z" fill-opacity="null" stroke-opacity="null" stroke-width="null" stroke="null" fill="#ffffff"/>
  <g id="svg_1">
   <g id="svg_2">
    <g id="svg_3">
     <path d="m440,32c-8.6,0 -16.712,2 -24,5.48l0,-37.48l-299.312,0l-116.688,116.688l0,379.312l416,0l0,-48.448l24,40l56,-93.336l0,-306.216c0,-30.88 -25.12,-56 -56,-56zm-328,-4.688l0,84.688l-84.688,0l84.688,-84.688zm288,452.688l-384,0l0,-352l112,0l0,-112l272,0l0,32.88c-9.88,10.104 -16,23.904 -16,39.12l0,306.216l16,26.664l0,59.12zm40,-23.552l-24,-40l0,-0.448l-0.272,0l-9.6,-16l67.744,0l-33.872,56.448zm40,-72.448l-32,0l0,-200l-16,0l0,200l-32,0l0,-232l32,0l0,16l16,0l0,-16l32,0l0,232zm0,-248l-80,0l0,-16l80,0l0,16zm0,-32l-80,0l0,-16c0,-22.056 17.944,-40 40,-40c22.056,0 40,17.944 40,40l0,16z" id="svg_4"/>
     <path d="m136,272c-48.52,0 -88,39.48 -88,88c0,48.52 39.48,88 88,88s88,-39.48 88,-88c0,-48.52 -39.48,-88 -88,-88zm0,160c-39.696,0 -72,-32.304 -72,-72s32.304,-72 72,-72s72,32.304 72,72s-32.304,72 -72,72z" id="svg_5"/>
     <polygon points="354.344,242.344 332,264.688 309.656,242.344 298.344,253.656 320.688,276 298.344,298.344 309.656,309.656      332,287.312 354.344,309.656 365.656,298.344 343.312,276 365.656,253.656    " id="svg_6"/>
     <polygon points="109.656,221.656 132,199.312 154.344,221.656 165.656,210.344 143.312,188 165.656,165.656 154.344,154.344      132,176.688 109.656,154.344 98.344,165.656 120.688,188 98.344,210.344    " id="svg_7"/>
     <path d="m326.656,107.568l-38.656,-57.992l-38.656,57.984l13.312,8.872l16.584,-24.872c-7.48,134.008 -67.92,189.888 -68.568,190.472l5.328,5.968l5.32,5.984c2.88,-2.56 67.072,-61.368 74.032,-204.528l17.992,26.984l13.312,-8.872z" id="svg_8"/>
     <path d="m128,336l16,0c4.408,0 8,3.592 8,8l16,0c0,-13.232 -10.768,-24 -24,-24l0,-16l-16,0l0,16c-13.232,0 -24,10.768 -24,24s10.768,24 24,24l16,0c4.408,0 8,3.592 8,8c0,4.408 -3.592,8 -8,8l-16,0c-4.408,0 -8,-3.592 -8,-8l-16,0c0,13.232 10.768,24 24,24l0,16l16,0l0,-16c13.232,0 24,-10.768 24,-24s-10.768,-24 -24,-24l-16,0c-4.408,0 -8,-3.592 -8,-8c0,-4.408 3.592,-8 8,-8z" id="svg_9"/>
    </g>
   </g>
  </g>
  <g id="svg_10"/>
  <g id="svg_11"/>
  <g id="svg_12"/>
  <g id="svg_13"/>
  <g id="svg_14"/>
  <g id="svg_15"/>
  <g id="svg_16"/>
  <g id="svg_17"/>
  <g id="svg_18"/>
  <g id="svg_19"/>
  <g id="svg_20"/>
  <g id="svg_21"/>
  <g id="svg_22"/>
  <g id="svg_23"/>
  <g id="svg_24"/>
 </g>
</svg>