<?xml version="1.0" encoding="iso-8859-1"?>
<!-- Generator: Adobe Illustrator 19.0.0, SVG Export Plug-In . SVG Version: 6.00 Build 0)  -->
<svg version="1.1" id="Capa_1" xmlns="http://www.w3.org/2000/svg" xmlns:xlink="http://www.w3.org/1999/xlink" x="0px" y="0px"
	 viewBox="0 0 496 496" style="enable-background:new 0 0 496 496;" xml:space="preserve">
<g>
	<g>
		<g>
			<path d="M440,32c-8.6,0-16.712,2-24,5.48V0H116.688L0,116.688V496h416v-48.448l24,40l56-93.336V88C496,57.12,470.88,32,440,32z
				 M112,27.312V112H27.312L112,27.312z M400,480H16V128h112V16h272v32.88c-9.88,10.104-16,23.904-16,39.12v306.216l16,26.664V480z
				 M440,456.448l-24-40V416h-0.272l-9.6-16h67.744L440,456.448z M480,384h-32V184h-16v200h-32V152h32v16h16v-16h32V384z M480,136
				h-80v-16h80V136z M480,104h-80V88c0-22.056,17.944-40,40-40c22.056,0,40,17.944,40,40V104z"/>
			<path d="M136,272c-48.52,0-88,39.48-88,88c0,48.52,39.48,88,88,88s88-39.48,88-88C224,311.48,184.52,272,136,272z M136,432
				c-39.696,0-72-32.304-72-72s32.304-72,72-72s72,32.304,72,72S175.696,432,136,432z"/>
			<polygon points="354.344,242.344 332,264.688 309.656,242.344 298.344,253.656 320.688,276 298.344,298.344 309.656,309.656 
				332,287.312 354.344,309.656 365.656,298.344 343.312,276 365.656,253.656 			"/>
			<polygon points="109.656,221.656 132,199.312 154.344,221.656 165.656,210.344 143.312,188 165.656,165.656 154.344,154.344 
				132,176.688 109.656,154.344 98.344,165.656 120.688,188 98.344,210.344 			"/>
			<path d="M326.656,107.568L288,49.576l-38.656,57.984l13.312,8.872L279.24,91.56c-7.48,134.008-67.92,189.888-68.568,190.472
				L216,288l5.32,5.984c2.88-2.56,67.072-61.368,74.032-204.528l17.992,26.984L326.656,107.568z"/>
			<path d="M128,336h16c4.408,0,8,3.592,8,8h16c0-13.232-10.768-24-24-24v-16h-16v16c-13.232,0-24,10.768-24,24s10.768,24,24,24h16
				c4.408,0,8,3.592,8,8c0,4.408-3.592,8-8,8h-16c-4.408,0-8-3.592-8-8h-16c0,13.232,10.768,24,24,24v16h16v-16
				c13.232,0,24-10.768,24-24s-10.768-24-24-24h-16c-4.408,0-8-3.592-8-8C120,339.592,123.592,336,128,336z"/>
		</g>
	</g>
</g>
<g>
</g>
<g>
</g>
<g>
</g>
<g>
</g>
<g>
</g>
<g>
</g>
<g>
</g>
<g>
</g>
<g>
</g>
<g>
</g>
<g>
</g>
<g>
</g>
<g>
</g>
<g>
</g>
<g>
</g>
</svg>
