<?xml version="1.0" encoding="iso-8859-1"?>
<!-- Generator: Adobe Illustrator 19.0.0, SVG Export Plug-In . SVG Version: 6.00 Build 0)  -->
<svg version="1.1" id="Layer_1" xmlns="http://www.w3.org/2000/svg" xmlns:xlink="http://www.w3.org/1999/xlink" x="0px" y="0px"
	 viewBox="0 0 470 470" style="enable-background:new 0 0 470 470;" xml:space="preserve">
<g>
	<g>
		<g>
			<path d="M432.5,47.5h-395C16.822,47.5,0,64.323,0,85v300c0,20.677,16.822,37.5,37.5,37.5h395c20.678,0,37.5-16.823,37.5-37.5V85
				C470,64.323,453.178,47.5,432.5,47.5z M455,385c0,12.406-10.094,22.5-22.5,22.5h-395C25.093,407.5,15,397.406,15,385V85
				c0-12.406,10.093-22.5,22.5-22.5h395c12.406,0,22.5,10.094,22.5,22.5V385z"/>
			<path d="M402.5,107.5h-335c-4.142,0-7.5,3.358-7.5,7.5v240c0,4.142,3.358,7.5,7.5,7.5h265c4.143,0,7.5-3.358,7.5-7.5
				c0-4.142-3.357-7.5-7.5-7.5H75v-225h320v225h-32.5c-4.143,0-7.5,3.358-7.5,7.5c0,4.142,3.357,7.5,7.5,7.5h40
				c4.143,0,7.5-3.358,7.5-7.5V115C410,110.858,406.643,107.5,402.5,107.5z"/>
			<circle cx="235" cy="85" r="7.5"/>
		</g>
	</g>
</g>
<g>
</g>
<g>
</g>
<g>
</g>
<g>
</g>
<g>
</g>
<g>
</g>
<g>
</g>
<g>
</g>
<g>
</g>
<g>
</g>
<g>
</g>
<g>
</g>
<g>
</g>
<g>
</g>
<g>
</g>
</svg>
