<svg width="1100" height="193" xmlns="http://www.w3.org/2000/svg">

 <g>
  <title>background</title>
  <rect fill="none" id="canvas_background" height="195" width="1102" y="-1" x="-1"/>
 </g>
 <g>
  <title>Layer 1</title>
  <g stroke="null" id="svg_8">
   <path stroke="null" id="svg_6" d="m85.175374,113.511957c38.768964,-37.652178 134.788735,-102.271464 174.873956,-16.253044c40.085221,86.01842 120.829552,-2.965941 151.508232,-12.008665c61.35736,-18.085458 103.180457,42.508467 175.208689,69.198602c72.028221,26.690134 77.042133,-77.223697 158.005571,-81.410122c80.963438,-4.186425 105.382602,132.742304 222.400367,69.961821c117.017766,-62.780483 142.369041,81.780439 158.375302,92.858422c32.012513,22.155955 -1297.479989,-26.690124 -1150.755851,-22.387791" opacity="0.5" stroke-opacity="null" stroke-width="null" fill="#5B9BA2"/>
   <path stroke="null" id="svg_7" d="m1016.342332,85.925475c-47.050443,-53.059098 -96.335828,-70.757411 -182.769492,-6.528098c-86.433654,64.229313 -120.959401,-4.179577 -151.671051,-16.9225c-61.423309,-25.485867 -103.291348,59.90255 -175.396986,97.514051c-72.105628,37.611501 -77.124941,-108.822941 -158.175385,-114.722413c-81.050455,-5.899482 -105.495855,187.059277 -222.639381,98.589573c-117.143527,-88.469704 -142.522047,115.244274 -158.54551,130.855263c-32.046915,31.221977 1347.957526,28.353922 1201.075698,34.416734" opacity="0.5" stroke-opacity="null" stroke-width="null" fill="#5B9BA2"/>
  </g>
 </g>
</svg>